<svg width="22" height="22" viewBox="0 0 22 22" fill="none" xmlns="http://www.w3.org/2000/svg">
<g clip-path="url(#clip0_3661_19332)">
<path d="M10.9999 0C4.93455 0 0 4.93444 0 10.9997C0 17.0653 4.93455 22 10.9999 22C17.0651 22 21.9996 17.0652 21.9996 10.9997C21.9996 4.93444 17.0651 0 10.9999 0ZM10.9999 20.4232C5.80401 20.4232 1.57683 16.1958 1.57683 10.9997C1.57683 5.80391 5.80401 1.57683 10.9999 1.57683C16.1957 1.57683 20.4227 5.80391 20.4227 10.9997C20.4227 16.1958 16.1957 20.4232 10.9999 20.4232Z" fill="black"/>
<path d="M16.6553 10.8157H11.486V5.16513C11.486 4.72971 11.1331 4.37671 10.6976 4.37671C10.2622 4.37671 9.90918 4.72971 9.90918 5.16513V11.6041C9.90918 12.0395 10.2622 12.3925 10.6976 12.3925H16.6553C17.0908 12.3925 17.4437 12.0395 17.4437 11.6041C17.4437 11.1687 17.0907 10.8157 16.6553 10.8157Z" fill="black"/>
</g>
<defs>
<clipPath id="clip0_3661_19332">
<rect width="22" height="22" fill="white"/>
</clipPath>
</defs>
</svg>
