<svg width="21" height="24" viewBox="0 0 21 24" fill="none" xmlns="http://www.w3.org/2000/svg">
<g clip-path="url(#clip0_486_50)">
<path d="M21.0453 16.7522C21.0453 21.1011 16.6027 23.3675 11.0167 23.3675C8.33818 23.3675 2.75229 22.6018 0.335003 18.6204C-0.514312 17.2423 0.237005 14.7617 2.75229 14.7617C3.79759 14.7617 4.87558 15.3129 5.36556 16.5073C6.31288 18.8349 7.78284 21.4074 11.7354 21.4074C13.1074 21.4074 14.7407 20.6111 14.7407 19.0492C14.7407 14.0572 0.890326 13.2916 0.890326 6.03328C0.890326 1.07191 6.80287 0 10.2002 0C13.6627 0 17.2233 1.43941 18.6933 3.30758C18.9873 3.67509 19.1179 4.07322 19.1179 4.53262C19.1179 5.66576 18.138 6.58454 16.9294 6.58454C16.1453 6.58454 15.492 6.24766 15.0347 5.54326C13.8914 3.82822 12.846 1.96005 9.9715 1.96005C8.50146 1.96005 6.8682 2.72569 6.8682 4.41011C6.8682 8.94273 21.0453 10.1371 21.0453 16.7522Z" fill="white"/>
</g>
<defs>
<clipPath id="clip0_486_50">
<rect width="20.6897" height="24" fill="white"/>
</clipPath>
</defs>
</svg>
