<svg width="143" height="29" viewBox="0 0 143 29" fill="none" xmlns="http://www.w3.org/2000/svg">
<path d="M25.4297 20.2423C25.4297 25.4972 20.0616 28.2357 13.3119 28.2357C10.0753 28.2357 3.32568 27.3105 0.404795 22.4997C-0.621461 20.8344 0.286381 17.837 3.32568 17.837C4.58876 17.837 5.89132 18.5031 6.48339 19.9463C7.62806 22.7588 9.40427 25.8673 14.1803 25.8673C15.8381 25.8673 17.8117 24.9051 17.8117 23.0178C17.8117 16.9858 1.07581 16.0607 1.07581 7.29021C1.07581 1.29522 8.22013 0 12.3252 0C16.5091 0 20.8115 1.73929 22.5877 3.99666C22.943 4.44073 23.1008 4.92181 23.1008 5.47691C23.1008 6.84613 21.9167 7.95632 20.4563 7.95632C19.5089 7.95632 18.7195 7.54925 18.1669 6.69811C16.7854 4.62577 15.5223 2.36839 12.0489 2.36839C10.2726 2.36839 8.29907 3.29354 8.29907 5.32888C8.29907 10.8058 25.4297 12.249 25.4297 20.2423Z" fill="white"/>
<path d="M51.1419 19.6873C53.3128 12.5821 57.0231 8.54841 64.049 8.54841C70.4039 8.54841 74.3511 11.916 74.3511 16.8008V23.7579C74.3511 24.424 74.5089 24.8681 75.1799 24.7571C75.7325 24.6461 76.1273 24.9421 76.1273 25.4972C76.1273 26.5334 74.1142 27.6436 71.7854 27.6436C69.4566 27.6436 67.562 26.3484 67.562 24.054V15.6906C67.0094 16.2827 66.1805 16.8748 65.1147 17.6149C63.1412 18.9101 62.4702 20.6864 62.4702 22.2777C62.4307 24.424 63.6543 26.2743 65.391 25.1272C65.7858 24.8681 66.2989 25.0901 66.2989 25.5342C66.2989 25.7193 66.2594 25.9043 66.141 26.0523C65.2332 27.2365 63.6543 28.2357 61.0492 28.2357C57.852 28.2357 55.6811 26.2003 55.6811 23.2028C55.6811 19.6873 59.6677 17.7999 62.5096 16.5787C65.3121 15.3945 66.9699 14.0993 66.9699 12.286C66.9699 11.2129 65.9436 10.3247 63.6543 10.3247C59.3124 10.3247 55.5232 11.916 53.076 19.6873C52.0892 22.8328 51.1419 25.8673 51.1024 26.0523C50.8261 26.9405 49.9183 27.6436 48.8131 27.6436H46.7211C45.7343 27.6436 44.787 27.0515 44.4712 26.1263L41.0767 16.3197L37.8795 26.0523C37.6032 26.9035 36.6953 27.6436 35.5901 27.6436H33.4982C32.5114 27.6436 31.6035 27.0515 31.2483 26.1263L27.4196 13.9143C26.4328 10.7688 24.8539 11.0278 24.8539 10.0287C24.8539 9.54758 25.2486 9.14051 25.8802 9.14051H32.9456C33.9718 9.14051 34.3665 9.54758 34.3665 10.0287C34.3665 11.0278 33.4587 10.7688 34.4455 13.9143L37.0901 22.3887L40.8793 10.7688C41.1951 9.80662 42.1029 9.14051 43.1687 9.14051H44.037C45.1027 9.14051 46.0106 9.80662 46.3264 10.7318L50.313 22.3887L51.1419 19.6873Z" fill="white"/>
<path d="M98.452 22.8698C98.452 26.1263 99.5178 25.7563 99.5178 26.7554C99.5178 27.2365 99.0836 27.6436 98.4915 27.6436H91.6629C91.0314 27.6436 90.5972 27.2365 90.5972 26.7554C90.5972 25.7563 91.6629 26.1263 91.6629 22.8698V14.9135C91.6629 12.9521 90.3209 12.101 88.9394 12.101C87.4 12.101 85.7422 13.1742 85.7422 14.9135V22.8698C85.7422 26.1263 86.808 25.7563 86.808 26.7554C86.808 27.2365 86.3738 27.6436 85.7422 27.6436H78.9137C78.3216 27.6436 77.8874 27.2365 77.8874 26.7554C77.8874 25.7563 78.9532 26.1263 78.9532 22.8698V16.0607C78.9532 12.8041 77.8874 13.1742 77.8874 12.175C77.8874 11.6569 78.3216 11.2869 78.9137 11.2869C81.5977 11.2869 82.4661 9.14051 84.5186 9.14051C85.1896 9.14051 85.7422 9.6586 85.7422 10.2877V11.4349C87.4395 9.6586 89.8473 8.54841 92.1761 8.54841C95.6101 8.54841 98.452 10.6948 98.452 16.0977V22.8698Z" fill="white"/>
<path d="M110.674 10.3247C107.792 10.3247 106.963 15.9496 108.108 19.5762C108.819 18.5031 110.279 18.022 112.016 17.3929C115.923 15.9496 113.752 10.3247 110.674 10.3247ZM100.924 18.392C100.924 12.9521 104.832 8.54841 110.674 8.54841C115.055 8.54841 119.397 11.1388 120.305 14.3584C122.12 20.7974 105.937 17.4299 109.45 22.3517C110.634 24.017 112.45 25.0531 115.016 24.8681C118.213 24.6091 119.594 22.9438 119.87 22.6477C120.384 22.1297 120.936 22.4257 121.094 22.5737C121.449 22.9068 121.41 23.3139 121.291 23.5359C120.028 25.7563 116.594 28.2357 111.937 28.2357C105.858 28.2357 100.924 23.8319 100.924 18.392Z" fill="white"/>
<path d="M132.298 10.3247C129.417 10.3247 128.588 15.9496 129.732 19.5762C130.443 18.5031 131.903 18.022 133.64 17.3929C137.548 15.9496 135.377 10.3247 132.298 10.3247ZM122.549 18.392C122.549 12.9521 126.456 8.54841 132.298 8.54841C136.679 8.54841 141.021 11.1388 141.929 14.3584C143.745 20.7974 127.562 17.4299 131.075 22.3517C132.259 24.017 134.074 25.0531 136.64 24.8681C139.837 24.6091 141.219 22.9438 141.495 22.6477C142.008 22.1297 142.561 22.4257 142.719 22.5737C143.074 22.9068 143.034 23.3139 142.916 23.5359C141.653 25.7563 138.219 28.2357 133.561 28.2357C127.483 28.2357 122.549 23.8319 122.549 18.392Z" fill="white"/>
</svg>
