<svg width="88" height="88" viewBox="0 0 88 88" fill="none" xmlns="http://www.w3.org/2000/svg">
<path d="M41.9776 19.8157L24.0667 30.1567C22.8192 30.8768 22.0444 32.219 22.0444 33.6593V54.3412C22.0444 55.7815 22.8192 57.1237 24.0667 57.8439L41.9776 68.1849C42.6014 68.545 43.3006 68.7251 43.9999 68.7251C44.6991 68.7251 45.3986 68.5451 46.0224 68.1849L63.9333 57.8439C65.1808 57.1237 65.9557 55.7814 65.9557 54.3412V33.6592C65.9557 32.2187 65.1808 30.8765 63.9333 30.1565L46.0222 19.8155C44.7749 19.0953 43.2249 19.0953 41.9776 19.8157ZM43.2667 22.0483C43.7187 21.7872 44.2808 21.7872 44.7331 22.0483L51.7871 26.1209L33.7043 36.5675L25.9116 32.0683L43.2667 22.0483ZM25.3558 55.6112C24.9034 55.35 24.6224 54.8634 24.6224 54.3412V34.3009L32.4492 38.8199V45.4204C32.4492 46.1323 33.0264 46.7095 33.7383 46.7095C34.4502 46.7095 35.0274 46.1323 35.0274 45.4204V40.3083L42.7109 44.7444V65.6312L25.3558 55.6112ZM63.3775 33.6592V54.341C63.3775 54.8632 63.0964 55.35 62.6441 55.611L45.289 65.6312V44.7444L59.5409 36.5161C60.1574 36.1601 60.3686 35.3717 60.0127 34.7552C59.6569 34.1387 58.8681 33.9273 58.2518 34.2834L43.9999 42.5118L36.2817 38.0555L54.3647 27.609L62.6441 32.3892C63.0964 32.6504 63.3775 33.137 63.3775 33.6592Z" fill="black"/>
<path d="M43.9999 10.8448C46.9899 10.8448 49.4224 8.41242 49.4224 5.42248C49.4224 2.43255 46.9899 0 43.9999 0C41.01 0 38.5776 2.43237 38.5776 5.42231C38.5776 8.41225 41.01 10.8448 43.9999 10.8448ZM43.9999 2.57812C45.5683 2.57812 46.8443 3.85395 46.8443 5.42231C46.8443 6.99067 45.5683 8.26667 43.9999 8.26667C42.4316 8.26667 41.1558 6.99084 41.1558 5.42248C41.1558 3.85413 42.4316 2.57812 43.9999 2.57812Z" fill="black"/>
<path d="M77.0664 30.1339C80.0563 30.1339 82.4888 27.7015 82.4888 24.7115C82.4888 21.7216 80.0565 19.2891 77.0664 19.2891C74.0764 19.2891 71.644 21.7216 71.644 24.7115C71.644 27.7015 74.0764 30.1339 77.0664 30.1339ZM77.0664 21.8672C78.6347 21.8672 79.9107 23.1432 79.9107 24.7115C79.9107 26.2799 78.6347 27.5557 77.0664 27.5557C75.498 27.5557 74.2222 26.2799 74.2222 24.7115C74.2222 23.1432 75.498 21.8672 77.0664 21.8672Z" fill="black"/>
<path d="M77.0664 57.8672C74.0764 57.8672 71.644 60.2996 71.644 63.2895C71.644 66.2794 74.0764 68.712 77.0664 68.712C80.0563 68.712 82.4888 66.2794 82.4888 63.2895C82.4888 60.2996 80.0563 57.8672 77.0664 57.8672ZM77.0664 66.1339C75.498 66.1339 74.2222 64.8579 74.2222 63.2895C74.2222 61.7211 75.498 60.4453 77.0664 60.4453C78.6347 60.4453 79.9107 61.7211 79.9107 63.2895C79.9107 64.8579 78.6347 66.1339 77.0664 66.1339Z" fill="black"/>
<path d="M43.9999 77.1543C41.01 77.1543 38.5776 79.5867 38.5776 82.5766C38.5776 85.5665 41.01 87.9991 43.9999 87.9991C46.9899 87.9991 49.4224 85.5667 49.4224 82.5768C49.4224 79.5868 46.9899 77.1543 43.9999 77.1543ZM43.9999 85.421C42.4316 85.421 41.1558 84.1451 41.1558 82.5768C41.1558 81.0084 42.4316 79.7326 43.9999 79.7326C45.5683 79.7326 46.8443 81.0084 46.8443 82.5768C46.8443 84.1451 45.5683 85.421 43.9999 85.421Z" fill="black"/>
<path d="M10.9335 57.8672C7.94361 57.8672 5.51123 60.2996 5.51123 63.2895C5.51123 66.2794 7.94361 68.712 10.9335 68.712C13.9235 68.712 16.3559 66.2794 16.3559 63.2895C16.3559 60.2996 13.9235 57.8672 10.9335 57.8672ZM10.9335 66.1339C9.36518 66.1339 8.08936 64.8579 8.08936 63.2895C8.08936 61.7211 9.36518 60.4453 10.9335 60.4453C12.5019 60.4453 13.7777 61.7211 13.7777 63.2895C13.7777 64.8579 12.5019 66.1339 10.9335 66.1339Z" fill="black"/>
<path d="M10.9335 19.2891C7.94361 19.2891 5.51123 21.7216 5.51123 24.7115C5.51123 27.7015 7.94361 30.1339 10.9335 30.1339C13.9235 30.1339 16.3559 27.7015 16.3559 24.7115C16.3559 21.7216 13.9235 19.2891 10.9335 19.2891ZM10.9335 27.5557C9.36518 27.5557 8.08936 26.2799 8.08936 24.7115C8.08936 23.1432 9.36518 21.8672 10.9335 21.8672C12.5019 21.8672 13.7777 23.1432 13.7777 24.7115C13.7777 26.2799 12.5019 27.5557 10.9335 27.5557Z" fill="black"/>
<path d="M19.1918 21.0351C19.4104 21.0351 19.6322 20.9794 19.8351 20.8622L36.299 11.3569C36.9156 11.0009 37.1268 10.2125 36.7708 9.596C36.4147 8.97931 35.6265 8.76807 35.01 9.1242L18.5461 18.6296C17.9296 18.9855 17.7183 19.7739 18.0743 20.3904C18.313 20.8038 18.7463 21.0351 19.1918 21.0351Z" fill="black"/>
<path d="M69.4541 18.6295L52.9904 9.12416C52.3734 8.76804 51.5852 8.97944 51.2296 9.59596C50.8736 10.2125 51.0848 11.0009 51.7014 11.3568L68.1651 20.8622C68.3682 20.9794 68.5898 21.0351 68.8084 21.0351C69.2539 21.0351 69.6872 20.8038 69.9259 20.3904C70.2819 19.7739 70.0707 18.9855 69.4541 18.6295Z" fill="black"/>
<path d="M76.1201 34.3379V53.6615C76.1201 54.3734 76.6971 54.9505 77.4092 54.9505C78.1213 54.9505 78.6982 54.3734 78.6982 53.6615V34.3379C78.6982 33.626 78.1213 33.0488 77.4092 33.0488C76.6971 33.0488 76.1201 33.626 76.1201 34.3379Z" fill="black"/>
<path d="M68.1651 67.1378L51.7014 76.6432C51.0848 76.9992 50.8736 77.7875 51.2296 78.4041C51.4685 78.8176 51.9016 79.0488 52.3471 79.0488C52.5657 79.0488 52.7874 78.9931 52.9904 78.8759L69.4541 69.3705C70.0707 69.0145 70.2819 68.2261 69.9259 67.6096C69.5698 66.9931 68.7814 66.7817 68.1651 67.1378Z" fill="black"/>
<path d="M36.2989 76.6432L19.8351 67.1378C19.2185 66.7817 18.4302 66.9931 18.0743 67.6096C17.7183 68.2261 17.9296 69.0145 18.5461 69.3705L35.0098 78.8759C35.2128 78.9931 35.4345 79.0488 35.6531 79.0488C36.0986 79.0488 36.5319 78.8174 36.7707 78.4041C37.1268 77.7875 36.9156 76.9992 36.2989 76.6432Z" fill="black"/>
<path d="M11.8799 53.6615V34.3379C11.8799 33.626 11.3027 33.0488 10.5908 33.0488C9.87891 33.0488 9.30176 33.626 9.30176 34.3379V53.6615C9.30176 54.3734 9.87891 54.9505 10.5908 54.9505C11.3027 54.9505 11.8799 54.3734 11.8799 53.6615Z" fill="black"/>
</svg>
