<svg width="12" height="15" viewBox="0 0 12 15" fill="none" xmlns="http://www.w3.org/2000/svg">
<path d="M11.2979 3.39227C11.2979 3.09628 11.0579 2.85634 10.7619 2.85634H8.71316C8.64036 1.7397 7.70872 0.853516 6.574 0.853516H4.72383C3.5891 0.853516 2.65749 1.7397 2.58469 2.85634H0.535931C0.239936 2.85634 0 3.09628 0 3.39227C0 3.68612 0.23648 3.92472 0.5295 3.92818L0.968856 12.5388C1.02708 13.6797 1.96748 14.5733 3.10979 14.5733H8.18806C9.33042 14.5733 10.2708 13.6797 10.329 12.5391L10.3293 12.533C10.3445 12.2374 10.1172 11.9854 9.82166 11.9702C9.52598 11.9552 9.27407 12.1823 9.25888 12.4779L9.25855 12.4843C9.22943 13.0547 8.75923 13.5015 8.18806 13.5015H3.10979C2.53865 13.5015 2.06845 13.0547 2.03932 12.4842L1.60278 3.9282H9.69507L9.39556 9.79847C9.38048 10.0941 9.60787 10.3459 9.90347 10.361C10.1991 10.3758 10.4509 10.1487 10.466 9.85308L10.7683 3.92815C11.0614 3.92472 11.2979 3.68612 11.2979 3.39227ZM3.66118 2.85634C3.7304 2.33169 4.18058 1.92538 4.72386 1.92538H6.57402C7.11727 1.92538 7.56745 2.33169 7.63667 2.85634H3.66118ZM7.86765 6.08865C8.16325 6.10374 8.39067 6.3556 8.37555 6.65119L8.15802 10.9147C8.14342 11.201 7.90667 11.4233 7.62324 11.4233C7.61402 11.4233 7.60481 11.4231 7.59548 11.4226C7.29989 11.4075 7.07246 11.1557 7.08758 10.8601L7.30511 6.59658C7.3202 6.30098 7.57171 6.0738 7.86765 6.08865ZM3.99274 6.59658L4.21027 10.8601C4.22536 11.1557 3.99796 11.4075 3.70237 11.4226C3.69307 11.4231 3.6838 11.4233 3.67461 11.4233C3.39116 11.4233 3.15444 11.201 3.13983 10.9147L2.9223 6.65119C2.90721 6.3556 3.13461 6.10374 3.4302 6.08865C3.72576 6.07362 3.97768 6.30101 3.99274 6.59658ZM5.64893 6.08795C5.94492 6.08795 6.18486 6.32789 6.18486 6.62388V10.8874C6.18486 11.1834 5.94492 11.4233 5.64893 11.4233C5.35293 11.4233 5.11299 11.1834 5.11299 10.8874V6.62388C5.11299 6.32789 5.35293 6.08795 5.64893 6.08795Z" fill="black"/>
</svg>
