<svg width="174" height="174" viewBox="0 0 174 174" fill="none" xmlns="http://www.w3.org/2000/svg">
<circle cx="87" cy="87" r="87" fill="#E83647" fill-opacity="0.08"/>
<path d="M107.666 78.4318L106.657 107.682C106.572 110.187 105.471 112.561 103.588 114.301C101.706 116.041 99.1908 117.009 96.5761 117H77.4214C74.8084 117.009 72.2944 116.042 70.4125 114.304C68.5305 112.567 67.4285 110.195 67.34 107.691L66.3319 78.4318C66.3098 77.7911 66.5542 77.1682 67.0113 76.7002C67.4683 76.2321 68.1006 75.9573 68.7691 75.9362C69.4375 75.915 70.0873 76.1493 70.5756 76.5874C71.0638 77.0255 71.3505 77.6316 71.3726 78.2724L72.3807 107.529C72.4309 108.778 72.9841 109.96 73.924 110.826C74.8639 111.693 76.1175 112.176 77.4214 112.175H96.5761C97.8817 112.176 99.1367 111.691 100.077 110.823C101.017 109.955 101.569 108.77 101.617 107.52L102.625 78.2724C102.647 77.6316 102.934 77.0255 103.422 76.5874C103.91 76.1493 104.56 75.915 105.228 75.9362C105.897 75.9573 106.529 76.2321 106.986 76.7002C107.443 77.1682 107.688 77.7911 107.666 78.4318ZM111 68.698C111 69.3388 110.734 69.9533 110.262 70.4063C109.789 70.8594 109.148 71.114 108.48 71.114H65.5203C64.8519 71.114 64.2108 70.8594 63.7382 70.4063C63.2655 69.9533 63 69.3388 63 68.698C63 68.0573 63.2655 67.4428 63.7382 66.9897C64.2108 66.5366 64.8519 66.2821 65.5203 66.2821H73.3334C74.132 66.2841 74.9028 66.0013 75.4958 65.4887C76.0889 64.976 76.4617 64.2702 76.5418 63.5086C76.7278 61.7219 77.601 60.0657 78.9913 58.8625C80.3816 57.6593 82.1895 56.9954 84.0625 57H89.9349C91.808 56.9954 93.6158 57.6593 95.0061 58.8625C96.3965 60.0657 97.2697 61.7219 97.4557 63.5086C97.5358 64.2702 97.9086 64.976 98.5017 65.4887C99.0947 66.0013 99.8655 66.2841 100.664 66.2821H108.477C109.146 66.2821 109.787 66.5366 110.259 66.9897C110.732 67.4428 110.997 68.0573 110.997 68.698H111ZM80.9171 66.2821H93.0854C92.7542 65.5567 92.5376 64.788 92.4427 64.0014C92.3803 63.4059 92.0894 62.8538 91.6266 62.4521C91.1638 62.0504 90.5618 61.8277 89.9375 61.8271H84.0651C83.4407 61.8277 82.8388 62.0504 82.3759 62.4521C81.9131 62.8538 81.6223 63.4059 81.5598 64.0014C81.4641 64.7881 81.2467 65.5568 80.9146 66.2821H80.9171ZM83.4551 102.886V82.3143C83.4551 81.6735 83.1896 81.059 82.7169 80.6059C82.2443 80.1529 81.6032 79.8983 80.9348 79.8983C80.2663 79.8983 79.6253 80.1529 79.1526 80.6059C78.68 81.059 78.4144 81.6735 78.4144 82.3143V102.896C78.4144 103.536 78.68 104.151 79.1526 104.604C79.6253 105.057 80.2663 105.312 80.9348 105.312C81.6032 105.312 82.2443 105.057 82.7169 104.604C83.1896 104.151 83.4551 103.536 83.4551 102.896V102.886ZM95.5881 102.886V82.3143C95.5881 81.6735 95.3225 81.059 94.8499 80.6059C94.3772 80.1529 93.7362 79.8983 93.0677 79.8983C92.3993 79.8983 91.7582 80.1529 91.2856 80.6059C90.8129 81.059 90.5474 81.6735 90.5474 82.3143V102.896C90.5474 103.536 90.8129 104.151 91.2856 104.604C91.7582 105.057 92.3993 105.312 93.0677 105.312C93.7362 105.312 94.3772 105.057 94.8499 104.604C95.3225 104.151 95.5881 103.536 95.5881 102.896V102.886Z" fill="#E83647"/>
</svg>
