<svg width="40" height="40" viewBox="0 0 40 40" fill="none" xmlns="http://www.w3.org/2000/svg">
<rect width="40" height="40" fill="#E83647" fill-opacity="0.1"/>
<path d="M26.8885 16.9542L26.5525 27.3541C26.5239 28.2448 26.1569 29.0891 25.5295 29.7076C24.9021 30.3262 24.0636 30.6705 23.192 30.6673H16.8071C15.9361 30.6705 15.0981 30.3267 14.4708 29.7089C13.8435 29.091 13.4762 28.2477 13.4467 27.3576L13.1106 16.9542C13.1033 16.7264 13.1847 16.5049 13.3371 16.3385C13.4894 16.1721 13.7002 16.0744 13.923 16.0668C14.1458 16.0593 14.3624 16.1426 14.5252 16.2984C14.6879 16.4542 14.7835 16.6697 14.7909 16.8975L15.1269 27.3C15.1436 27.7441 15.328 28.1643 15.6413 28.4723C15.9546 28.7803 16.3725 28.9522 16.8071 28.9519H23.192C23.6272 28.9522 24.0456 28.7798 24.359 28.471C24.6724 28.1623 24.8564 27.7413 24.8722 27.2966L25.2083 16.8975C25.2156 16.6697 25.3112 16.4542 25.474 16.2984C25.6367 16.1426 25.8533 16.0593 26.0761 16.0668C26.2989 16.0744 26.5097 16.1721 26.6621 16.3385C26.8144 16.5049 26.8959 16.7264 26.8885 16.9542ZM28 13.4933C28 13.7211 27.9115 13.9396 27.7539 14.1007C27.5964 14.2618 27.3827 14.3523 27.1599 14.3523H12.8401C12.6173 14.3523 12.4036 14.2618 12.2461 14.1007C12.0885 13.9396 12 13.7211 12 13.4933C12 13.2655 12.0885 13.047 12.2461 12.8859C12.4036 12.7248 12.6173 12.6343 12.8401 12.6343H15.4445C15.7107 12.635 15.9676 12.5345 16.1653 12.3522C16.363 12.1699 16.4872 11.9189 16.5139 11.6481C16.5759 11.0129 16.867 10.424 17.3304 9.9962C17.7939 9.5684 18.3965 9.33233 19.0208 9.33399H20.9783C21.6027 9.33233 22.2053 9.5684 22.6687 9.9962C23.1322 10.424 23.4232 11.0129 23.4852 11.6481C23.5119 11.9189 23.6362 12.1699 23.8339 12.3522C24.0316 12.5345 24.2885 12.635 24.5547 12.6343H27.159C27.3819 12.6343 27.5955 12.7248 27.7531 12.8859C27.9106 13.047 27.9992 13.2655 27.9992 13.4933H28ZM17.9724 12.6343H22.0285C21.9181 12.3764 21.8459 12.1031 21.8142 11.8234C21.7934 11.6116 21.6965 11.4153 21.5422 11.2725C21.3879 11.1297 21.1873 11.0505 20.9792 11.0503H19.0217C18.8136 11.0505 18.6129 11.1297 18.4586 11.2725C18.3044 11.4153 18.2074 11.6116 18.1866 11.8234C18.1547 12.1031 18.0822 12.3764 17.9715 12.6343H17.9724ZM18.8184 25.649V18.3346C18.8184 18.1068 18.7299 17.8883 18.5723 17.7272C18.4148 17.5661 18.2011 17.4756 17.9783 17.4756C17.7554 17.4756 17.5418 17.5661 17.3842 17.7272C17.2267 17.8883 17.1381 18.1068 17.1381 18.3346V25.6524C17.1381 25.8803 17.2267 26.0988 17.3842 26.2599C17.5418 26.4209 17.7554 26.5114 17.9783 26.5114C18.2011 26.5114 18.4148 26.4209 18.5723 26.2599C18.7299 26.0988 18.8184 25.8803 18.8184 25.6524V25.649ZM22.8627 25.649V18.3346C22.8627 18.1068 22.7742 17.8883 22.6166 17.7272C22.4591 17.5661 22.2454 17.4756 22.0226 17.4756C21.7998 17.4756 21.5861 17.5661 21.4285 17.7272C21.271 17.8883 21.1825 18.1068 21.1825 18.3346V25.6524C21.1825 25.8803 21.271 26.0988 21.4285 26.2599C21.5861 26.4209 21.7998 26.5114 22.0226 26.5114C22.2454 26.5114 22.4591 26.4209 22.6166 26.2599C22.7742 26.0988 22.8627 25.8803 22.8627 25.6524V25.649Z" fill="#E83647"/>
</svg>
