<svg xmlns="http://www.w3.org/2000/svg" width="9" height="9" viewBox="0 0 9 9" fill="none">
<path d="M4.5 0C3.60999 0 2.73996 0.26392 1.99994 0.758387C1.25991 1.25285 0.683138 1.95566 0.342544 2.77792C0.00194978 3.60019 -0.0871652 4.50499 0.0864683 5.37791C0.260102 6.25082 0.688685 7.05264 1.31802 7.68198C1.94736 8.31132 2.74918 8.7399 3.6221 8.91353C4.49501 9.08717 5.39981 8.99805 6.22208 8.65746C7.04434 8.31686 7.74715 7.74009 8.24161 7.00006C8.73608 6.26004 9 5.39002 9 4.5C9 3.90905 8.88361 3.32389 8.65746 2.77792C8.43131 2.23196 8.09984 1.73588 7.68198 1.31802C7.26412 0.900156 6.76804 0.568688 6.22208 0.342542C5.67611 0.116396 5.09095 0 4.5 0ZM4.5 8.1C3.78799 8.1 3.09197 7.88886 2.49995 7.49329C1.90793 7.09772 1.44651 6.53547 1.17404 5.87766C0.90156 5.21985 0.830268 4.49601 0.969175 3.79767C1.10808 3.09934 1.45095 2.45788 1.95442 1.95442C2.45789 1.45095 3.09934 1.10808 3.79768 0.969173C4.49601 0.830266 5.21985 0.901558 5.87766 1.17403C6.53548 1.44651 7.09772 1.90793 7.49329 2.49995C7.88886 3.09196 8.1 3.78799 8.1 4.5C8.1 5.45478 7.72072 6.37045 7.04559 7.04558C6.37045 7.72071 5.45478 8.1 4.5 8.1Z" fill="#666666"/>
<path d="M4.4998 3.15C4.74833 3.15 4.9498 2.94853 4.9498 2.7C4.9498 2.45147 4.74833 2.25 4.4998 2.25C4.25128 2.25 4.0498 2.45147 4.0498 2.7C4.0498 2.94853 4.25128 3.15 4.4998 3.15Z" fill="#666666"/>
<path d="M4.4998 3.59961C4.38046 3.59961 4.266 3.64702 4.18161 3.73141C4.09722 3.8158 4.0498 3.93026 4.0498 4.04961V6.29961C4.0498 6.41896 4.09722 6.53342 4.18161 6.61781C4.266 6.7022 4.38046 6.74961 4.4998 6.74961C4.61915 6.74961 4.73361 6.7022 4.818 6.61781C4.90239 6.53342 4.9498 6.41896 4.9498 6.29961V4.04961C4.9498 3.93026 4.90239 3.8158 4.818 3.73141C4.73361 3.64702 4.61915 3.59961 4.4998 3.59961Z" fill="#666666"/>
</svg>