<svg width="3" height="14" viewBox="0 0 3 14" fill="none" xmlns="http://www.w3.org/2000/svg">
<path d="M1.5 3.11111C1.79667 3.11111 2.08668 3.01988 2.33335 2.84895C2.58003 2.67803 2.77229 2.43508 2.88582 2.15084C2.99935 1.8666 3.02906 1.55383 2.97118 1.25208C2.9133 0.950334 2.77044 0.67316 2.56066 0.455612C2.35088 0.238064 2.08361 0.0899117 1.79264 0.0298903C1.50166 -0.0301312 1.20006 0.000673993 0.925975 0.11841C0.651886 0.236147 0.417618 0.435526 0.252796 0.691336C0.0879743 0.947146 8.08342e-07 1.2479 8.08342e-07 1.55556C8.08342e-07 1.96811 0.158036 2.36378 0.439341 2.6555C0.720645 2.94722 1.10218 3.11111 1.5 3.11111ZM1.5 10.8889C1.20333 10.8889 0.913319 10.9801 0.666645 11.151C0.419972 11.322 0.227713 11.5649 0.114181 11.8492C0.000649921 12.1334 -0.0290551 12.4462 0.0288227 12.7479C0.0867005 13.0497 0.229562 13.3268 0.439341 13.5444C0.649119 13.7619 0.916393 13.9101 1.20736 13.9701C1.49834 14.0301 1.79994 13.9993 2.07402 13.8816C2.34811 13.7639 2.58238 13.5645 2.7472 13.3087C2.91203 13.0529 3 12.7521 3 12.4444C3 12.0319 2.84196 11.6362 2.56066 11.3445C2.27936 11.0528 1.89782 10.8889 1.5 10.8889ZM1.5 5.44444C1.20333 5.44444 0.913319 5.53568 0.666645 5.7066C0.419972 5.87753 0.227713 6.12047 0.114181 6.40471C0.000649921 6.68896 -0.0290551 7.00173 0.0288227 7.30347C0.0867005 7.60522 0.229562 7.88239 0.439341 8.09994C0.649119 8.31749 0.916393 8.46564 1.20736 8.52567C1.49834 8.58569 1.79994 8.55488 2.07402 8.43715C2.34811 8.31941 2.58238 8.12003 2.7472 7.86422C2.91203 7.60841 3 7.30766 3 7C3 6.58744 2.84196 6.19178 2.56066 5.90006C2.27936 5.60833 1.89782 5.44444 1.5 5.44444Z" fill="black"/>
</svg>
