<svg width="55" height="55" viewBox="0 0 55 55" fill="none" xmlns="http://www.w3.org/2000/svg">
<path d="M54.5387 54.5059C54.2913 54.5187 54.0438 54.5414 53.7964 54.5414C36.1625 54.5429 18.5286 54.5429 0.894656 54.5429C0.752447 54.5429 0.61024 54.5329 0.469453 54.5429C0.128151 54.5685 -0.00551479 54.4163 0.00017357 54.075C0.0257712 52.3571 -0.207458 52.6785 1.32698 52.6558C2.68365 52.6358 2.68508 52.6515 2.68508 51.319C2.68508 46.2635 2.68508 41.2065 2.68508 36.151C2.68508 35.9206 2.67938 35.6874 2.71351 35.4613C2.81875 34.7716 3.16005 34.4715 3.86683 34.4672C5.30314 34.4573 6.74088 34.463 8.17719 34.463C9.6135 34.463 11.0512 34.4573 12.4875 34.4658C13.3678 34.4701 13.7034 34.8114 13.7048 35.6959C13.7077 41.0714 13.7063 46.4469 13.7063 51.8224C13.7063 52.3761 13.9912 52.6529 14.561 52.6529C15.5408 52.6529 15.4355 52.7155 15.4355 51.7513C15.4369 42.2958 15.4355 32.8404 15.4355 23.3849C15.4355 23.1901 15.4313 22.9938 15.4384 22.799C15.464 22.1576 15.7953 21.7964 16.4267 21.795C19.4245 21.785 22.4223 21.7865 25.4214 21.7936C26.0017 21.7936 26.3458 22.1064 26.4354 22.6781C26.4709 22.9042 26.4596 23.1374 26.4596 23.3678C26.4596 32.8773 26.4596 42.3854 26.4667 51.8949C26.4667 52.1395 26.3159 52.5164 26.6402 52.6017C27.0768 52.7155 27.5588 52.7354 27.9983 52.5761C28.1803 52.5093 28.1106 52.259 28.1106 52.0883C28.1149 50.4387 28.1135 48.7891 28.1135 47.1395C28.1135 42.2432 28.1135 37.347 28.1135 32.4507C28.1135 32.2374 28.1035 32.0227 28.1319 31.8136C28.2173 31.1893 28.5714 30.8523 29.1999 30.8509C32.1621 30.8409 35.1258 30.8395 38.088 30.8509C38.8118 30.8537 39.1361 31.2562 39.1361 32.0852C39.1375 38.6311 39.1361 45.177 39.1375 51.7243C39.1375 52.7496 39.0252 52.6515 40.0889 52.6558C40.8653 52.6586 40.8668 52.6558 40.8668 51.8565C40.8668 41.1411 40.8668 30.4256 40.8668 19.7116C40.8668 19.4812 40.8639 19.2494 40.8781 19.0205C40.9066 18.5768 41.1569 18.2966 41.5778 18.1914C41.8153 18.1317 42.0684 18.1075 42.3144 18.1075C44.9937 18.1018 47.6714 18.1032 50.3507 18.1075C50.5626 18.1075 50.7745 18.1374 50.9849 18.1658C51.4699 18.2298 51.7514 18.5199 51.8296 18.9892C51.8766 19.2665 51.8865 19.5524 51.8865 19.8353C51.8894 30.5152 51.8894 41.1951 51.8894 51.875C51.8894 52.6586 51.8894 52.6501 52.6772 52.6629C53.2972 52.6728 53.9187 52.6102 54.5359 52.7041V54.5144L54.5387 54.5059ZM49.9269 36.3572C49.9269 31.1424 49.9212 25.9262 49.9368 20.7114C49.9383 20.2136 49.816 20.033 49.2884 20.0416C47.3202 20.07 45.3506 20.0671 43.381 20.0416C42.8918 20.0359 42.7482 20.1809 42.7482 20.673C42.761 31.121 42.7624 41.5706 42.7482 52.0187C42.7482 52.5534 42.9316 52.6685 43.4237 52.6629C45.3563 52.6387 47.2903 52.6543 49.2244 52.6529C49.6918 52.6529 49.9259 52.4187 49.9269 51.9504C49.9269 46.7527 49.9269 41.5549 49.9269 36.3572ZM24.49 38.1675C24.49 33.5386 24.4843 28.9111 24.4985 24.2822C24.4985 23.8286 24.3847 23.6593 23.9041 23.665C21.9359 23.6892 19.9677 23.6878 17.9996 23.665C17.536 23.6593 17.3866 23.8058 17.3866 24.2723C17.398 33.5286 17.3966 42.7865 17.3866 52.0428C17.3866 52.4993 17.5161 52.6657 17.991 52.66C19.9236 52.6373 21.8563 52.6515 23.7903 52.6501C24.2567 52.6501 24.4904 52.4149 24.4914 51.9447C24.4914 47.3514 24.4914 42.7594 24.4914 38.1661L24.49 38.1675ZM30.0845 42.7225C30.0845 45.8098 30.0973 48.8972 30.0717 51.9831C30.0674 52.5349 30.2409 52.6714 30.7699 52.6629C32.704 52.6344 34.638 52.6401 36.5706 52.66C37.0299 52.6643 37.1892 52.5292 37.1892 52.0571C37.1764 45.8482 37.1764 39.6379 37.1892 33.4291C37.1892 32.9299 37.0143 32.7934 36.5379 32.7991C34.6039 32.819 32.6698 32.8233 30.7372 32.7977C30.2253 32.7906 30.0703 32.9499 30.0745 33.4618C30.0958 36.5492 30.0845 39.6351 30.0845 42.7225ZM11.8149 44.5968C11.8149 42.0797 11.8064 39.564 11.8234 37.0469C11.8263 36.6004 11.721 36.4183 11.2347 36.424C9.23238 36.4482 7.22865 36.4425 5.22635 36.4269C4.79973 36.424 4.63761 36.5421 4.63903 36.9957C4.65183 42.0285 4.65183 47.0627 4.63903 52.0954C4.63903 52.5519 4.80399 52.6629 5.2292 52.66C7.21444 52.643 9.19967 52.6344 11.1835 52.6643C11.7182 52.6728 11.8291 52.478 11.8249 51.9874C11.8035 49.5243 11.8149 47.0598 11.8149 44.5968Z" fill="#E83647"/>
<path d="M47.3003 0.0028437C48.4124 0.337035 49.3708 0.887384 50.0904 1.83734C52.1311 4.52935 50.4289 8.63351 47.0856 9.09995C46.0588 9.24358 45.1089 9.09284 44.2115 8.60649C43.9356 8.45717 43.7721 8.51547 43.5687 8.71883C41.6546 10.6443 39.7362 12.5642 37.8093 14.4754C37.5789 14.7044 37.5732 14.8807 37.7126 15.1666C39.0266 17.8558 37.7694 20.8336 34.921 21.6854C33.2643 22.1803 31.7313 21.8006 30.4869 20.6103C29.244 19.4229 28.7975 17.9254 29.1971 16.236C29.2952 15.8193 29.2127 15.5761 28.8871 15.3301C27.3754 14.1839 25.8694 13.0263 24.3719 11.8616C24.1145 11.6611 23.9467 11.6782 23.6808 11.8688C22.1478 12.9695 20.5138 13.1188 18.8215 12.2684C18.5229 12.119 18.3565 12.1603 18.1361 12.3821C16.2362 14.2963 14.3306 16.2033 12.415 18.1018C12.1704 18.3435 12.1533 18.5256 12.3098 18.8356C13.2028 20.5933 12.8815 22.6795 11.529 24.1087C10.2677 25.4412 8.13594 25.8735 6.42232 25.144C4.65466 24.3917 3.53691 22.5913 3.62935 20.6431C3.78151 17.4291 7.3083 15.3443 10.1895 16.7849C10.6047 16.9925 10.8365 16.9271 11.1437 16.6157C12.9753 14.7584 14.8198 12.9154 16.6756 11.0838C16.9586 10.8036 17.0041 10.6017 16.8221 10.2234C15.9859 8.47423 16.1693 6.78763 17.3923 5.29586C18.6011 3.82258 20.2081 3.27649 22.0639 3.76427C23.9766 4.26769 25.12 5.56321 25.4712 7.50721C25.5978 8.20688 25.548 8.92503 25.2906 9.60621C25.1896 9.87072 25.2053 10.0584 25.4542 10.2476C27.0071 11.4279 28.5543 12.6182 30.0916 13.8184C30.3305 14.0047 30.4713 13.9464 30.6832 13.7786C32.2503 12.5414 33.9455 12.3196 35.7501 13.2112C36.0345 13.352 36.2137 13.3449 36.4441 13.1131C38.3554 11.1862 40.2766 9.26776 42.1993 7.3522C42.3784 7.17444 42.4766 7.03081 42.3272 6.76061C40.8184 4.02878 42.4339 0.79637 45.2397 0.0867475C45.325 0.0654162 45.4075 0.0298639 45.49 0C46.0929 0 46.6959 0 47.3003 0V0.0028437ZM48.9812 4.59904C48.9883 3.10442 47.8677 1.95253 46.393 1.94115C44.8842 1.92978 43.7138 3.07882 43.7124 4.5706C43.7124 6.03108 44.8813 7.20715 46.3375 7.20999C47.8122 7.21284 48.9727 6.06521 48.9798 4.59904H48.9812ZM20.9404 10.8349C22.4223 10.8321 23.5557 9.69012 23.5528 8.20546C23.55 6.71511 22.4166 5.56748 20.9461 5.56606C19.46 5.56606 18.2797 6.74071 18.2754 8.22679C18.2712 9.6631 19.4714 10.8377 20.939 10.8349H20.9404ZM33.6155 19.8851C35.1229 19.8908 36.2891 18.7716 36.3004 17.3054C36.3118 15.8535 35.076 14.6177 33.6212 14.6233C32.1877 14.6305 31.0387 15.7895 31.0245 17.2457C31.0088 18.7631 32.1038 19.8794 33.6155 19.8851ZM8.22269 23.5114C9.72299 23.5128 10.8621 22.3894 10.8649 20.9047C10.8678 19.4684 9.64762 18.2426 8.22411 18.2497C6.76789 18.2568 5.59894 19.4385 5.59609 20.9061C5.59325 22.4164 6.69537 23.51 8.22269 23.5114Z" fill="#E83647"/>
</svg>
