<svg width="30" height="30" viewBox="0 0 30 30" fill="none" xmlns="http://www.w3.org/2000/svg">
<rect width="30" height="30" rx="3" fill="#00C7FF"/>
<path fill-rule="evenodd" clip-rule="evenodd" d="M11.5594 19.7412C10.7727 19.7217 10.0116 19.4581 9.3813 18.987C8.75104 18.5159 8.28284 17.8604 8.04151 17.1114C8.57711 17.2301 9.13219 17.2301 9.66779 17.1114C9.16123 16.9924 8.68468 16.7702 8.26791 16.4586C7.85115 16.147 7.50315 15.7528 7.24567 15.3006C6.869 14.6959 6.67662 13.9945 6.69204 13.2822C7.20905 13.5668 7.78612 13.7249 8.37599 13.7435C7.58437 13.1987 7.02812 12.3747 6.81891 11.4367C6.6074 10.5045 6.76006 9.52664 7.24567 8.7032C8.19576 9.87465 9.38006 10.8347 10.7227 11.5219C12.0654 12.2092 13.5367 12.6083 15.0426 12.6939C15.0426 12.544 15.0426 12.4171 14.9849 12.2787C14.8812 11.4937 15.0264 10.6959 15.4001 9.99775C15.7738 9.29961 16.3572 8.73634 17.068 8.38732C17.7788 8.03829 18.5812 7.9211 19.3621 8.05226C20.143 8.18343 20.8631 8.55633 21.4209 9.11843C21.4451 9.14514 21.4762 9.16465 21.5108 9.17483C21.5454 9.185 21.5821 9.18544 21.617 9.1761C22.3906 9.01158 23.1338 8.72752 23.8199 8.33412C23.5443 9.17947 22.9864 9.90435 22.2398 10.3872C22.9678 10.3062 23.6794 10.1157 24.3505 9.822L23.9699 10.3872C23.5698 10.8784 23.1086 11.3164 22.5973 11.6905C22.5783 11.7028 22.5629 11.72 22.5528 11.7403C22.5426 11.7606 22.5381 11.7832 22.5397 11.8058C22.5618 12.3681 22.5387 12.9312 22.4705 13.4898C22.3235 14.6571 21.9926 15.7939 21.4901 16.8577C20.9809 17.9604 20.2909 18.9701 19.4486 19.845C18.0443 21.3099 16.2318 22.3186 14.2468 22.74C13.5527 22.8908 12.846 22.9757 12.1361 22.9938C10.0043 23.0666 7.89955 22.5003 6.09227 21.3675L6 21.3098C7.27899 21.4478 8.57213 21.2613 9.76006 20.7677C10.4042 20.51 11.0097 20.1646 11.5594 19.7412Z" fill="white"/>
</svg>
