<svg width="27" height="22" viewBox="0 0 27 22" fill="none" xmlns="http://www.w3.org/2000/svg">
<path d="M22.8932 10.9742H22.7241V0H0V22H22.7241V18.9338H22.8932C25.1577 18.9338 27 17.1485 27 14.954C27 12.7595 25.1577 10.9742 22.8932 10.9742ZM21.1421 10.9742H18.1716L19.5402 9.64796L18.4215 8.5639L15.1433 11.7407L18.4215 14.9175L19.5401 13.8335L18.1716 12.5073H21.1421V17.4007H15.3335V18.9338H21.1421V20.4669H1.58203V6.0977H7.83058V9.32718H14.8936V6.0977H21.1421V10.9742H21.1421ZM9.41261 7.79413V6.09776H13.3115V7.79413H9.41261ZM21.1421 4.5646H1.58203V1.5331H21.1421V4.5646ZM22.8932 17.4007H22.7241V12.5073H22.8932C24.2854 12.5073 25.418 13.6049 25.418 14.954C25.418 16.3031 24.2853 17.4007 22.8932 17.4007Z" fill="white"/>
</svg>
