<svg width="21" height="13" viewBox="0 0 21 13" fill="none" xmlns="http://www.w3.org/2000/svg">
<path d="M10.5 13C9.16139 13 7.77903 12.6707 6.38793 12.025C5.29867 11.518 4.20066 10.816 3.12452 9.93633C1.30908 8.45 0.189199 6.97667 0.141079 6.916C-0.0470264 6.669 -0.0470264 6.331 0.141079 6.084C0.189199 6.02333 1.30908 4.55 3.12452 3.06367C4.20066 2.184 5.29867 1.482 6.38793 0.975C7.77903 0.329333 9.16139 0 10.5 0C11.8386 0 13.221 0.329333 14.6121 0.975C15.7013 1.482 16.7993 2.184 17.8755 3.06367C19.6909 4.55 20.8152 6.02333 20.8589 6.084C21.047 6.331 21.047 6.669 20.8589 6.916C20.8108 6.97667 19.6909 8.45 17.8755 9.93633C16.7993 10.816 15.7013 11.518 14.6121 12.025C13.221 12.6707 11.8386 13 10.5 13ZM1.60218 6.5C2.70019 7.787 6.32668 11.6133 10.5 11.6133C14.6821 11.6133 18.2998 7.787 19.3978 6.5C18.2998 5.213 14.6733 1.38667 10.5 1.38667C6.31794 1.38667 2.70019 5.213 1.60218 6.5Z" fill="black" fill-opacity="0.5"/>
<path d="M10.5 10C8.57014 10 7 8.42986 7 6.5C7 4.57014 8.57014 3 10.5 3C12.4299 3 14 4.57014 14 6.5C14 8.42986 12.4299 10 10.5 10ZM10.5 4.55556C9.42569 4.55556 8.55556 5.42569 8.55556 6.5C8.55556 7.57431 9.42569 8.44444 10.5 8.44444C11.5743 8.44444 12.4444 7.57431 12.4444 6.5C12.4444 5.42569 11.5743 4.55556 10.5 4.55556Z" fill="black" fill-opacity="0.5"/>
</svg>
