<svg width="14" height="14" viewBox="0 0 14 14" fill="none" xmlns="http://www.w3.org/2000/svg">
<path d="M0.0255126 10.5048L0 13.3877C0 13.5408 0.0510253 13.7194 0.178588 13.8214C0.306151 13.9235 0.459225 14 0.612301 14L3.49522 13.9745C3.64829 13.9745 3.80137 13.8979 3.92893 13.7959L13.8278 3.89704C14.0574 3.66743 14.0574 3.25923 13.8278 3.02961L10.9704 0.17221C10.7408 -0.0574032 10.3326 -0.0574032 10.103 0.17221L8.11298 2.16219L0.204101 10.0711C0.0765379 10.1986 0.0255126 10.3517 0.0255126 10.5048ZM12.5267 3.46333L11.4041 4.58588L9.41412 2.5959L10.5367 1.47335L12.5267 3.46333ZM1.25011 10.7599L8.5467 3.46333L10.5367 5.4533L3.24009 12.7499H1.25011V10.7599Z" fill="#E83647"/>
</svg>
