<svg width="36" height="29" viewBox="0 0 36 29" fill="none" xmlns="http://www.w3.org/2000/svg">
<path d="M17.24 1.02903C15.1858 1.17762 13.1939 1.81616 11.423 2.89375C9.65208 3.97134 8.15121 5.45819 7.04004 7.23574L11.204 8.38196C13.412 5.73688 16.9261 4.45943 20.4041 5.41288C23.5121 6.26792 25.7619 8.6895 26.6479 11.6401H24L29 16.7662L34 11.6401H30.792C29.798 6.85845 26.322 2.79447 21.438 1.45347C20.0703 1.0762 18.6513 0.932797 17.238 1.02903H17.24ZM7 11.6401L2 16.7662H5.16394C5.98994 21.8021 9.53404 26.1511 14.618 27.5475C20.238 29.0914 26.002 26.5673 29.004 21.7611L24.844 20.619C22.636 23.2641 19.128 24.5415 15.652 23.5881C12.338 22.6756 10.002 19.9834 9.25 16.7662H12L7 11.6401Z" fill="white" stroke="#78D5E0"/>
</svg>
