<svg width="30" height="30" viewBox="0 0 30 30" fill="none" xmlns="http://www.w3.org/2000/svg">
<rect width="30" height="30" rx="3" fill="#BD081B"/>
<path d="M15.1984 5C9.76762 5 7 8.91645 7 12.2063C7 14.1384 7.73107 15.9138 9.34987 16.5405C9.61097 16.6449 9.87206 16.5405 9.9765 16.2794L10.1332 15.3394C10.2376 15.0261 10.1854 14.9739 10.0287 14.7128C9.55875 14.1384 9.24543 13.4595 9.24543 12.4674C9.24543 9.54308 11.3864 6.93211 14.8851 6.93211C18.0183 6.93211 19.6893 8.86423 19.6893 11.3708C19.6893 14.7128 18.2272 17.4282 16.0339 17.4282C14.8329 17.4282 13.9452 16.4883 14.2585 15.235C14.5718 13.8251 15.2507 12.2585 15.2507 11.2141C15.2507 10.2742 14.7807 9.43864 13.6841 9.43864C12.4308 9.43864 11.4909 10.7441 11.4909 12.4674C11.4909 13.5117 11.8564 14.2428 11.8564 14.2428L10.342 20.5091C10.116 22.0008 10.1514 23.5204 10.4465 25L10.6031 24.9478C10.7076 24.7911 12.2219 23.0157 12.6919 21.188L13.5274 18.0026C13.8929 18.7859 15.0418 19.4648 16.295 19.4648C20.0026 19.4648 22.5091 16.1227 22.5091 11.5796C22.5091 8.13316 19.5849 5 15.1984 5Z" fill="white"/>
</svg>
