<svg width="63" height="60" viewBox="0 0 63 60" fill="none" xmlns="http://www.w3.org/2000/svg">
<path d="M0.00128187 46.9457C0.371663 46.4112 0.921467 46.3151 1.51613 46.3164C3.50132 46.319 5.48651 46.2997 7.4717 46.3279C8.03945 46.3356 8.20349 46.1498 8.20093 45.5885C8.18811 42.1499 8.15992 38.7114 8.23169 35.2742C8.36369 28.9521 8.2727 22.6287 8.34959 16.3053C8.37138 14.5251 8.40726 12.7463 8.43161 10.9662C8.44571 9.92807 8.79559 9.57691 9.8465 9.57691C17.8693 9.57563 25.8908 9.56922 33.9136 9.58973C34.5198 9.59101 34.7953 9.38595 35.0478 8.84384C37.3559 3.86612 41.1956 0.851809 46.6642 0.123863C54.5075 -0.920638 61.8024 4.76195 62.7956 12.5976C63.7953 20.4756 58.6279 27.4936 50.7922 28.8995C50.004 29.0405 49.2069 29.1097 48.4097 29.0533C47.8548 29.0136 47.6638 29.1879 47.6702 29.7684C47.6984 32.4495 47.683 35.1306 47.683 37.8117C47.683 42.4985 47.6869 47.1853 47.6818 51.8708C47.6766 56.432 44.0805 60.0026 39.527 60C29.1922 59.9949 18.8574 60 8.52261 60C4.11136 60 1.08807 57.6214 0.0397291 53.3255C0.0294764 53.2857 0.012816 53.2486 0 53.2088V46.9469L0.00128187 46.9457ZM22.4113 11.7402C18.769 11.7402 15.1267 11.7402 11.4844 11.7402C10.6001 11.7402 10.6052 11.7402 10.5962 12.5989C10.5578 16.2809 10.5539 19.963 10.5065 23.6463C10.413 30.9501 10.5027 38.2552 10.345 45.559C10.3322 46.1472 10.5091 46.3331 11.1037 46.3292C14.5615 46.3049 18.0205 46.3177 21.4783 46.3177C25.059 46.3177 28.6398 46.3151 32.2206 46.3202C33.3317 46.3215 33.6816 46.6842 33.6829 47.7954C33.6855 49.1872 33.656 50.579 33.6906 51.9695C33.7662 55.0556 36.1179 57.7969 39.6051 57.8008C43.0462 57.8046 45.4813 55.162 45.5018 51.9746C45.5505 44.4645 45.5146 36.9556 45.5261 29.4455C45.5261 28.97 45.3723 28.7765 44.9033 28.656C41.4417 27.764 38.6619 25.8545 36.5908 22.9388C36.3217 22.5595 36.0359 22.4159 35.5784 22.4185C32.4269 22.4352 29.2755 22.4275 26.124 22.4262C25.8793 22.4262 25.6281 22.4428 25.3897 22.4018C24.9527 22.3275 24.6425 22.075 24.5233 21.6354C24.4118 21.2279 24.5067 20.8652 24.8117 20.5666C25.0988 20.2859 25.4615 20.2577 25.8382 20.259C28.6821 20.2629 31.5272 20.2488 34.3711 20.2718C34.9222 20.2769 35.0363 20.1719 34.8286 19.6336C33.9315 17.3203 33.6406 14.9212 34.0225 12.4669C34.1173 11.8569 33.9764 11.7274 33.3984 11.7313C29.7356 11.7505 26.0728 11.7415 22.41 11.7415L22.4113 11.7402ZM48.4123 2.23849C41.5455 2.23849 36.1077 7.67118 36.0949 14.5405C36.082 21.3804 41.5621 26.89 48.3802 26.8951C55.2265 26.9002 60.7489 21.383 60.7489 14.538C60.7489 7.71091 55.2585 2.23849 48.4123 2.23849ZM34.0956 57.8328C32.6384 56.4038 31.831 54.8223 31.5811 52.982C31.4209 51.8042 31.5401 50.6123 31.5221 49.4268C31.5093 48.5643 31.5183 48.563 30.6353 48.563C21.4296 48.563 12.2239 48.563 3.01816 48.563C2.89512 48.563 2.77209 48.572 2.65034 48.563C2.24664 48.531 2.11335 48.7271 2.11976 49.1141C2.13514 50.0958 2.09925 51.0788 2.13129 52.0592C2.19025 53.8535 2.91819 55.335 4.30872 56.4795C5.48395 57.4458 6.8591 57.8303 8.35472 57.8315C16.7018 57.8354 25.0475 57.8341 33.3945 57.8341C33.574 57.8341 33.7521 57.8341 34.0956 57.8341V57.8328Z" fill="#E83647"/>
<path d="M32.2936 31.3766C30.2072 31.3766 28.122 31.3766 26.0356 31.3766C25.7485 31.3766 25.464 31.374 25.191 31.2625C24.7194 31.0715 24.4797 30.7191 24.4951 30.2167C24.5105 29.7118 24.7732 29.3721 25.2628 29.2286C25.4191 29.1825 25.5832 29.144 25.7446 29.144C30.1418 29.1389 34.5389 29.1299 38.9361 29.1466C39.7794 29.1504 40.2292 29.6233 40.1946 30.3282C40.1626 30.9805 39.691 31.3676 38.8605 31.3727C36.9996 31.3842 35.1387 31.3766 33.2766 31.3778C32.9498 31.3778 32.6217 31.3778 32.2949 31.3778L32.2936 31.3766Z" fill="#E83647"/>
<path d="M32.3064 40.2334C30.1392 40.2334 27.9707 40.2347 25.8036 40.2334C24.9731 40.2334 24.5053 39.8592 24.4899 39.2004C24.4733 38.5032 24.9526 38.0752 25.7933 38.0739C30.1687 38.0688 34.5453 38.0688 38.9207 38.0739C39.7409 38.0739 40.1856 38.4712 40.1933 39.1607C40.201 39.863 39.7755 40.2308 38.9322 40.2321C36.724 40.236 34.5158 40.2334 32.3064 40.2334Z" fill="#E83647"/>
<path d="M19.0547 24.6333C17.2131 24.6435 15.7008 23.2094 15.6854 21.437C15.67 19.662 17.1631 18.1881 18.9894 18.1766C20.8259 18.165 22.3407 19.5966 22.3702 21.3729C22.3997 23.1235 20.8746 24.623 19.0535 24.6333H19.0547ZM20.121 21.4216C20.1287 20.8397 19.6225 20.3476 19.0188 20.3514C18.446 20.3553 17.8616 20.8987 17.8718 21.419C17.8821 21.9188 18.4332 22.434 18.9842 22.4584C19.5776 22.4853 20.1121 21.997 20.1197 21.4229L20.121 21.4216Z" fill="#E83647"/>
<path d="M18.9741 33.4786C17.1684 33.4645 15.6855 32.0188 15.6855 30.2746C15.6855 28.4701 17.2145 27.0014 19.0677 27.0244C20.844 27.0462 22.3627 28.5265 22.3716 30.2464C22.3806 32.038 20.8517 33.4939 18.9741 33.4798V33.4786ZM20.1211 30.2746C20.1211 29.6876 19.62 29.2096 19.0087 29.2185C18.423 29.2262 17.854 29.7606 17.8732 30.2848C17.8937 30.8321 18.4551 31.3178 19.0497 31.3037C19.6393 31.2896 20.1199 30.8282 20.1211 30.2746Z" fill="#E83647"/>
<path d="M18.9984 42.3217C17.1593 42.3179 15.6688 40.8645 15.6842 39.0895C15.6996 37.3209 17.2234 35.8599 19.042 35.8702C20.8311 35.8804 22.3972 37.4158 22.3703 39.1344C22.3421 40.9171 20.8516 42.3256 18.9984 42.3217ZM19.0484 38.1181C18.4114 38.1078 17.8796 38.5525 17.8668 39.1036C17.8539 39.6419 18.3986 40.143 19.0061 40.152C19.6238 40.1609 20.1249 39.6944 20.1198 39.1126C20.1147 38.5167 19.6969 38.1283 19.0484 38.1181Z" fill="#E83647"/>
<path d="M46.1887 11.2263C46.2016 12.4029 46.9462 13.2436 48.033 13.4038C48.7365 13.5076 49.4606 13.5089 50.1232 13.8331C51.8303 14.67 52.7428 16.0246 52.7095 17.9317C52.6762 19.8182 51.7175 21.1433 50.0066 21.8841C49.535 22.0892 49.3543 22.3096 49.3671 22.8184C49.3863 23.5989 49.0608 24.0372 48.4777 24.1794C47.8074 24.3435 47.1448 23.8321 47.164 23.0222C47.1807 22.3224 46.9282 21.9969 46.3105 21.6931C44.8302 20.9652 44.1177 19.6657 43.96 18.0534C43.8947 17.3883 44.3163 16.8526 44.9238 16.7641C45.4864 16.6821 45.9978 17.0807 46.1426 17.7279C46.2041 18.006 46.2092 18.2995 46.2964 18.5686C46.6296 19.5952 47.6985 20.1988 48.7814 19.995C49.8285 19.7977 50.6026 18.8083 50.5513 17.7317C50.5 16.6526 49.6375 15.7337 48.5584 15.6773C47.3101 15.612 46.1913 15.2736 45.2814 14.3714C43.1001 12.2081 43.7165 8.57089 46.513 7.29057C46.9795 7.07655 47.1538 6.83945 47.1487 6.33578C47.1397 5.50018 47.5972 4.97986 48.2495 4.97345C48.9006 4.96704 49.3735 5.48609 49.3658 6.31912C49.3607 6.81894 49.5606 7.02784 50.0002 7.20727C51.6483 7.8801 52.7287 9.45775 52.7197 11.0931C52.7159 11.8249 52.3391 12.2978 51.7291 12.3401C51.1101 12.3823 50.6295 11.9171 50.5564 11.1905C50.4539 10.1716 49.9374 9.47954 48.9583 9.15786C48.1534 8.89385 47.2537 9.16811 46.6886 9.8307C46.3259 10.2549 46.1554 10.7445 46.1913 11.2263H46.1887Z" fill="#E83647"/>
</svg>
