<svg width="40" height="40" viewBox="0 0 40 40" fill="none" xmlns="http://www.w3.org/2000/svg">
<path d="M19.9684 0.00208736C20.5054 0.245028 20.8067 0.666261 20.9569 1.23034C21.083 1.70684 21.2624 2.16979 21.4031 2.64316C21.4688 2.8642 21.5856 2.95699 21.8223 2.95178C22.3812 2.93822 22.9411 2.94553 23.4999 2.94865C24.2527 2.95283 24.7741 3.30107 24.9784 3.92771C25.1797 4.54497 24.9774 5.09758 24.3685 5.55427C23.9107 5.89835 23.4509 6.2393 22.9796 6.56252C22.7941 6.68973 22.7596 6.81693 22.8305 7.02025C23.0068 7.52282 23.1694 8.03059 23.3331 8.53733C23.5886 9.32975 23.4426 9.92824 22.9025 10.3234C22.3509 10.7269 21.7503 10.6852 21.0705 10.1931C20.6806 9.91156 20.2802 9.64255 19.908 9.33809C19.6452 9.1233 19.444 9.0962 19.1656 9.32662C18.7569 9.66653 18.3096 9.96265 17.8758 10.2723C17.2784 10.6988 16.6788 10.7123 16.1439 10.3161C15.6414 9.94492 15.4766 9.35686 15.6893 8.67705C15.8603 8.13173 16.0272 7.58433 16.2169 7.04528C16.2951 6.8211 16.2461 6.6793 16.0595 6.54688C15.5819 6.20801 15.1075 5.86498 14.6394 5.51465C14.0774 5.09445 13.8803 4.51056 14.0836 3.90582C14.2859 3.30524 14.7968 2.95387 15.4964 2.94761C16.0689 2.9424 16.6413 2.93614 17.2137 2.95074C17.4671 2.95699 17.588 2.85481 17.6579 2.61917C17.8049 2.12078 17.9895 1.63281 18.1292 1.13233C18.2793 0.592231 18.59 0.210618 19.1103 0H19.9684V0.00208736ZM19.566 1.613L19.4857 1.62864C19.3116 2.17187 19.1416 2.71718 18.9623 3.25832C18.6943 4.06639 18.2439 4.39274 17.4004 4.39587C16.8217 4.39796 16.243 4.39587 15.5486 4.39587C16.0835 4.78583 16.5203 5.10697 16.9603 5.42394C17.7403 5.98593 17.904 6.49058 17.6068 7.41334C17.4421 7.9232 17.2815 8.4341 17.1199 8.94501C17.6214 8.67808 18.0489 8.36529 18.4795 8.05666C19.3011 7.4686 19.786 7.47277 20.6013 8.06604C21.0288 8.3778 21.4584 8.68538 21.8994 9.00444C21.9172 8.93771 21.9339 8.9106 21.9276 8.89079C21.7691 8.39553 21.6075 7.90234 21.4469 7.40812C21.1508 6.49162 21.301 6.01825 22.0704 5.45C22.426 5.18725 22.7868 4.93075 23.1392 4.66487C23.2226 4.60127 23.3613 4.57521 23.3571 4.39587C22.8066 4.39587 22.2623 4.39587 21.718 4.39587C20.8015 4.39379 20.3584 4.06952 20.079 3.20098C19.909 2.6713 19.737 2.14163 19.5649 1.613H19.566Z" fill="white"/>
<path d="M34.0945 0.00202024C34.62 0.258515 34.9223 0.680791 35.0704 1.24383C35.1893 1.6953 35.3759 2.12905 35.4958 2.57948C35.5761 2.87872 35.7387 2.96214 36.0286 2.95171C36.5479 2.93294 37.0681 2.94442 37.5884 2.94754C38.3496 2.95067 38.8897 3.29579 39.0857 3.8995C39.2942 4.53969 39.0763 5.10794 38.4361 5.58131C37.9972 5.90662 37.5624 6.23715 37.1119 6.54578C36.9159 6.68028 36.8742 6.81478 36.9493 7.03478C37.1359 7.57488 37.3069 8.12019 37.4758 8.66655C37.6927 9.36409 37.5165 9.96362 36.9952 10.3379C36.4905 10.6997 35.8743 10.6831 35.2894 10.2733C34.8421 9.9605 34.3958 9.64457 33.9693 9.30466C33.7368 9.12011 33.5627 9.10551 33.3239 9.29319C32.886 9.63935 32.4272 9.96049 31.9695 10.2816C31.3773 10.6956 30.7882 10.7081 30.27 10.3327C29.7601 9.96363 29.5818 9.37139 29.7893 8.69783C29.9541 8.16398 30.1167 7.6291 30.3096 7.10568C30.4149 6.81895 30.3419 6.65838 30.0979 6.49364C29.6235 6.17459 29.1668 5.82842 28.7112 5.48434C28.1982 5.09752 28.0011 4.50215 28.1826 3.92973C28.3682 3.34375 28.8864 2.96318 29.5422 2.95067C30.1271 2.94024 30.7121 2.93711 31.297 2.95171C31.565 2.95901 31.6963 2.85788 31.7704 2.60347C31.9153 2.10507 32.0967 1.61711 32.2406 1.11767C32.3949 0.5807 32.7056 0.196997 33.2353 0.000976562H34.0934L34.0945 0.00202024ZM31.2324 8.93139L31.3012 8.98769C31.7589 8.65717 32.2177 8.3256 32.6754 7.99507C33.3698 7.49355 33.9016 7.49147 34.6022 7.9909C35.0704 8.32456 35.5375 8.66134 36.0901 9.05755C35.8639 8.34749 35.6678 7.74588 35.4812 7.14009C35.2894 6.52075 35.4843 6.01506 35.9681 5.61259C36.1777 5.43847 36.4071 5.28832 36.6271 5.12671C36.9222 4.90983 37.2172 4.69296 37.5405 4.45627C37.455 4.42082 37.4331 4.4031 37.4101 4.4031C36.8513 4.39997 36.2924 4.40101 35.7335 4.39684C34.9401 4.39163 34.4803 4.05589 34.2269 3.29788C34.0402 2.73797 33.8567 2.17806 33.6409 1.52222C33.4511 2.09882 33.2927 2.57635 33.1363 3.05493C32.7786 4.14765 32.4366 4.39789 31.2991 4.39789C30.7913 4.39789 30.2835 4.39789 29.7747 4.39789C30.1959 4.78993 30.6266 5.10064 31.0551 5.41448C31.8632 6.00359 32.0164 6.4707 31.7151 7.42995C31.5577 7.93252 31.3929 8.43299 31.2313 8.93451L31.2324 8.93139Z" fill="white"/>
<path d="M6.54417 0.00195312C7.05716 0.25115 7.35849 0.659874 7.50759 1.20832C7.63063 1.65875 7.81518 2.09249 7.93196 2.54501C8.01746 2.87449 8.19471 2.96937 8.51689 2.95478C9.02258 2.93079 9.53036 2.94643 10.0371 2.94956C10.7982 2.95269 11.3373 3.29781 11.5344 3.9036C11.7429 4.54379 11.525 5.111 10.8848 5.58541C10.4458 5.91072 10.011 6.24125 9.5606 6.54883C9.36353 6.68334 9.32391 6.81888 9.39898 7.03784C9.58458 7.57794 9.75662 8.12326 9.92657 8.66857C10.1424 9.36298 9.96515 9.96668 9.44486 10.34C8.93917 10.7018 8.32296 10.684 7.74011 10.2743C7.28238 9.95313 6.82882 9.62677 6.38777 9.28374C6.18028 9.12212 6.0218 9.10753 5.80597 9.27436C5.35449 9.62469 4.88842 9.95626 4.41923 10.2847C3.82699 10.6997 3.23893 10.7111 2.71968 10.3347C2.20982 9.96564 2.03153 9.37237 2.24006 8.69985C2.4048 8.166 2.56746 7.63112 2.76035 7.1077C2.86566 6.82097 2.79163 6.6604 2.54765 6.49566C2.07428 6.1766 1.61759 5.83044 1.1609 5.48636C0.647913 5.09953 0.450849 4.50417 0.632272 3.93175C0.817866 3.34577 1.33607 2.9652 1.99295 2.95373C2.57788 2.94331 3.16282 2.94018 3.74775 2.95478C4.01571 2.96207 4.14709 2.85989 4.22112 2.60652C4.36605 2.10813 4.54747 1.62016 4.69136 1.12073C4.84568 0.583757 5.15639 0.200059 5.68606 0.00508099H6.54417V0.00195312ZM2.23485 4.39574L2.21399 4.47602C2.64357 4.78777 3.07419 5.09953 3.50377 5.41233C4.31183 6.0004 4.46615 6.46855 4.16482 7.4278C4.00737 7.93036 3.84263 8.43084 3.67789 8.94279C3.74254 8.94592 3.77382 8.95843 3.78946 8.94696C4.23467 8.63207 4.67885 8.31719 5.12094 7.99814C5.81535 7.49662 6.34815 7.49244 7.04778 7.99084C7.51698 8.32553 7.98409 8.66231 8.54191 9.06269C8.31253 8.33908 8.1113 7.72496 7.92362 7.10666C7.74428 6.51756 7.93821 6.03167 8.38447 5.63963C8.57841 5.46864 8.80154 5.32996 9.01007 5.17565C9.326 4.94209 9.64192 4.70853 9.95785 4.47497C9.42192 4.39677 8.91936 4.39677 8.41575 4.39677C7.29906 4.39677 6.94351 4.13819 6.59943 3.08093C6.44512 2.60652 6.28768 2.1342 6.13128 1.66083C5.85602 2.22804 5.67459 2.79108 5.48066 3.35099C5.23459 4.06417 4.77165 4.39156 4.01676 4.39677C3.4214 4.3999 2.82708 4.39677 2.23172 4.39677L2.23485 4.39574Z" fill="white"/>
<path d="M19.5181 39.9882C16.2535 39.9882 12.9889 39.9882 9.7233 39.9882C8.93505 39.9882 8.71401 39.7651 8.71401 38.9612C8.71401 33.9011 8.71401 28.8421 8.71401 23.7821C8.71401 23.6653 8.71609 23.5475 8.71401 23.4307C8.70671 23.0314 8.68585 23.0168 8.31779 23.1993C7.07077 23.8155 5.82583 24.4369 4.57776 25.0521C3.96259 25.3555 3.67377 25.2658 3.3349 24.6579C2.2839 22.7728 1.23603 20.8856 0.190234 18.9973C-0.146546 18.3905 -0.0454083 18.0537 0.567678 17.7221C3.34742 16.2207 6.12924 14.7214 8.90898 13.2189C9.15609 13.0854 9.40946 13.0166 9.69098 13.0176C11.3165 13.0218 12.943 13.0176 14.5686 13.0208C15.2765 13.0229 15.507 13.2554 15.5466 13.979C15.6498 15.8787 17.2472 17.5438 19.0405 17.7044C21.4981 17.9255 23.0756 16.2551 23.4302 14.5577C23.4802 14.3168 23.4938 14.0687 23.523 13.8236C23.5939 13.2512 23.8337 13.0249 24.4134 13.0218C25.7793 13.0156 27.1462 13.0604 28.51 13.0051C29.4067 12.9686 30.1731 13.2064 30.9467 13.6359C33.4136 15.005 35.9067 16.3281 38.3903 17.6658C39.1118 18.0548 39.215 18.3623 38.824 19.0693C37.7855 20.9461 36.7429 22.8218 35.6992 24.6965C35.3926 25.246 35.0757 25.3513 34.5064 25.0719C33.3156 24.4859 32.1322 23.8885 30.9446 23.2962C30.5477 23.0981 30.3489 23.2284 30.3482 23.6872C30.3482 28.6816 30.3451 33.677 30.3513 38.6713C30.3524 39.811 30.1804 40.0091 29.0386 39.9997C25.8648 39.9736 22.6909 39.9903 19.5181 39.9903V39.9882ZM19.5066 35.8801C22.4334 35.8801 25.3591 35.8801 28.2858 35.8801C28.6758 35.8801 28.8711 35.6886 28.8718 35.3056C28.8718 31.0401 28.8718 26.7735 28.8718 22.508C28.8718 22.3265 28.8697 22.143 28.8864 21.9627C28.9573 21.1827 29.415 20.9242 30.122 21.2693C30.8226 21.6113 31.5243 21.9543 32.2146 22.3172C32.4753 22.4548 32.6108 22.4371 32.7589 22.1555C33.4887 20.7625 34.2342 19.3768 34.9922 17.9984C35.158 17.6971 35.1466 17.5418 34.8181 17.3687C33.0946 16.4564 31.3815 15.5232 29.6684 14.5921C29.488 14.4941 29.3066 14.4649 29.1075 14.4649C27.8458 14.468 26.5842 14.4763 25.3226 14.4596C24.9931 14.4555 24.8805 14.5754 24.8169 14.8903C24.2393 17.7399 21.4136 19.6459 18.5588 19.0755C16.2556 18.6157 14.8209 17.1946 14.2516 14.9226C14.1598 14.5566 14.0191 14.4513 13.6531 14.4586C12.4311 14.4815 11.2081 14.468 9.98605 14.4669C9.78899 14.4669 9.60235 14.4826 9.42093 14.5806C7.66092 15.5357 5.9009 16.4897 4.13463 17.4323C3.90003 17.5574 3.89482 17.6669 4.01368 17.8848C4.79151 19.3112 5.56203 20.7427 6.32005 22.1806C6.46081 22.4485 6.59636 22.4558 6.84034 22.3276C7.50764 21.9762 8.20101 21.6738 8.85685 21.3026C9.48662 20.9461 10.181 21.1223 10.1737 22.117C10.1404 26.5389 10.1643 30.9608 10.1518 35.3828C10.1508 35.7706 10.2467 35.8947 10.6502 35.8926C13.602 35.8759 16.5548 35.8833 19.5066 35.8833V35.8801ZM19.4993 37.3284C16.9761 37.3284 14.4528 37.3284 11.9296 37.3284C11.4479 37.3284 10.9672 37.3346 10.4855 37.3263C10.2571 37.3221 10.1414 37.4024 10.1591 37.6433C10.1675 37.76 10.1591 37.8768 10.1591 37.9946C10.1591 38.3651 10.3454 38.5507 10.718 38.5514C16.5715 38.5514 22.424 38.5514 28.2775 38.5514C28.3557 38.5514 28.4339 38.5462 28.511 38.5514C28.7529 38.565 28.8802 38.4638 28.8697 38.2105C28.8656 38.1062 28.8708 38.0019 28.8697 37.8987C28.8697 37.5199 28.6852 37.3301 28.3161 37.3294C25.3768 37.3294 22.4365 37.3294 19.4972 37.3294L19.4993 37.3284ZM34.5637 23.4891C34.7524 23.5048 34.7837 23.389 34.8317 23.3035C35.6262 21.874 36.4186 20.4435 37.211 19.013C37.2548 18.9348 37.3403 18.8357 37.2819 18.7638C37.1057 18.5469 36.8419 18.4416 36.5927 18.3509C36.3675 18.2685 36.3394 18.5271 36.2685 18.6585C35.5417 19.992 34.8223 21.3287 34.1091 22.6696C34.0299 22.8176 33.8161 22.9918 33.9694 23.1482C34.1341 23.315 34.3896 23.3942 34.5637 23.4891V23.4891ZM2.47054 18.3311C2.31727 18.4145 2.13897 18.5219 1.95233 18.6115C1.75006 18.7085 1.74172 18.8253 1.84703 19.013C2.64675 20.4404 3.44126 21.8719 4.22951 23.3056C4.33586 23.4995 4.44847 23.536 4.63198 23.4224C4.74146 23.3546 4.86032 23.2983 4.98023 23.2472C5.15122 23.1742 5.17521 23.0783 5.08658 22.9136C4.2879 21.4403 3.49548 19.9639 2.69992 18.4895C2.65822 18.4124 2.62381 18.3185 2.47054 18.3311V18.3311Z" fill="white"/>
</svg>
