<svg width="63" height="60" viewBox="0 0 63 60" fill="none" xmlns="http://www.w3.org/2000/svg">
<path d="M62.0632 46.8002C61.657 48.3214 60.6714 49.3426 59.3217 50.0967C56.1936 51.8445 52.8793 53.1747 49.5423 54.4435C44.9998 56.1718 40.4297 57.829 35.8822 59.546C35.2268 59.7936 34.5795 59.8777 33.8901 59.9392C30.8364 60.216 28.0076 59.5266 25.2176 58.308C22.337 57.0506 19.3594 56.0132 16.4221 54.882C15.5612 54.5503 14.6663 54.7493 13.7859 54.7364C13.5124 54.7332 13.5221 54.9953 13.5205 55.1976C13.5157 55.8029 13.527 56.4081 13.514 57.0133C13.4946 57.9099 13.0593 58.342 12.1547 58.3436C8.54262 58.3484 4.92895 58.3484 1.31689 58.3436C0.375042 58.3436 0.00121373 57.9617 0.00121373 57.0133C-0.000404576 49.4041 -0.000404576 41.7948 0.00121373 34.1856C0.00121373 33.268 0.409026 32.8391 1.31689 32.8375C4.92895 32.8294 8.54262 32.831 12.1547 32.8375C13.0528 32.8391 13.493 33.2842 13.514 34.1742C13.5254 34.6791 13.5448 35.1857 13.5092 35.6873C13.472 36.2149 13.6662 36.3962 14.1986 36.3913C16.1762 36.367 18.1537 36.3913 20.1329 36.3767C20.7738 36.3719 21.358 36.5013 21.9308 36.804C24.1431 37.9724 26.3715 39.1084 28.5869 40.272C28.9931 40.4856 29.3945 40.5924 29.8557 40.5859C32.2152 40.5471 34.5763 40.5245 36.9358 40.5034C38.2498 40.4905 39.5169 40.662 40.5737 41.5488C41.912 42.6719 42.5157 44.0944 42.2632 45.8357C42.1904 46.3423 42.349 46.3957 42.7714 46.2435C46.4886 44.8987 50.2091 43.5652 53.9263 42.2188C55.2226 41.7495 56.5269 41.366 57.9332 41.5068C60.0532 41.7171 61.4255 42.8305 62.0599 44.8615V46.8002H62.0632ZM32.5291 49.8362C30.4496 49.8362 28.3701 49.8362 26.2906 49.8362C25.9879 49.8362 25.6837 49.8426 25.3908 49.7472C24.9004 49.5886 24.6108 49.2714 24.5816 48.7373C24.5509 48.1806 24.8147 47.8181 25.3131 47.6045C25.6012 47.4815 25.907 47.501 26.208 47.501C30.024 47.4977 33.8383 47.4945 37.6543 47.4945C38.0233 47.4945 38.3744 47.454 38.7127 47.2906C39.7144 46.8067 40.2128 45.7564 39.9749 44.6058C39.7694 43.6073 38.8211 42.8386 37.732 42.8354C34.9258 42.8257 32.1197 42.8289 29.3135 42.8402C28.8345 42.8419 28.4057 42.7399 27.9817 42.5166C25.7112 41.3271 23.4326 40.1522 21.1622 38.966C20.832 38.7929 20.4986 38.7039 20.1216 38.7055C18.1634 38.7152 16.2053 38.7314 14.2471 38.6974C13.6484 38.6877 13.5027 38.8964 13.506 39.4645C13.527 43.5426 13.5302 47.6207 13.5027 51.6988C13.4979 52.3348 13.7115 52.4724 14.3038 52.4691C15.3007 52.4643 16.2927 52.3623 17.2847 52.7556C21.3159 54.3545 25.373 55.8919 29.4204 57.4519C29.6647 57.5458 29.9042 57.6526 30.1745 57.6574C32.5097 57.693 34.8627 57.8662 37.0167 56.6557C37.1736 56.5683 37.3565 56.5279 37.5264 56.4647C43.43 54.2849 49.387 52.241 55.1368 49.6598C56.4072 49.0885 57.6662 48.4865 58.8249 47.7081C59.6648 47.1433 60.0289 46.1578 59.7749 45.2823C59.5192 44.4068 58.744 43.8582 57.7148 43.7918C56.7681 43.7319 55.8699 43.9148 54.9928 44.2482C50.0521 46.127 45.0418 47.8101 40.0736 49.6128C39.6318 49.7731 39.1803 49.8378 38.7094 49.8362C36.6509 49.8281 34.5908 49.8329 32.5323 49.8329L32.5291 49.8362ZM11.1966 45.5881C11.1966 42.3402 11.1853 39.0923 11.2063 35.8427C11.2096 35.2714 11.0461 35.0708 10.4522 35.0772C7.95032 35.1064 5.44842 35.1064 2.94653 35.0772C2.3607 35.0708 2.24256 35.2828 2.24418 35.8152C2.25875 42.3321 2.26037 48.849 2.24095 55.3659C2.23933 55.9695 2.44485 56.1071 3.00802 56.1006C5.46946 56.0747 7.9309 56.0909 10.3923 56.0893C11.1885 56.0893 11.1934 56.0844 11.195 55.2737C11.195 52.0452 11.195 48.8183 11.195 45.5897L11.1966 45.5881Z" fill="#E83647"/>
<path d="M53.2725 16.6253C53.376 25.4904 45.9399 33.3359 36.3903 33.1417C27.6207 32.9621 20.1167 25.9144 20.1603 16.4926C20.2057 6.89931 28.1095 -0.22285 37.159 0.00533105C46.249 0.23513 53.4116 7.82497 53.2725 16.6237V16.6253ZM22.4664 16.5573C22.337 23.9222 28.302 30.8599 36.714 30.8615C45.1971 30.8615 50.9842 23.9481 51.0198 16.6496C51.057 9.12123 45.0531 2.29199 36.7463 2.2839C28.404 2.27581 22.3531 9.15684 22.4664 16.5573Z" fill="#E83647"/>
<path d="M27.9834 24.1787C27.951 23.7094 28.2892 23.4084 28.6048 23.0944C33.0438 18.6554 37.4828 14.2164 41.9218 9.77742C42.4219 9.27736 42.9171 8.77407 43.422 8.28049C44.0434 7.67524 44.6794 7.62993 45.1778 8.14131C45.6569 8.63328 45.6051 9.30811 45.0128 9.90526C43.3346 11.5948 41.6467 13.2762 39.962 14.9608C36.7368 18.1861 33.5115 21.413 30.283 24.6351C30.071 24.8471 29.8476 25.0688 29.5887 25.2112C28.8394 25.619 27.9769 25.072 27.9834 24.1803V24.1787Z" fill="#E83647"/>
<path d="M31.8285 15.4649C29.7231 15.4633 27.9931 13.7284 28.0238 11.6538C28.0546 9.58558 29.7716 7.88474 31.8317 7.87989C33.9258 7.87665 35.6752 9.61147 35.6687 11.6861C35.6622 13.7802 33.9468 15.4665 31.8285 15.4649ZM33.3319 11.7266C33.3416 10.8495 32.6959 10.1601 31.8544 10.1504C31.0404 10.1407 30.3655 10.809 30.3526 11.6408C30.338 12.5115 30.9886 13.1993 31.8333 13.2041C32.6587 13.209 33.3222 12.5535 33.3319 11.7266Z" fill="#E83647"/>
<path d="M41.6435 17.6862C43.7651 17.6878 45.3866 19.3158 45.3866 21.4439C45.3866 23.5865 43.7198 25.276 41.6111 25.2679C39.5219 25.2599 37.7936 23.5234 37.8033 21.4407C37.813 19.3255 39.4928 17.683 41.6435 17.6846V17.6862ZM41.65 19.9453C40.8036 19.9324 40.0948 20.6153 40.0835 21.452C40.0721 22.2385 40.7761 22.9602 41.5755 22.9829C42.3912 23.0072 43.1291 22.2822 43.1259 21.4601C43.1226 20.625 42.4721 19.9567 41.65 19.9453Z" fill="#E83647"/>
</svg>
