<svg width="29" height="35" viewBox="0 0 29 35" fill="none" xmlns="http://www.w3.org/2000/svg">
<path d="M15.3215 0C16.1736 0.165569 16.9976 0.401186 17.7643 0.827845C18.9692 1.49649 19.9269 2.40967 20.5892 3.61832C20.7089 3.83738 20.8516 3.95583 21.0948 4.01569C22.2576 4.2997 23.1351 5.34278 23.195 6.54124C23.2778 8.17783 23.3478 9.81697 22.9212 11.4243C22.6308 12.5157 22.1303 13.513 21.4043 14.3765C21.1063 14.7305 20.9369 15.0859 20.8796 15.5482C20.6554 17.3733 19.7957 18.8557 18.3578 19.9982C18.1974 20.1255 18.1248 20.2656 18.1426 20.4643C18.1502 20.5547 18.1426 20.6464 18.1439 20.7369C18.1579 21.6997 18.0203 21.4628 18.9131 21.6781C20.1511 21.9761 21.4081 22.1939 22.6371 22.5225C25.7728 23.3618 27.631 25.4085 28.2219 28.5976C28.2856 28.9427 28.306 29.2993 28.3085 29.6508C28.3174 31.29 28.306 32.9291 28.3187 34.5682C28.3213 34.8917 28.2245 35 27.8933 35C18.7412 34.9924 9.59031 34.9924 0.438174 35C0.0802901 35 -0.0024908 34.8765 5.64137e-05 34.5453C0.0140661 33.031 0.00514929 31.518 0.0064229 30.0036C0.0064229 26.0593 2.33967 23.1962 6.1987 22.3862C7.42264 22.1289 8.63893 21.8385 9.8616 21.58C10.0998 21.5291 10.166 21.4272 10.1825 21.1941C10.2271 20.5547 10.0947 20.0848 9.54192 19.6148C8.23392 18.5017 7.56656 16.9988 7.39462 15.2922C7.3666 15.0107 7.2698 14.8019 7.09405 14.5981C6.11846 13.4709 5.46383 12.1757 5.24095 10.7047C4.88816 8.38415 5.0066 6.11204 6.27002 4.04115C7.65061 1.77923 9.66801 0.45213 12.2878 0.0471228C12.3426 0.0382076 12.3961 0.017833 12.4508 0.0025497H15.319L15.3215 0ZM19.741 12.5208H19.7461C19.7461 11.6561 19.7461 10.7913 19.7461 9.92649C19.7461 9.74564 19.7422 9.61064 19.4939 9.5737C18.4814 9.42469 17.6128 8.97893 16.9237 8.21477C16.7505 8.02245 16.6576 8.05302 16.5086 8.24024C15.1789 9.91758 13.4366 10.7467 11.2969 10.7454C10.5124 10.7454 9.72659 10.7556 8.94205 10.7403C8.66058 10.7352 8.56634 10.8269 8.56888 11.1097C8.58162 12.3731 8.57652 13.6352 8.5778 14.8987C8.5778 15.4501 8.69624 15.9825 8.87582 16.4996C9.72786 18.9525 12.2522 20.5509 14.9191 20.2121C17.4778 19.8861 19.7028 17.5172 19.7384 14.9432C19.7499 14.1358 19.7397 13.327 19.7397 12.5196L19.741 12.5208ZM20.9866 12.7144C21.454 12.0929 21.7138 11.4052 21.8552 10.6754C22.1226 9.29861 22.0029 7.90656 21.9749 6.52215C21.9596 5.76562 21.2285 5.1492 20.4465 5.14538C20.1014 5.1441 19.9218 5.03202 19.7766 4.71362C19.108 3.24133 18.0356 2.17023 16.5136 1.58692C15.0426 1.02271 13.5092 1.02016 12.0102 1.33856C9.2821 1.91805 7.48759 3.59922 6.61008 6.25342C6.2713 7.27994 6.31205 8.33958 6.32224 9.39668C6.3337 10.4983 6.6139 11.5312 7.11952 12.5055C7.16155 12.5871 7.17683 12.7055 7.33348 12.7208C7.33348 11.8025 7.3424 10.8932 7.32839 9.98381C7.32329 9.64758 7.43537 9.52913 7.78307 9.53422C9.04649 9.55205 10.3112 9.57498 11.5733 9.53041C13.2379 9.47309 14.6313 8.78916 15.589 7.41749C15.9647 6.87875 16.3417 6.64696 16.9747 6.72719C17.209 6.75649 17.3708 6.81125 17.5071 7.01248C17.9885 7.72188 18.6558 8.16637 19.4977 8.34213C19.8454 8.41472 20.2007 8.40963 20.5523 8.39562C20.8758 8.38161 20.998 8.50006 20.9916 8.82865C20.9764 9.68196 20.9866 10.5353 20.9866 11.3899C20.9866 11.8318 20.9866 12.2725 20.9866 12.7144ZM18.9118 33.7901C19.6518 33.7901 20.3905 33.7837 21.1305 33.7939C21.3635 33.7964 21.4603 33.7188 21.4514 33.478C21.4387 33.1151 21.4425 32.7495 21.4489 32.3866C21.4667 31.4237 21.2769 31.5473 22.3315 31.5345C22.5646 31.532 22.6575 31.6199 22.6537 31.8555C22.6448 32.3904 22.6614 32.9253 22.6473 33.4589C22.641 33.7124 22.7314 33.7964 22.9836 33.7939C24.2457 33.785 25.5091 33.785 26.7713 33.7939C27.0171 33.7952 27.119 33.7226 27.1126 33.464C27.0795 32.0771 27.1419 30.6914 27.0642 29.3032C26.9305 26.8948 25.3767 24.7538 23.1186 23.9285C22.1532 23.5758 21.1292 23.4598 20.146 23.1847C19.7996 23.0879 19.7053 23.2064 19.6378 23.5261C19.3067 25.0926 18.9513 26.6541 18.6049 28.218C18.5081 28.6536 18.4916 28.6587 18.1222 28.3938C17.6599 28.0627 17.1976 27.7315 16.734 27.4029C16.655 27.3469 16.5646 27.2361 16.4665 27.3354C16.2284 27.5762 15.9049 27.7455 15.9443 28.1887C16.1023 29.9527 16.2335 31.7192 16.3723 33.4844C16.3901 33.7111 16.5022 33.7952 16.7276 33.7913C17.4548 33.7824 18.1833 33.7875 18.9118 33.7875V33.7901ZM9.38781 33.7901C10.1163 33.7901 10.8435 33.7824 11.572 33.7939C11.837 33.799 11.9414 33.6895 11.9529 33.4373C11.9656 33.1431 11.9962 32.8489 12.0216 32.5547C12.1324 31.2429 12.242 29.9298 12.354 28.618C12.391 28.1837 12.4279 27.7672 12.0063 27.4526C11.8268 27.3189 11.7249 27.2921 11.5453 27.4271C11.0626 27.7888 10.5659 28.1302 10.0768 28.4829C9.90745 28.6052 9.79027 28.6243 9.75588 28.3709C9.74442 28.2817 9.7164 28.1938 9.6973 28.1047C9.35215 26.5522 9.00064 25.0009 8.66695 23.4471C8.60709 23.1669 8.4861 23.116 8.22883 23.1784C7.50033 23.3529 6.76036 23.4853 6.03568 23.6776C3.4337 24.3654 1.79966 26.0121 1.33479 28.6778C1.05205 30.2953 1.24309 31.9459 1.21507 33.5812C1.21125 33.7748 1.34753 33.7913 1.49527 33.7913C2.7918 33.7913 4.08834 33.7875 5.38487 33.7939C5.61794 33.7939 5.67525 33.6882 5.67015 33.4806C5.66124 33.1049 5.66251 32.7304 5.66888 32.3547C5.68544 31.4313 5.51095 31.5523 6.51328 31.5345C6.77564 31.5294 6.88135 31.6211 6.87499 31.8898C6.86098 32.4133 6.88135 32.9368 6.86734 33.4589C6.86098 33.7111 6.95013 33.799 7.2023 33.7952C7.92953 33.7837 8.65804 33.7913 9.38654 33.7913L9.38781 33.7901ZM14.1422 33.7901C14.3129 33.7901 14.4835 33.7901 14.6542 33.7901C15.1955 33.7901 15.2057 33.7761 15.1573 33.231C15.0031 31.4785 14.8541 29.7247 14.6924 27.9722C14.6567 27.5838 14.7077 27.2552 15.0452 27.0094C15.1636 26.9241 15.2528 26.7992 15.361 26.6986C15.4795 26.5878 15.4846 26.5012 15.3407 26.4032C14.9942 26.165 14.6504 25.9217 14.3129 25.6695C14.1842 25.5728 14.0925 25.6071 13.9804 25.6899C13.6697 25.9192 13.3589 26.1523 13.0354 26.3624C12.8316 26.4936 12.8215 26.6108 13.0074 26.7458C13.5614 27.1508 13.7792 27.6691 13.5742 28.3429C13.5551 28.4053 13.5716 28.4791 13.5652 28.5466C13.4812 29.5311 13.3946 30.5144 13.3131 31.4989C13.2583 32.1548 13.2112 32.8119 13.1551 33.4678C13.1348 33.6996 13.2176 33.8066 13.4608 33.7926C13.6875 33.7799 13.9155 33.7901 14.1435 33.7901H14.1422ZM16.939 21.3686C16.9403 20.8719 16.9441 20.8795 16.5086 21.0413C15.8221 21.296 15.1152 21.4437 14.3804 21.4666C13.4468 21.4947 12.5502 21.3316 11.6803 20.9941C11.595 20.961 11.4803 20.8235 11.3912 20.9916C11.2855 21.1903 11.4167 21.7405 11.6052 21.8971C12.391 22.553 13.1819 23.2013 13.9613 23.8636C14.1154 23.9948 14.211 23.9897 14.3625 23.861C15.1165 23.2204 15.8768 22.5887 16.6436 21.9634C16.8537 21.7927 17.0002 21.6131 16.9403 21.3673L16.939 21.3686ZM10.4958 22.6868C10.3736 22.7122 10.2526 22.7504 10.1291 22.7594C9.82466 22.7836 9.77372 22.9211 9.84249 23.2102C10.087 24.2253 10.3086 25.2454 10.5239 26.2669C10.5837 26.5522 10.6754 26.5687 10.8958 26.407C11.5466 25.9294 12.1999 25.4569 12.866 25.0009C13.122 24.8264 13.1093 24.7131 12.8788 24.5284C12.1987 23.9782 11.5313 23.4127 10.8588 22.8523C10.7531 22.7645 10.6474 22.6753 10.4946 22.6868H10.4958ZM17.8178 22.6829C17.6917 22.6817 17.5962 22.739 17.5071 22.8141C16.8015 23.4025 16.0985 23.9948 15.3878 24.5768C15.2082 24.7245 15.2044 24.8239 15.4005 24.9614C16.0883 25.4429 16.7696 25.9345 17.451 26.4248C17.6128 26.5407 17.721 26.5751 17.7758 26.3204C18.0127 25.2352 18.261 24.154 18.503 23.0701C18.5285 22.9568 18.5438 22.8409 18.3795 22.8078C18.191 22.7696 18.0038 22.725 17.8165 22.6829H17.8178Z" fill="white"/>
</svg>
