<svg width="28" height="28" viewBox="0 0 28 28" fill="none" xmlns="http://www.w3.org/2000/svg">
<path d="M21.8 13.1333C21.5701 13.1333 21.3497 13.042 21.1872 12.8795C21.0246 12.717 20.9333 12.4965 20.9333 12.2667V9.66667C20.9333 7.82783 20.2028 6.06431 18.9026 4.76406C17.6023 3.46381 15.8388 2.73333 14 2.73333C12.1611 2.73333 10.3976 3.46381 9.09737 4.76406C7.79712 6.06431 7.06665 7.82783 7.06665 9.66667V12.2667C7.06665 12.4965 6.97534 12.717 6.81281 12.8795C6.65027 13.042 6.42983 13.1333 6.19998 13.1333C5.97013 13.1333 5.74969 13.042 5.58715 12.8795C5.42462 12.717 5.33331 12.4965 5.33331 12.2667V9.66667C5.33331 7.36812 6.24641 5.16372 7.87172 3.53841C9.49704 1.91309 11.7014 1 14 1C16.2985 1 18.5029 1.91309 20.1282 3.53841C21.7536 5.16372 22.6666 7.36812 22.6666 9.66667V12.2667C22.6666 12.4965 22.5753 12.717 22.4128 12.8795C22.2503 13.042 22.0298 13.1333 21.8 13.1333ZM16.6 27H14.8666C14.6368 27 14.4164 26.9087 14.2538 26.7462C14.0913 26.5836 14 26.3632 14 26.1333C14 25.9035 14.0913 25.683 14.2538 25.5205C14.4164 25.358 14.6368 25.2667 14.8666 25.2667H16.6C17.169 25.2667 17.7325 25.1546 18.2583 24.9368C18.784 24.719 19.2617 24.3999 19.6641 23.9975C20.0665 23.5951 20.3857 23.1174 20.6035 22.5916C20.8212 22.0659 20.9333 21.5024 20.9333 20.9333C20.9333 20.7035 21.0246 20.483 21.1872 20.3205C21.3497 20.158 21.5701 20.0667 21.8 20.0667C22.0298 20.0667 22.2503 20.158 22.4128 20.3205C22.5753 20.483 22.6666 20.7035 22.6666 20.9333C22.6666 22.5423 22.0275 24.0854 20.8898 25.2231C19.752 26.3608 18.209 27 16.6 27Z" fill="white" stroke="white" stroke-width="0.1"/>
<path d="M7.93333 21.7999H6.2C4.82087 21.7999 3.49823 21.252 2.52304 20.2769C1.54786 19.3017 1 17.979 1 16.5999C1 15.2208 1.54786 13.8981 2.52304 12.9229C3.49823 11.9478 4.82087 11.3999 6.2 11.3999H7.93333C8.16319 11.3999 8.38363 11.4912 8.54616 11.6537C8.70869 11.8163 8.8 12.0367 8.8 12.2666V20.9332C8.8 21.1631 8.70869 21.3835 8.54616 21.5461C8.38363 21.7086 8.16319 21.7999 7.93333 21.7999ZM6.2 13.1332C5.28058 13.1332 4.39882 13.4985 3.7487 14.1486C3.09857 14.7987 2.73333 15.6805 2.73333 16.5999C2.73333 17.5193 3.09857 18.4011 3.7487 19.0512C4.39882 19.7013 5.28058 20.0666 6.2 20.0666H7.06667V13.1332H6.2ZM21.8 21.7999H20.0667C19.8368 21.7999 19.6164 21.7086 19.4538 21.5461C19.2913 21.3835 19.2 21.1631 19.2 20.9332V12.2666C19.2 12.0367 19.2913 11.8163 19.4538 11.6537C19.6164 11.4912 19.8368 11.3999 20.0667 11.3999H21.8C23.1791 11.3999 24.5018 11.9478 25.477 12.9229C26.4521 13.8981 27 15.2208 27 16.5999C27 17.979 26.4521 19.3017 25.477 20.2769C24.5018 21.252 23.1791 21.7999 21.8 21.7999ZM20.9333 20.0666H21.8C22.7194 20.0666 23.6012 19.7013 24.2513 19.0512C24.9014 18.4011 25.2667 17.5193 25.2667 16.5999C25.2667 15.6805 24.9014 14.7987 24.2513 14.1486C23.6012 13.4985 22.7194 13.1332 21.8 13.1332H20.9333V20.0666Z" fill="white" stroke="white" stroke-width="0.1"/>
</svg>
