<svg width="42" height="42" viewBox="0 0 42 42" fill="none" xmlns="http://www.w3.org/2000/svg">
<path d="M35.28 1H36.0602C37.0373 1.56249 37.1539 2.39892 36.3633 3.19578C35.6956 3.86972 35.0311 4.54678 34.3488 5.20614C34.1342 5.41343 34.1071 5.54155 34.3394 5.76342C34.9884 6.38215 35.5904 7.05088 36.2519 7.65503C36.7894 8.14669 36.9904 8.6998 36.8039 9.40082C36.6821 9.8581 36.7904 10.2341 37.1039 10.6112C37.6602 11.2799 38.1664 11.9914 38.6779 12.6955C39.4403 13.7465 40.2841 14.7392 40.9736 15.8444V37.4845C40.8361 37.9584 40.6986 38.4313 40.4466 38.8636C39.7705 40.024 38.7466 40.6917 37.4643 41H18.7502C16.8482 40.5167 15.641 39.3542 15.2472 37.398C15.4305 36.4553 14.7795 35.9855 14.2066 35.4168C10.2869 31.5221 6.39016 27.6035 2.48817 23.6911C2.30485 23.5067 2.11943 23.3223 1.95798 23.1192C0.546559 21.3463 0.70593 18.9339 2.36214 17.2371C3.55169 16.0184 4.7652 14.8226 5.96829 13.6174C9.4307 10.1477 12.8942 6.67798 16.3555 3.20828C16.6243 2.93849 16.8961 2.67808 17.2951 2.62079C19.4773 2.30622 21.6596 1.99477 23.8407 1.67707C25.3667 1.4552 26.8927 1.22604 28.4177 1H29.4312C29.6687 1.11146 29.8687 1.27083 30.0541 1.45728C30.7291 2.13955 31.4155 2.81141 32.0843 3.49993C32.2864 3.70722 32.4259 3.70305 32.6259 3.49785C33.2853 2.8187 33.9624 2.15622 34.628 1.48228C34.8217 1.28645 35.028 1.11354 35.28 1ZM17.4326 34.4283C18.0576 34.4741 18.5471 34.171 18.9888 33.7273C23.4043 29.2972 27.8177 24.864 32.252 20.4537C32.7082 19.9995 32.9676 19.5224 32.9895 18.8964C32.9926 18.8183 33.002 18.7402 33.0124 18.6631C33.4436 15.6663 33.8769 12.6705 34.3051 9.67373C34.3405 9.42791 34.3457 9.19354 34.1332 8.98938C33.5988 8.47585 33.079 7.94774 32.5624 7.4165C32.4114 7.2613 32.303 7.24984 32.1478 7.41233C31.7707 7.80711 31.3853 8.1946 30.9906 8.57168C30.8145 8.73938 30.827 8.86542 30.9947 9.02271C31.202 9.21854 31.4072 9.42061 31.5926 9.63728C32.0343 10.1529 32.0051 10.88 31.5395 11.332C31.0885 11.7695 30.3458 11.8049 29.876 11.3487C28.7396 10.2425 27.6188 9.11854 26.5136 7.98107C26.0459 7.49983 26.0782 6.73423 26.5282 6.28528C26.9938 5.81967 27.6969 5.80196 28.2198 6.25611C28.4354 6.44361 28.6375 6.64777 28.8323 6.85714C28.9958 7.03318 29.1219 7.01859 29.2823 6.84881C29.6406 6.47173 30.0072 6.10195 30.3833 5.74363C30.5812 5.55509 30.5697 5.41447 30.3781 5.22801C29.901 4.76761 29.4198 4.30825 28.9771 3.81659C28.726 3.53639 28.4594 3.48431 28.1146 3.53431C25.022 3.98326 21.9293 4.43429 18.8336 4.85615C18.2753 4.93219 17.8596 5.15302 17.4628 5.55301C13.0744 9.97372 8.67031 14.3778 4.27042 18.786C4.15063 18.9058 4.02564 19.0204 3.9173 19.1495C3.52981 19.6131 3.37461 20.138 3.48086 20.7443C3.5694 21.2474 3.85897 21.6172 4.2048 21.962C6.93389 24.6942 9.66195 27.4285 12.39 30.1617C13.5931 31.368 14.7972 32.5721 16.0003 33.7794C16.3909 34.171 16.8336 34.4418 17.4336 34.4283H17.4326ZM36.2696 13.559C36.2144 13.6945 36.1842 13.7403 36.1779 13.7893C35.9102 15.6798 35.6102 17.5673 35.3936 19.4651C35.279 20.4651 34.929 21.2463 34.1905 21.9755C29.7583 26.3525 25.3657 30.769 20.9814 35.1929C20.121 36.0605 19.1888 36.7293 17.9503 36.8793C17.6972 36.9105 17.6555 37.0491 17.7222 37.2636C17.8086 37.5418 17.9544 37.7845 18.1513 37.998C18.6117 38.4969 19.2086 38.6261 19.8513 38.6261C24.5022 38.6261 29.1531 38.6261 33.804 38.6261C34.7009 38.6261 35.5967 38.6344 36.4935 38.623C37.4821 38.6105 38.231 38.1022 38.4799 37.2834C38.5789 36.9584 38.6039 36.622 38.6039 36.2803C38.6018 30.2274 38.5799 24.1744 38.6237 18.1225C38.631 17.1006 38.432 16.2611 37.7435 15.4986C37.2175 14.9153 36.7852 14.2465 36.2685 13.559H36.2696Z" fill="white" stroke="#E83647" stroke-width="0.2"/>
<path d="M22.521 11.0451C22.5398 11.2316 22.4773 11.4295 22.4117 11.6284C20.6252 16.997 18.8409 22.3656 17.0524 27.7342C16.8087 28.4676 16.3337 28.8478 15.7472 28.803C14.9181 28.7394 14.4087 27.9676 14.6796 27.1374C15.2629 25.3447 15.866 23.5583 16.4618 21.7688C17.6816 18.1043 18.9003 14.4398 20.1221 10.7764C20.3315 10.1482 20.7107 9.8295 21.2492 9.80346C21.9763 9.76805 22.521 10.2878 22.5221 11.0461L22.521 11.0451Z" fill="white" stroke="#E83647" stroke-width="0.2"/>
<path d="M8.39946 19.2962C8.39008 17.3619 9.97337 15.7484 11.8942 15.7359C13.8889 15.7234 15.4961 17.29 15.5034 19.2546C15.5107 21.2483 13.9576 22.8368 11.9754 22.8639C10.0265 22.8909 8.40883 21.2774 8.39946 19.2962ZM11.9629 18.2004C11.341 18.1973 10.8327 18.689 10.8306 19.2952C10.8286 19.8775 11.3733 20.4212 11.9587 20.4191C12.5473 20.417 13.0358 19.9223 13.0452 19.3192C13.0556 18.6713 12.6025 18.2036 11.9629 18.2004Z" fill="white" stroke="#E83647" stroke-width="0.2"/>
<path d="M25.1834 15.7358C27.1406 15.7358 28.7416 17.3223 28.752 19.2732C28.7625 21.2284 27.1437 22.8586 25.1865 22.8627C23.2397 22.8669 21.6064 21.2263 21.6158 19.2764C21.6251 17.3316 23.2324 15.7369 25.1834 15.7358ZM26.2865 19.3295C26.3031 18.717 25.8469 18.2243 25.2438 18.2014C24.6084 18.1774 24.1042 18.6316 24.0792 19.2503C24.0553 19.8649 24.5313 20.3878 25.1438 20.418C25.7407 20.4482 26.2698 19.943 26.2865 19.3295Z" fill="white" stroke="#E83647" stroke-width="0.2"/>
</svg>
