<svg width="7" height="4" viewBox="0 0 7 4" fill="none" xmlns="http://www.w3.org/2000/svg">
<path fill-rule="evenodd" clip-rule="evenodd" d="M0.10237 0.133276C-0.0341234 0.280546 -0.0341234 0.518725 0.10237 0.665632L2.99468 3.7794C3.05843 3.8491 3.13504 3.9046 3.22008 3.94253C3.30513 3.98045 3.39686 4 3.4894 4C3.58195 4 3.67351 3.98045 3.75856 3.94253C3.8436 3.9046 3.9202 3.8491 3.98396 3.7794L6.89763 0.643089C6.96274 0.571909 6.99934 0.477648 6.99999 0.379449C7.00064 0.281249 6.96521 0.18647 6.90105 0.114366C6.86936 0.0786476 6.83101 0.0500709 6.78826 0.0304C6.74551 0.0107292 6.69933 0.000385534 6.65257 1.05594e-05C6.60582 -0.000364415 6.55958 0.00923662 6.51654 0.0282194C6.47351 0.0472022 6.4346 0.0751596 6.40239 0.110366L3.73651 2.98086C3.70463 3.01574 3.66626 3.04351 3.62372 3.06249C3.58118 3.08147 3.53553 3.09127 3.48923 3.09127C3.44294 3.09127 3.39711 3.08147 3.35457 3.06249C3.31203 3.04351 3.27366 3.01574 3.24178 2.98086L0.596924 0.133276C0.565076 0.0984071 0.526647 0.0706425 0.484137 0.0516674C0.441628 0.0326923 0.395914 0.0229036 0.349647 0.0229036C0.30338 0.0229036 0.257666 0.0326923 0.215157 0.0516674C0.172647 0.0706425 0.134218 0.0984071 0.10237 0.133276Z" fill="black"/>
</svg>
