<svg width="36" height="35" viewBox="0 0 36 35" fill="none" xmlns="http://www.w3.org/2000/svg">
<path d="M16.4239 0.000910866H18.6099C19.2388 0.0857975 19.8732 0.12596 20.4994 0.241881C25.6482 1.19663 29.626 3.89018 32.4054 8.31981C32.7605 8.8848 33.1027 9.16776 33.7681 9.071C34.3377 8.98794 34.7594 9.24626 35.0077 9.77201V25.2132C34.7585 25.738 34.3414 25.9671 33.7654 25.9224C33.6413 25.9123 33.5126 25.9361 33.3903 25.9178C33.0142 25.8621 32.7988 26.0146 32.6062 26.3514C31.6469 28.0254 30.4357 29.5031 28.9579 30.7436C24.8897 34.1591 20.2082 35.5721 14.9507 34.7898C9.62382 33.9967 5.51549 31.2419 2.64486 26.6891C2.27428 26.1013 1.9183 25.8494 1.22552 25.9041C0.387604 25.9708 0.00150831 25.5354 0.000595548 24.6874C0.000595548 21.4535 0.000595548 18.2205 0.000595548 14.9866C0.000595548 13.3929 -0.00122908 11.7983 0.0015092 10.2047C0.00242196 9.4781 0.414989 9.07101 1.14794 9.0637C1.2958 9.06188 1.44641 9.04636 1.59154 9.06644C2.00502 9.12486 2.23412 8.95782 2.45501 8.59089C5.02899 4.32192 8.74849 1.60281 13.5971 0.429909C14.5281 0.204457 15.4755 0.102229 16.4248 0L16.4239 0.000910866ZM26.6742 11.0015L26.7344 11.0973C26.8339 11.1028 26.9343 11.1119 27.0338 11.1119C27.9447 11.1129 28.8557 11.1119 29.7666 11.1138C30.3188 11.1147 30.4713 11.2562 30.5251 11.802C30.6219 12.7869 31.3493 13.4988 32.336 13.5755C32.8052 13.612 32.9823 13.7955 32.9823 14.2701C32.9841 16.4224 32.9841 18.5747 32.9823 20.726C32.9823 21.1797 32.8015 21.3695 32.357 21.407C31.374 21.4891 30.6794 22.1317 30.5324 23.0919C30.422 23.813 30.3553 23.8705 29.616 23.8705C24.6396 23.8705 19.6642 23.8814 14.6878 23.8559C14.0772 23.8532 13.6016 23.9755 13.2429 24.472C13.2228 24.4994 13.1927 24.5186 13.1717 24.5459C13.1261 24.6053 13.0229 24.6491 13.0649 24.7385C13.1042 24.8225 13.2064 24.7933 13.2822 24.7942C13.7833 24.7988 14.2844 24.786 14.7846 24.8061C15.2181 24.8234 15.4372 25.048 15.4189 25.4039C15.4016 25.7371 15.1743 25.9169 14.7471 25.9187C13.87 25.9224 12.9937 25.9251 12.1166 25.9169C11.8948 25.9151 11.7268 25.9808 11.5717 26.1396C10.9081 26.8132 10.2436 27.485 9.56449 28.1422C9.33721 28.3613 9.39563 28.4735 9.62291 28.6342C11.7195 30.1165 14.0525 30.9562 16.6083 31.1205C19.0636 31.2794 21.4094 30.8093 23.6164 29.6985C23.7178 29.6473 23.8209 29.5962 23.9277 29.5588C24.2033 29.4621 24.4334 29.5488 24.5721 29.7925C24.7163 30.0462 24.6853 30.3091 24.4452 30.4971C24.2946 30.6149 24.1157 30.6998 23.9423 30.7819C20.566 32.3792 17.0738 32.6987 13.4729 31.7011C11.7661 31.2282 10.2043 30.446 8.77952 29.3945C8.11412 28.9035 8.04383 28.1367 8.60153 27.5316C8.70193 27.423 8.80872 27.3198 8.91369 27.2158C14.6467 21.4827 20.3798 15.7488 26.1137 10.0157C26.5966 9.53286 27.0712 9.04089 27.5669 8.57081C28.0798 8.08431 28.8493 8.04141 29.2345 8.56716C29.585 9.04636 29.9921 9.1066 30.4968 9.06553C30.6775 9.05092 30.861 9.07101 31.0426 9.06097C31.186 9.05275 31.3877 9.13581 31.4598 9.00803C31.5447 8.85833 31.3667 8.72142 31.2818 8.5982C27.3679 2.95004 21.9744 0.468245 15.1661 1.28882C11.2604 1.7598 7.99181 3.61088 5.33476 6.5171C4.69583 7.21628 4.1354 7.9757 3.62882 8.7771C3.48643 9.00255 3.53845 9.07192 3.79311 9.06462C4.14544 9.05458 4.50142 9.0345 4.851 9.06918C5.25262 9.11025 5.48263 8.93774 5.72451 8.63014C9.12911 4.31553 13.5825 2.34214 19.0599 2.80308C21.6403 3.02032 23.9852 3.96229 26.0946 5.47382C26.9736 6.10363 27.042 6.84022 26.2771 7.60603C23.1464 10.7395 17.9226 15.9614 14.79 19.0931C14.3875 19.4956 14.0982 19.5513 13.8216 19.2875C13.535 19.0137 13.5888 18.7107 14.0032 18.2954C15.0976 17.1991 18.2804 14.0109 19.3812 12.9219C19.5839 12.722 19.5665 12.6289 19.3 12.5304C18.4904 12.231 17.6488 12.1625 16.8091 12.273C13.6217 12.6928 11.5543 15.8848 12.4552 18.9535C12.5897 19.4117 12.8255 19.4722 13.1626 19.1351C13.5578 18.7417 13.9457 18.3392 14.3547 17.9604C14.5956 17.7367 14.9178 17.7559 15.1259 17.9631C15.3341 18.1703 15.3386 18.477 15.1342 18.7362C15.0849 18.7983 15.0274 18.8549 14.9717 18.9115C12.5081 21.3759 10.0455 23.8413 7.57924 26.3021C6.88554 26.994 6.15442 26.9355 5.55656 26.1524C5.47259 26.042 5.39775 25.9242 5.23893 25.9242C4.72687 25.9224 4.21389 25.9215 3.70184 25.9215C3.52932 25.9215 3.50377 25.9991 3.59048 26.1351C3.63338 26.2026 3.67263 26.272 3.71553 26.3386C7.35744 31.9941 13.8727 34.7506 20.3506 33.6352C23.3828 33.1131 26.059 31.8133 28.3692 29.7761C29.5457 28.7382 30.5516 27.5517 31.3895 26.2227C31.5364 25.9899 31.5072 25.9087 31.2225 25.9169C30.7898 25.9288 30.3572 25.9269 29.9245 25.9169C29.7228 25.9123 29.585 25.9817 29.4636 26.146C29.2281 26.4673 28.9807 26.7804 28.7233 27.0843C28.0442 27.8866 27.2793 28.6013 26.4432 29.2375C26.0672 29.5232 25.7642 29.5205 25.5405 29.2412C25.316 28.9591 25.3981 28.6442 25.7769 28.3439C25.839 28.2946 25.9029 28.2463 25.965 28.197C26.7171 27.6009 27.3998 26.9328 28.0132 26.1953C28.067 26.1305 28.1757 26.0721 28.1182 25.968C28.0734 25.8886 27.9739 25.9251 27.8973 25.9206C27.806 25.916 27.7147 25.9196 27.6244 25.9196C24.2198 25.9196 18.3005 25.9196 14.8959 25.9196C14.759 25.9196 14.6203 25.9306 14.487 25.9078C14.2095 25.8603 14.0361 25.6978 14.0224 25.4039C14.0087 25.1164 14.1392 24.9156 14.4204 24.8481C14.5838 24.8088 14.7581 24.7988 14.9279 24.7979C16.3509 24.7942 20.2885 24.796 21.7124 24.796C25.6291 24.796 29.5466 24.7951 33.4633 24.7979C33.7517 24.7979 33.9617 24.7924 33.9607 24.3935C33.9498 19.7932 33.9516 15.1929 33.958 10.5926C33.958 10.3041 33.8704 10.1827 33.5682 10.1837C31.6551 10.1919 29.742 10.1873 27.8297 10.1882C27.6928 10.1882 27.5513 10.1846 27.4418 10.285C27.1835 10.5223 26.9288 10.7624 26.6724 11.0015H26.6742ZM21.2734 22.7012C21.3071 22.7159 21.3354 22.7396 21.3647 22.7396C23.9697 22.7423 26.5756 22.7423 29.1806 22.7441C29.3851 22.7441 29.4754 22.6437 29.5375 22.453C29.8734 21.417 30.5616 20.7251 31.6067 20.4066C31.8313 20.3381 31.9089 20.2158 31.9079 19.9867C31.9016 18.3255 31.9006 16.6643 31.9079 15.003C31.9089 14.7557 31.8167 14.6416 31.5812 14.5676C30.5671 14.25 29.8816 13.5782 29.553 12.5678C29.47 12.3113 29.3358 12.2319 29.0857 12.2337C27.9931 12.241 26.9014 12.241 25.8089 12.2337C25.5752 12.2319 25.3981 12.3077 25.2357 12.4747C24.6625 13.0598 24.0911 13.6476 23.495 14.2089C23.2468 14.4426 23.2212 14.6343 23.3599 14.9455C24.521 17.5515 23.7606 20.6494 21.5426 22.4393C21.4486 22.515 21.3318 22.5716 21.2743 22.7012H21.2734ZM13.8116 12.2766C13.7102 12.2547 13.6774 12.241 13.6454 12.241C11.0632 12.2392 8.48013 12.241 5.89794 12.2365C5.66792 12.2365 5.5593 12.3314 5.48719 12.5523C5.15769 13.5609 4.48407 14.2454 3.46817 14.5622C3.19343 14.648 3.12406 14.7904 3.12497 15.0551C3.13319 16.6816 3.1341 18.309 3.12497 19.9356C3.12315 20.2049 3.20621 20.3372 3.47547 20.4221C4.46125 20.7343 5.13669 21.3896 5.46437 22.3736C5.55474 22.6465 5.68435 22.7542 5.97278 22.7505C7.05349 22.7378 8.1342 22.7405 9.21491 22.7487C9.46318 22.7505 9.64481 22.6647 9.8155 22.4904C10.396 21.8971 10.9793 21.3047 11.5799 20.7306C11.7989 20.5216 11.8053 20.3482 11.6921 20.0771C10.7173 17.7358 11.0057 15.5461 12.5264 13.5189C12.876 13.0534 13.3168 12.6755 13.8116 12.2757V12.2766ZM15.0675 9.06279C17.6634 9.06279 20.2593 9.05914 22.8552 9.06736C23.1281 9.06736 23.3271 8.98612 23.516 8.7917C24.1431 8.14729 24.7848 7.51657 25.42 6.88038C25.7185 6.581 25.7194 6.57004 25.3717 6.32908C22.4271 4.28723 19.1749 3.48765 15.627 3.98054C12.1768 4.46066 9.33904 6.07989 7.0754 8.71686C7.0042 8.79992 6.85998 8.88298 6.90562 8.9916C6.96312 9.12942 7.12925 9.05914 7.24608 9.05914C9.85293 9.06279 12.4607 9.06188 15.0675 9.06188V9.06279ZM8.39707 23.9481C8.18166 23.844 8.05478 23.8723 7.93248 23.8714C7.04436 23.8687 6.15625 23.8714 5.26813 23.8687C4.71683 23.8668 4.56257 23.7245 4.50872 23.1804C4.41014 22.1938 3.68541 21.4836 2.6978 21.407C2.22864 21.3704 2.05156 21.1861 2.05156 20.7123C2.04974 18.5601 2.04974 16.4087 2.05156 14.2564C2.05156 13.7881 2.22955 13.6111 2.70967 13.5737C3.67263 13.4997 4.40101 12.7905 4.50689 11.8221C4.5717 11.2315 4.70496 11.1119 5.31286 11.1119C6.89558 11.111 8.47831 11.1119 10.061 11.1119C13.6363 11.1119 17.2116 11.1119 20.7869 11.1119C20.9786 11.1119 21.1748 11.1348 21.3291 10.9714C21.5089 10.7815 21.6996 10.6017 21.8831 10.4146C21.9287 10.368 22.0018 10.3215 21.9707 10.2466C21.9388 10.1718 21.8539 10.1919 21.7882 10.1891C21.6859 10.1846 21.5837 10.1873 21.4806 10.1873C17.2563 10.1873 13.0321 10.1873 8.8069 10.1873C6.3817 10.1873 3.9565 10.19 1.5313 10.1846C1.2383 10.1846 1.06853 10.2293 1.06944 10.5917C1.07948 15.192 1.07765 19.7923 1.07126 24.3926C1.07126 24.6828 1.16071 24.8015 1.46192 24.8006C3.37507 24.7924 5.28821 24.7969 7.20045 24.796C7.33736 24.796 7.47884 24.8006 7.58837 24.7002C7.84668 24.4638 8.10225 24.2228 8.39434 23.9508L8.39707 23.9481ZM17.4599 22.7396C17.8624 22.7423 18.2019 22.7286 18.5387 22.6593C21.6841 22.0158 23.5516 18.8019 22.4718 15.6976C22.3906 15.464 22.3057 15.4046 22.104 15.6064C19.9526 17.766 17.7967 19.921 15.638 22.0733C15.4491 22.2613 15.4646 22.3581 15.7156 22.4448C16.3016 22.6456 16.8994 22.767 17.4599 22.7396Z" fill="white"/>
<path d="M23.6738 29.6717C23.6738 29.6717 24.7125 29.2747 26.0689 28.1191L26.8612 28.9114C26.8612 28.9114 26.0433 29.6708 24.0809 30.7178L23.6738 29.6717Z" fill="white"/>
</svg>
