<svg width="30" height="30" viewBox="0 0 30 30" fill="none" xmlns="http://www.w3.org/2000/svg">
<path d="M6.01391 5.60453C6.50289 5.60453 6.96583 5.60453 7.42877 5.60453C8.05769 5.60453 8.68742 5.59965 9.31633 5.60616C9.90945 5.61186 10.3333 6.00157 10.3529 6.54344C10.3716 7.06984 9.99488 7.48071 9.41072 7.53685C9.08853 7.56777 8.76227 7.56288 8.43845 7.5637C7.0179 7.56614 5.59653 7.56532 4.17597 7.5637C4.01406 7.5637 3.85134 7.55475 3.69106 7.53359C3.16059 7.46444 2.81237 7.10482 2.80993 6.57842C2.80179 4.70062 2.80016 2.82363 2.81074 0.945823C2.81399 0.406402 3.28101 -0.0150465 3.80334 0.000411995C4.33137 0.0158705 4.72515 0.419419 4.72922 0.970231C4.73573 1.88391 4.73004 2.79678 4.73329 3.71046C4.73329 3.80728 4.70238 3.91142 4.77967 4.02695C5.0685 3.78368 5.34756 3.53797 5.63639 3.30609C7.85103 1.52999 10.361 0.444641 13.1858 0.116758C17.3897 -0.370593 21.1616 0.711504 24.4429 3.36874C27.4175 5.77783 29.2416 8.90371 29.8111 12.6976C30.5035 17.3009 29.2904 21.3974 26.2402 24.9017C23.8766 27.6167 20.8752 29.2723 17.306 29.811C12.9263 30.4724 8.97869 29.396 5.54202 26.6143C2.57561 24.2133 0.799503 21.0842 0.180349 17.3099C0.0607486 16.5785 -0.00678253 15.8421 0.000539929 15.0993C0.00623517 14.4802 0.411413 14.027 0.963038 14.0254C1.50571 14.0237 1.91252 14.4574 1.92716 15.0627C1.99713 18.0478 2.89047 20.7474 4.76258 23.0906C6.86575 25.7218 9.58157 27.3709 12.9125 27.8762C17.4052 28.558 21.2861 27.2408 24.4559 23.9847C26.472 21.9141 27.6249 19.3976 27.9642 16.5191C28.7599 9.76532 24.2175 3.4737 17.5452 2.19634C13.4128 1.40551 9.70117 2.39974 6.47359 5.12451C6.33447 5.24248 6.2051 5.37266 6.0733 5.49876C6.05377 5.51748 6.04564 5.54677 6.01228 5.60535L6.01391 5.60453Z" fill="white"/>
<path d="M6.53465 15.4714C6.53465 14.1623 6.53302 12.8532 6.53465 11.5441C6.53546 10.7842 6.72504 10.5181 7.43776 10.2513C9.78338 9.37177 12.1306 8.4947 14.473 7.60787C14.8359 7.47037 15.1727 7.47281 15.5348 7.6095C17.9064 8.50691 20.2813 9.39374 22.6563 10.2838C23.238 10.5019 23.4642 10.8005 23.4658 11.4278C23.4715 14.1273 23.4707 16.826 23.4658 19.5256C23.465 20.126 23.2315 20.4327 22.6652 20.6451C20.3098 21.5287 17.9528 22.4066 15.6015 23.3007C15.1874 23.4577 14.8098 23.4561 14.3957 23.2983C12.0542 22.4074 9.7069 21.5327 7.36046 20.6532C6.74863 20.4238 6.53628 20.1268 6.53465 19.4597C6.5314 18.1302 6.53384 16.8008 6.53384 15.4714H6.53465ZM14.0198 17.8951C14.0198 16.9416 14.015 15.9872 14.0239 15.0337C14.0255 14.8213 13.9613 14.7041 13.753 14.6269C12.0981 14.0134 10.4465 13.3918 8.79648 12.767C8.55728 12.6766 8.49382 12.7474 8.49463 12.9874C8.50033 14.9051 8.49951 16.8228 8.49463 18.7413C8.49463 18.9333 8.56623 19.0374 8.74359 19.1033C10.4074 19.7217 12.0704 20.3416 13.7294 20.9714C13.9751 21.0649 14.0255 20.995 14.0231 20.7574C14.015 19.8038 14.0198 18.8495 14.0198 17.8959V17.8951ZM15.9831 17.8618C15.9831 18.8259 15.9871 19.79 15.9798 20.7541C15.9782 20.9827 16.0172 21.0706 16.2703 20.9746C17.93 20.3449 19.5922 19.7241 21.256 19.1041C21.4318 19.039 21.5091 18.9382 21.5091 18.7445C21.5042 16.8163 21.5042 14.8888 21.5091 12.9606C21.5091 12.7165 21.4171 12.6897 21.2113 12.7678C19.5605 13.3918 17.9089 14.0126 16.254 14.6269C16.049 14.7025 15.9774 14.8164 15.979 15.032C15.9888 15.9758 15.9831 16.9196 15.9831 17.8634V17.8618ZM10.2789 11.2577C11.8646 11.8508 13.3649 12.4106 14.8635 12.9752C14.9937 13.024 15.0995 12.9891 15.2142 12.9459C15.87 12.701 16.5257 12.4578 17.1815 12.2129C18.0057 11.9045 18.8291 11.5937 19.6947 11.2691C19.6117 11.2252 19.5719 11.1983 19.5288 11.182C18.0765 10.6361 16.6226 10.0926 15.1711 9.54425C15.0344 9.493 14.9189 9.51578 14.7911 9.56459C14.2127 9.78427 13.6317 9.99662 13.0525 10.2139C12.1518 10.5515 11.2519 10.8916 10.2797 11.2577H10.2789Z" fill="white"/>
</svg>
