<svg width="32" height="27" viewBox="0 0 32 27" fill="none" xmlns="http://www.w3.org/2000/svg">
<path d="M27.3889 1H5.16667C2.86563 1 1 2.86563 1 5.16667V21.8333C1 24.1344 2.86563 26 5.16667 26H27.3889C29.6899 26 31.5556 24.1344 31.5556 21.8333V5.16667C31.5556 2.86563 29.6899 1 27.3889 1ZM27.3889 3.77778C27.5493 3.77778 27.7035 3.80486 27.8465 3.85521L16.2778 13.1104L4.70903 3.85521C4.85609 3.80368 5.01084 3.7775 5.16667 3.77778H27.3889ZM27.3889 23.2222H5.16667C4.79831 23.2222 4.44504 23.0759 4.18457 22.8154C3.92411 22.555 3.77778 22.2017 3.77778 21.8333V6.66736L15.4101 15.9733C15.6635 16.1764 15.9705 16.2778 16.2778 16.2778C16.5851 16.2778 16.892 16.1764 17.1455 15.9733L28.7778 6.66736V21.8333C28.7778 22.2017 28.6314 22.555 28.371 22.8154C28.1105 23.0759 27.7572 23.2222 27.3889 23.2222Z" fill="#E83647" stroke="white" stroke-width="0.2"/>
</svg>
