<svg width="36" height="35" viewBox="0 0 36 35" fill="none" xmlns="http://www.w3.org/2000/svg">
<path d="M35.8384 26.8875C35.6301 28.1187 35.2265 29.2742 34.5109 30.3102C33.0985 32.3561 31.1124 33.5481 28.7509 34.1786C28.5033 34.2449 28.253 34.2991 28.0017 34.3477C27.6598 34.415 27.3879 34.2655 27.2749 33.961C27.1703 33.6798 27.2824 33.4061 27.5906 33.2323C27.8952 33.0614 28.2165 32.9184 28.5136 32.7353C29.77 31.9637 30.792 30.9912 31.1657 29.4994C31.4188 28.4905 31.2386 27.5404 30.7266 26.6399C30.5772 26.3774 30.495 26.3298 30.1942 26.5157C29.0264 27.2387 27.8242 27.9076 26.6331 28.5942C23.0515 30.6615 19.4662 32.7223 15.8939 34.8045C15.4427 35.0679 15.0915 35.0633 14.6412 34.8017C9.98814 32.0973 5.32758 29.4069 0.658617 26.7296C0.186863 26.4596 -0.00277192 26.1513 3.05755e-05 25.5946C0.0205822 20.1643 0.0168449 14.7349 0.00376661 9.30457C0.00283245 8.86178 0.155101 8.59648 0.53157 8.37882C5.29769 5.64077 10.0591 2.89059 14.8178 0.135731C15.1391 -0.0501679 15.4156 -0.0417604 15.7305 0.140402C20.5097 2.90553 25.2917 5.666 30.0765 8.42179C30.4221 8.62076 30.551 8.887 30.5501 9.27748C30.5407 12.1557 30.5529 15.0338 30.5361 17.912C30.5333 18.3146 30.6472 18.522 31.0237 18.7014C33.2788 19.7719 34.8762 21.4431 35.5946 23.8766C35.6964 24.2213 35.758 24.5782 35.8384 24.9294V26.8875ZM14.6478 25.5936C14.6478 23.1583 14.6431 20.7229 14.6534 18.2875C14.6543 17.9858 14.5758 17.7989 14.3002 17.6448C13.2026 17.0311 12.119 16.3912 11.0279 15.7634C10.6906 15.5691 10.6766 15.5784 10.6766 15.9727C10.6757 17.6271 10.6794 19.2824 10.6738 20.9368C10.671 21.7215 10.2357 21.9775 9.56683 21.5926C8.28422 20.8546 7.01001 20.1026 5.72086 19.3777C5.33786 19.1628 5.18278 18.8854 5.18652 18.4491C5.20053 16.5612 5.18746 14.6732 5.19773 12.7862C5.1996 12.5116 5.12393 12.3453 4.87171 12.2033C3.75444 11.5765 2.65026 10.9263 1.54047 10.2845C1.20417 10.0902 1.17988 10.1033 1.17895 10.4854C1.17895 15.415 1.17988 20.3436 1.17334 25.2732C1.17334 25.5254 1.25275 25.6768 1.47321 25.8038C5.73394 28.2569 9.99 30.7166 14.2479 33.1725C14.6422 33.4005 14.6468 33.3958 14.6468 32.9343C14.6468 30.4868 14.6468 28.0402 14.6468 25.5927L14.6478 25.5936ZM15.8622 33.4033C16.0219 33.3201 16.1153 33.2753 16.205 33.2239C18.9589 31.6349 21.7138 30.0459 24.4677 28.4559C26.0007 27.5703 27.5346 26.6857 29.0648 25.7963C29.4076 25.5974 29.4384 25.2499 29.1245 25.0546C28.1353 24.4371 27.0413 24.1475 25.8905 24.041C25.6663 24.0205 25.5738 24.1064 25.5794 24.3381C25.5906 24.7921 25.5766 25.2471 25.584 25.7011C25.5887 25.985 25.5513 26.2457 25.2627 26.3793C24.9899 26.5054 24.747 26.4204 24.5144 26.2494C22.4499 24.7314 20.3817 23.218 18.3172 21.6991C17.8062 21.3226 17.794 20.9434 18.2761 20.5351C19.0234 19.9027 19.7754 19.2768 20.5246 18.649C21.8549 17.5346 23.186 16.4201 24.5154 15.3047C24.7405 15.1151 24.9909 15.0478 25.2599 15.1721C25.5261 15.2954 25.5906 15.5355 25.584 15.8138C25.5738 16.2333 25.5962 16.6537 25.5766 17.0722C25.5626 17.372 25.6728 17.4944 25.9736 17.4963C26.9797 17.5047 27.9662 17.6756 28.934 17.9353C29.2572 18.0222 29.3291 17.9652 29.3273 17.6355C29.3142 15.5037 29.3207 13.371 29.3207 11.2392C29.3207 10.9478 29.3179 10.6563 29.3207 10.3658C29.3226 10.1743 29.2469 10.1369 29.0881 10.2369C29.019 10.2808 28.9461 10.3172 28.876 10.3583C24.6695 12.7862 20.4648 15.2169 16.2527 17.6364C15.9631 17.8027 15.8528 17.9848 15.8528 18.3221C15.864 23.2152 15.8603 28.1084 15.8603 33.0025C15.8603 33.1165 15.8603 33.2304 15.8603 33.4061L15.8622 33.4033ZM31.644 31.4966C32.1839 31.1594 32.6277 30.7362 33.0312 30.2673C34.9846 27.9991 35.205 24.765 33.5581 22.3269C32.4184 20.6397 30.7743 19.6878 28.8574 19.1441C27.6514 18.8022 26.4155 18.6761 25.1655 18.6574C24.6387 18.649 24.4406 18.4772 24.3902 17.9699C24.3762 17.8316 24.3883 17.6897 24.3743 17.5514C24.3603 17.4085 24.4528 17.2058 24.3014 17.1376C24.1753 17.0806 24.0716 17.2609 23.967 17.3468C23.4728 17.7541 22.9815 18.1651 22.4892 18.5762C21.5952 19.3235 20.7077 20.0783 19.8053 20.8144C19.5437 21.0274 19.5643 21.1526 19.8343 21.3254C20.1285 21.5132 20.4013 21.7337 20.6825 21.941C21.8091 22.7678 22.9357 23.5964 24.0642 24.4213C24.1436 24.4792 24.2239 24.6006 24.3323 24.5306C24.4107 24.4801 24.3715 24.3568 24.3752 24.2652C24.3855 23.9747 24.3752 23.6814 24.4061 23.3937C24.449 22.9873 24.6461 22.822 25.0488 22.8098C25.5037 22.7958 25.9558 22.822 26.407 22.8836C27.826 23.0779 29.1619 23.5002 30.2969 24.4026C32.0148 25.7693 32.7958 27.518 32.353 29.7255C32.2269 30.356 31.9354 30.9259 31.643 31.4976L31.644 31.4966ZM5.81148 11.3401C5.9105 11.2878 6.00392 11.242 6.0936 11.1897C7.31455 10.4863 8.53457 9.78193 9.7546 9.07757C12.8 7.31947 15.8454 5.5623 18.8889 3.80233C18.9944 3.74161 19.1701 3.71265 19.1673 3.57253C19.1654 3.4595 19.0019 3.42493 18.9038 3.36795C17.7847 2.72057 16.6628 2.08067 15.5474 1.42768C15.3521 1.31371 15.198 1.30811 15.0009 1.42301C10.7177 3.90136 6.43177 6.37316 2.14674 8.8487C1.82913 9.0318 1.82913 9.06356 2.13927 9.24292C3.27802 9.90151 4.41864 10.5573 5.55925 11.214C5.63866 11.2598 5.72367 11.2972 5.81055 11.3401H5.81148ZM15.2802 16.7957C15.3839 16.7433 15.4792 16.7022 15.5698 16.6499C19.8548 14.1763 24.138 11.6988 28.4258 9.23077C28.7191 9.06169 28.6416 8.98602 28.4108 8.85431C27.288 8.2144 26.166 7.57263 25.0544 6.91498C24.8218 6.77765 24.6452 6.77952 24.4154 6.91217C20.1444 9.38585 15.8696 11.8548 11.593 14.3192C11.3576 14.4546 11.2885 14.5303 11.5772 14.6928C12.7224 15.3402 13.8575 16.0044 14.9981 16.6611C15.0878 16.7125 15.1849 16.7499 15.2811 16.7947L15.2802 16.7957ZM23.4616 6.07516C23.3972 5.93504 23.3 5.91168 23.2225 5.86591C22.4275 5.4035 21.625 4.95136 20.8375 4.47587C20.5863 4.32453 20.3873 4.32453 20.1332 4.47213C15.8696 6.94113 11.6024 9.4036 7.3323 11.8614C7.08288 12.0052 7.04832 12.0837 7.32483 12.2388C8.13849 12.6928 8.94654 13.158 9.74432 13.6382C9.97693 13.7783 10.1479 13.7699 10.3796 13.6354C13.7949 11.654 17.2158 9.68198 20.6358 7.70808C21.5727 7.1672 22.5097 6.62538 23.4616 6.07423V6.07516ZM9.40335 20.1054C9.43231 20.0381 9.44912 20.0176 9.44912 19.997C9.45193 18.3566 9.45193 16.7153 9.45566 15.0749C9.45566 14.917 9.38934 14.8143 9.25575 14.7377C8.39725 14.2463 7.53969 13.7549 6.68493 13.257C6.50276 13.1505 6.41495 13.1533 6.41588 13.3972C6.41962 14.9796 6.41869 16.5621 6.41588 18.1446C6.41588 18.2987 6.46353 18.408 6.60272 18.4874C7.53035 19.0199 8.45424 19.5561 9.40335 20.1054Z" fill="white"/>
</svg>
