<svg width="12" height="12" viewBox="0 0 12 12" fill="none" xmlns="http://www.w3.org/2000/svg">
<path d="M5.9999 4.7998C5.6399 4.7998 5.3999 5.0398 5.3999 5.3998V8.3998C5.3999 8.7598 5.6399 8.9998 5.9999 8.9998C6.3599 8.9998 6.5999 8.7598 6.5999 8.3998V5.3998C6.5999 5.0398 6.3599 4.7998 5.9999 4.7998Z" fill="#E83647"/>
<path d="M5.9999 4.2C6.33127 4.2 6.5999 3.93137 6.5999 3.6C6.5999 3.26863 6.33127 3 5.9999 3C5.66853 3 5.3999 3.26863 5.3999 3.6C5.3999 3.93137 5.66853 4.2 5.9999 4.2Z" fill="#E83647"/>
<path d="M6 0C2.7 0 0 2.7 0 6C0 9.3 2.7 12 6 12C9.3 12 12 9.3 12 6C12 2.7 9.3 0 6 0ZM6 10.8C3.36 10.8 1.2 8.64 1.2 6C1.2 3.36 3.36 1.2 6 1.2C8.64 1.2 10.8 3.36 10.8 6C10.8 8.64 8.64 10.8 6 10.8Z" fill="#E83647"/>
</svg>
