<svg width="34" height="35" viewBox="0 0 34 35" fill="none" xmlns="http://www.w3.org/2000/svg">
<path d="M24.7909 19.3552C24.7909 20.5547 24.6556 21.4158 24.1692 22.1837C23.5695 23.1308 22.6645 23.4462 21.5802 23.5038C19.9557 23.5898 18.3358 23.7607 16.7131 23.8896C15.4195 23.992 14.125 24.0852 12.8305 24.1812C12.6404 24.195 12.3744 24.1566 12.2957 24.3028C12.2217 24.4409 12.4429 24.6091 12.5426 24.7563C13.8252 26.6559 15.1087 28.5547 16.4014 30.4471C16.9334 31.226 17.1354 32.0579 16.8767 32.9767C16.5796 34.0335 15.8538 34.656 14.8161 34.9129C13.6752 35.1954 12.7492 34.7602 12.005 33.9228C11.6512 33.5252 11.3742 33.058 11.0725 32.6155C9.75794 30.683 8.44334 28.7504 7.13971 26.8104C6.98886 26.5865 6.88739 26.549 6.63325 26.6852C3.75812 28.2265 0.47984 26.3415 0.049257 23.236C-0.204887 21.4021 0.533777 19.9696 2.04859 18.9292C2.92255 18.3295 3.80109 17.7353 4.68511 17.1493C4.90269 17.0049 5.05261 16.8257 5.16689 16.5926C6.84717 13.1753 8.57133 9.78002 10.1995 6.3381C10.9171 4.82146 12.3268 4.36528 13.731 4.67245C15.1837 4.99058 16.4288 5.72194 17.545 6.66264C21.007 9.57981 23.4013 13.1918 24.5322 17.6018C24.7049 18.2747 24.7927 18.9658 24.789 19.3571L24.7909 19.3552ZM23.3126 19.4046C23.2934 18.5096 23.1453 17.6338 22.851 16.7909C21.6223 13.2658 19.5772 10.2911 16.7423 7.86937C15.7751 7.04294 14.7074 6.36187 13.4339 6.08395C12.3305 5.84261 11.4848 6.41946 11.2993 7.53203C11.1365 8.50656 11.2353 9.46828 11.4967 10.4072C12.6194 14.4305 14.85 17.738 18.0478 20.3983C18.9099 21.116 19.8634 21.7047 20.9769 21.9698C21.9112 22.192 22.6635 21.8043 23.0466 20.9094C23.2523 20.4303 23.3163 19.9239 23.3117 19.4055L23.3126 19.4046ZM9.93621 10.1823C9.92067 10.1941 9.89598 10.2042 9.88684 10.2216C8.74685 12.5427 7.60777 14.8647 6.46595 17.1859C6.39464 17.3303 6.42847 17.44 6.51257 17.5634C7.69279 19.2967 8.87118 21.0309 10.0468 22.767C10.1382 22.9023 10.2342 22.9599 10.4134 22.9407C11.0579 22.873 11.7052 22.8264 12.3515 22.778C13.9513 22.6573 15.5512 22.5403 17.151 22.4196C17.4865 22.394 17.8211 22.3556 18.1831 22.3209C13.9925 19.2218 11.2417 15.1929 9.9353 10.1832L9.93621 10.1823ZM4.61929 25.7939C5.17237 25.8295 5.73825 25.611 6.26026 25.2582C7.02543 24.7416 7.78329 24.2141 8.55487 23.7077C8.76879 23.5669 8.7889 23.4581 8.64537 23.2478C7.60137 21.7248 6.56559 20.1972 5.53439 18.665C5.41555 18.4877 5.32413 18.4346 5.13123 18.5699C4.3176 19.1358 3.48112 19.6706 2.67846 20.2521C1.59972 21.0328 1.18194 22.3373 1.57961 23.5541C2.02391 24.9144 3.17944 25.792 4.61929 25.7948V25.7939ZM15.5704 32.1475C15.5374 31.8559 15.4332 31.5624 15.2486 31.2909C13.7566 29.095 12.2692 26.8955 10.7782 24.6978C10.5195 24.3165 10.2818 24.2699 9.89233 24.5295C9.40872 24.8513 8.93974 25.1978 8.44608 25.5022C8.17182 25.6714 8.16817 25.8058 8.34278 26.0608C9.70858 28.0528 11.0607 30.0558 12.4182 32.0542C12.6486 32.3934 12.8689 32.7417 13.1258 33.0598C13.5134 33.5389 14.1067 33.6824 14.6644 33.4712C15.1992 33.2683 15.5768 32.7289 15.5685 32.1475H15.5704Z" fill="white"/>
<path d="M25.8604 9.59749C25.5422 9.5591 25.2826 9.4302 25.1766 9.11206C25.0687 8.78752 25.1455 8.49498 25.4307 8.29477C25.7936 8.03971 26.1703 7.80385 26.5415 7.55976C27.7125 6.79093 28.879 6.01662 30.0556 5.25693C30.5822 4.91593 31.1407 5.13168 31.2413 5.69665C31.3071 6.06415 31.1051 6.29636 30.8199 6.48377C29.5244 7.33213 28.2309 8.18324 26.9364 9.03344C26.727 9.17057 26.5177 9.30769 26.3065 9.44299C26.1703 9.52984 26.0222 9.5847 25.8613 9.59932L25.8604 9.59749Z" fill="white"/>
<path d="M26.9951 12.6094C27.8462 12.7593 28.6982 12.9074 29.5493 13.061C30.5239 13.2365 31.4975 13.4166 32.4711 13.5958C32.9318 13.6799 33.1787 13.9797 33.1311 14.392C33.0836 14.8025 32.7353 15.0713 32.2572 15.0009C31.481 14.8866 30.7094 14.733 29.9369 14.595C28.9286 14.414 27.9202 14.2348 26.9137 14.0474C26.3076 13.934 26.0489 13.3499 26.3963 12.8973C26.5471 12.7008 26.7483 12.6149 26.996 12.6103L26.9951 12.6094Z" fill="white"/>
<path d="M23.6892 0.794462C23.5621 2.02862 23.4414 3.21706 23.3171 4.40551C23.2659 4.89186 23.2257 5.38003 23.1507 5.86272C23.084 6.29331 22.7375 6.55294 22.3636 6.49717C21.9796 6.43958 21.7054 6.10224 21.7456 5.68263C21.8581 4.49327 21.987 3.30574 22.1113 2.1173C22.1625 1.63095 22.2027 1.14277 22.2758 0.659163C22.3417 0.223095 22.6808 -0.0456775 23.0483 0.00643126C23.4497 0.063111 23.7029 0.392219 23.6901 0.794462H23.6892Z" fill="white"/>
<path d="M16.0119 11.1987C18.1876 11.2179 19.8469 12.8909 19.782 14.9752C19.7454 16.1564 19.2417 17.1254 18.2891 17.8412C17.885 18.1447 17.4508 18.1146 17.1948 17.7845C16.916 17.4253 16.9983 17.0349 17.4243 16.6966C18.3988 15.9251 18.621 14.6114 17.9472 13.6122C17.2735 12.613 15.9689 12.3259 14.8956 12.9439C14.7357 13.0362 14.5748 13.1304 14.3874 13.1203C14.0637 13.103 13.827 12.954 13.7154 12.6331C13.5957 12.2903 13.7191 12.0197 13.9915 11.8259C14.6132 11.3834 15.3098 11.1667 16.0119 11.196V11.1987Z" fill="white"/>
</svg>
