<svg width="30" height="30" viewBox="0 0 30 30" fill="none" xmlns="http://www.w3.org/2000/svg">
<rect width="30" height="30" rx="3" fill="url(#paint0_linear_143_1734)"/>
<path d="M10.3245 5H19.894C20.1067 5.10633 20.4256 5.10633 20.6383 5.21265C21.5715 5.36389 22.4439 5.77238 23.1577 6.39223C23.8715 7.01207 24.3982 7.8187 24.6787 8.72146C24.8358 9.24169 24.9426 9.77577 24.9977 10.3164V19.6732C24.8457 20.859 24.4078 21.9902 23.7218 22.9693C23.1332 23.6512 22.3954 24.1883 21.5655 24.5386C20.7357 24.889 19.8362 25.0433 18.9371 24.9896H10.9625C9.53935 25.0586 8.14009 24.6048 7.02838 23.7136C6.35235 23.1295 5.81886 22.3986 5.46871 21.5766C5.11856 20.7547 4.96103 19.8636 5.00816 18.9714V11.5285C4.99059 10.9947 5.02621 10.4604 5.11449 9.93359C5.22185 8.84351 5.67006 7.815 6.3954 6.99421C7.12075 6.17343 8.08633 5.60214 9.15493 5.36151L10.3245 5ZM7.02838 15.1011V19.2479C6.98305 19.7759 7.05369 20.3075 7.23537 20.8054C7.41704 21.3033 7.70536 21.7555 8.08013 22.1302C8.4549 22.505 8.90706 22.7933 9.40495 22.975C9.90285 23.1567 10.4344 23.2273 10.9625 23.182C13.727 23.2883 16.4915 23.2883 19.256 23.182C21.7016 23.182 23.0838 21.6934 23.1902 19.2479C23.2965 16.4834 23.2965 13.7189 23.1902 10.9543C23.2177 10.4304 23.1348 9.90661 22.9468 9.41682C22.7589 8.92704 22.4701 8.48224 22.0991 8.11128C21.7281 7.74032 21.2833 7.45149 20.7935 7.26353C20.3038 7.07556 19.7799 6.99267 19.256 7.02022C16.4915 6.91389 13.727 6.91389 10.9625 7.02022C10.4344 6.97489 9.90285 7.04553 9.40495 7.22721C8.90706 7.40888 8.4549 7.6972 8.08013 8.07197C7.70536 8.44674 7.41704 8.8989 7.23537 9.39679C7.05369 9.89469 6.98305 10.4263 7.02838 10.9543V15.1011Z" fill="white"/>
<path d="M9.94165 15.1436C9.94446 13.7627 10.4943 12.4391 11.4707 11.4627C12.4472 10.4862 13.7708 9.9364 15.1517 9.93359C16.525 9.9608 17.8344 10.5184 18.8057 11.4897C19.7769 12.4609 20.3345 13.7704 20.3617 15.1436C20.3589 16.5246 19.8091 17.8481 18.8326 18.8246C17.8562 19.8011 16.5326 20.3509 15.1517 20.3537C13.7784 20.3265 12.469 19.7688 11.4977 18.7976C10.5265 17.8264 9.96885 16.5169 9.94165 15.1436ZM15.1517 11.8475C14.5059 11.837 13.8717 12.0196 13.3303 12.3718C12.7889 12.7241 12.365 13.23 12.113 13.8247C11.861 14.4194 11.7923 15.0758 11.9157 15.7098C12.0392 16.3438 12.3491 16.9265 12.8058 17.3832C13.2625 17.8399 13.8452 18.1498 14.4792 18.2733C15.1132 18.3967 15.7696 18.328 16.3643 18.076C16.959 17.824 17.4649 17.4001 17.8172 16.8587C18.1694 16.3174 18.352 15.6831 18.3415 15.0373C18.3415 14.1913 18.0054 13.38 17.4072 12.7818C16.809 12.1836 15.9977 11.8475 15.1517 11.8475Z" fill="white"/>
<path d="M19.1922 9.72102C19.1862 9.55187 19.2152 9.3833 19.2772 9.22581C19.3392 9.06832 19.433 8.92528 19.5527 8.80559C19.6723 8.6859 19.8154 8.59213 19.9729 8.53011C20.1304 8.4681 20.2989 8.43916 20.4681 8.4451C20.7991 8.46749 21.1108 8.6091 21.3454 8.84371C21.58 9.07831 21.7216 9.39 21.744 9.72102C21.744 10.0594 21.6096 10.384 21.3703 10.6232C21.131 10.8625 20.8065 10.997 20.4681 10.997C20.1297 10.997 19.8052 10.8625 19.5659 10.6232C19.3266 10.384 19.1922 10.0594 19.1922 9.72102Z" fill="white"/>
<defs>
<linearGradient id="paint0_linear_143_1734" x1="31" y1="-2" x2="-1" y2="31.5" gradientUnits="userSpaceOnUse">
<stop stop-color="#794FB3"/>
<stop offset="0.286015" stop-color="#C13595"/>
<stop offset="0.683015" stop-color="#DB5358"/>
<stop offset="1" stop-color="#FAA455"/>
</linearGradient>
</defs>
</svg>
