<svg width="26" height="26" viewBox="0 0 26 26" fill="none" xmlns="http://www.w3.org/2000/svg">
<path d="M17.25 8.60003C17.4489 8.60003 17.6397 8.51574 17.7803 8.36571C17.921 8.21568 18 8.01219 18 7.80002C18 7.58784 17.921 7.38435 17.7803 7.23432C17.6397 7.08429 17.4489 7 17.25 7H9.75C9.55109 7 9.36033 7.08429 9.21967 7.23432C9.07902 7.38435 9 7.58784 9 7.80002C9 8.01219 9.07902 8.21568 9.21967 8.36571C9.36033 8.51574 9.55109 8.60003 9.75 8.60003H12C12.4637 8.60208 12.9155 8.7569 13.2935 9.04331C13.6716 9.32972 13.9574 9.73373 14.112 10.2001H9.75C9.55109 10.2001 9.36033 10.2844 9.21967 10.4344C9.07902 10.5844 9 10.7879 9 11.0001C9 11.2123 9.07902 11.4157 9.21967 11.5658C9.36033 11.7158 9.55109 11.8001 9.75 11.8001H14.112C13.9574 12.2664 13.6716 12.6704 13.2935 12.9568C12.9155 13.2433 12.4637 13.3981 12 13.4001H9.75C9.58715 13.4001 9.42872 13.4567 9.29865 13.5612C9.16859 13.6658 9.07396 13.8126 9.02906 13.9796C8.98417 14.1466 8.99144 14.3246 9.0498 14.4868C9.10815 14.649 9.2144 14.7865 9.3525 14.8786L15.3525 18.8786C15.5216 18.9911 15.7256 19.0273 15.9197 18.9793C16.1138 18.9313 16.2821 18.803 16.3875 18.6226C16.4929 18.4423 16.5269 18.2246 16.4819 18.0176C16.4368 17.8106 16.3166 17.6311 16.1475 17.5186L12.3405 14.9802C13.1425 14.9016 13.8996 14.5501 14.5 13.9775C15.1005 13.4049 15.5124 12.6415 15.675 11.8001H17.25C17.4489 11.8001 17.6397 11.7158 17.7803 11.5658C17.921 11.4157 18 11.2123 18 11.0001C18 10.7879 17.921 10.5844 17.7803 10.4344C17.6397 10.2844 17.4489 10.2001 17.25 10.2001H15.675C15.5593 9.61793 15.3222 9.07106 14.9813 8.60003H17.25Z" fill="white"/>
<circle cx="13" cy="13" r="12" stroke="white" stroke-width="2"/>
</svg>
