<svg width="23" height="29" viewBox="0 0 23 29" fill="none" xmlns="http://www.w3.org/2000/svg">
<path d="M20.9824 9.97952C20.9656 11.5778 20.4834 13.0636 19.8072 14.4974C18.719 16.8039 17.2141 18.8309 15.5743 20.7654C14.6146 21.8983 13.5895 22.9697 12.5229 24.0027C11.9569 24.5512 11.4428 24.556 10.8839 24.0139C8.52554 21.7242 6.37316 19.2637 4.6471 16.4542C3.721 14.9469 2.94739 13.367 2.59371 11.6146C2.12747 9.3073 2.57535 7.15092 3.80403 5.17737C5.38399 2.64098 7.69684 1.168 10.6628 0.814328C14.2626 0.384809 17.8632 2.12524 19.7713 5.46558C20.5672 6.85952 20.9536 8.36762 20.9816 9.97952H20.9824ZM18.9793 9.85258C18.9953 9.53882 18.9394 9.08615 18.8515 8.63587C18.1218 4.88198 14.5707 2.23381 10.6149 2.823C8.60138 3.12239 6.97512 4.12513 5.78077 5.78014C4.68702 7.29543 4.24233 8.99593 4.47386 10.8569C4.62634 12.0808 5.10217 13.1977 5.67938 14.2723C7.21144 17.1233 9.28478 19.5606 11.5242 21.8687C11.6942 22.0444 11.7845 21.9533 11.9066 21.8288C12.8559 20.862 13.7644 19.8592 14.6202 18.8086C15.9631 17.16 17.1965 15.4387 18.0963 13.5011C18.612 12.3914 18.9881 11.2441 18.9785 9.85337L18.9793 9.85258Z" fill="#CCCBCB"/>
<path d="M11.9597 26.2547C13.9588 26.2172 16.1759 25.9777 18.2836 25.1203C19.0612 24.8041 19.8044 24.4201 20.404 23.811C21.0571 23.1475 21.0667 22.4697 20.4256 21.7871C19.9114 21.2402 19.2727 20.8762 18.5933 20.5784C18.2596 20.4323 17.993 20.2375 17.8844 19.8655C17.775 19.491 17.8676 19.1685 18.1287 18.9042C18.3985 18.6312 18.7434 18.5066 19.1131 18.6527C20.3162 19.1278 21.398 19.7872 22.1868 20.8419C23.1799 22.1687 23.1121 23.68 22.0303 24.9486C21.2263 25.8915 20.1861 26.4831 19.0612 26.9453C17.5587 27.5625 15.9883 27.8986 14.3804 28.0838C13.3712 28.1996 12.3581 28.2722 11.3434 28.2435C8.93316 28.1764 6.56601 27.8563 4.31384 26.9365C3.25361 26.5038 2.26045 25.9578 1.49083 25.0875C0.159165 23.581 0.169543 21.9412 1.52356 20.457C2.27562 19.6323 3.21449 19.0719 4.24438 18.6647C4.7202 18.4763 5.25111 18.7222 5.46507 19.1892C5.67983 19.6571 5.49701 20.2167 5.02119 20.4674C4.66991 20.6534 4.30027 20.8043 3.95936 21.0119C3.55699 21.2562 3.17697 21.5284 2.87599 21.8941C2.34588 22.5368 2.37142 23.1611 2.94305 23.7631C3.47476 24.3227 4.1358 24.69 4.83038 24.9989C6.14129 25.5825 7.52405 25.8987 8.94274 26.0751C9.86165 26.1893 10.7838 26.2515 11.9613 26.2547H11.9597Z" fill="#CCCBCB"/>
<path d="M11.7059 5.87104C14.0107 5.87104 15.9013 7.72085 15.8829 10.0137C15.8629 12.4647 13.9149 14.2179 11.6883 14.2155C9.3978 14.2131 7.48174 12.317 7.51207 10.0257C7.5464 7.42066 9.70358 5.7976 11.7067 5.87104H11.7059ZM11.7043 12.214C12.9194 12.2124 13.887 11.2472 13.8902 10.0337C13.8926 8.83776 12.909 7.84859 11.7051 7.83661C10.5059 7.82464 9.50239 8.83456 9.50478 10.0489C9.50718 11.2536 10.4852 12.2156 11.7043 12.214Z" fill="#CCCBCB"/>
</svg>
