<svg width="28" height="20" viewBox="0 0 28 20" fill="none" xmlns="http://www.w3.org/2000/svg">
<path d="M26.9473 7.47367H19.5488V2.84961H24.4715C24.6564 2.84961 24.837 2.90499 24.99 3.00861C25.1431 3.11224 25.2616 3.25934 25.3302 3.43095L26.9473 7.47367Z" stroke="white" stroke-width="2" stroke-linecap="round" stroke-linejoin="round"/>
<path d="M1.05267 10.2485H19.5489" stroke="white" stroke-width="2" stroke-linecap="round" stroke-linejoin="round"/>
<path d="M20.9361 18.5716C22.4684 18.5716 23.7106 17.3294 23.7106 15.7971C23.7106 14.2649 22.4684 13.0227 20.9361 13.0227C19.4038 13.0227 18.1617 14.2649 18.1617 15.7971C18.1617 17.3294 19.4038 18.5716 20.9361 18.5716Z" stroke="white" stroke-width="2" stroke-miterlimit="10"/>
<path d="M7.06393 18.5716C8.59621 18.5716 9.83837 17.3294 9.83837 15.7971C9.83837 14.2649 8.59621 13.0227 7.06393 13.0227C5.53165 13.0227 4.28949 14.2649 4.28949 15.7971C4.28949 17.3294 5.53165 18.5716 7.06393 18.5716Z" stroke="white" stroke-width="2" stroke-miterlimit="10"/>
<path d="M18.1616 15.7971H9.83832" stroke="white" stroke-width="2" stroke-linecap="round" stroke-linejoin="round"/>
<path d="M4.28952 15.797H1.97749C1.73221 15.797 1.49698 15.6996 1.32354 15.5261C1.15011 15.3527 1.05267 15.1175 1.05267 14.8722V1.92481C1.05267 1.67954 1.15011 1.44431 1.32354 1.27087C1.49698 1.09744 1.73221 1 1.97749 1H19.5489V13.3942M19.5489 13.3942V7.47369H26.9474V14.8722C26.9474 15.1175 26.85 15.3527 26.6766 15.5261C26.5031 15.6996 26.2679 15.797 26.0226 15.797H23.7106" stroke="white" stroke-width="2" stroke-linecap="round" stroke-linejoin="round"/>
</svg>
