<svg width="25" height="29" viewBox="0 0 25 29" fill="none" xmlns="http://www.w3.org/2000/svg">
<path d="M13.931 0.75C14.5877 1.18158 14.6895 1.56656 14.3124 2.26267C13.8399 3.13515 13.3646 4.00619 12.8771 4.87078C12.7667 5.06721 12.7882 5.17045 12.9689 5.30953C13.893 6.02213 14.2127 7.20646 13.7883 8.29043C13.7403 8.41302 13.6958 8.49475 13.85 8.5987C14.2737 8.88474 14.4005 9.34858 14.2041 9.76941C14.0105 10.1838 13.5603 10.3859 13.0735 10.2418C12.3036 10.0139 11.5222 9.90992 10.7199 9.93429C9.03736 9.98519 7.56412 10.5774 6.28587 11.6585C4.86138 12.8629 4.12081 14.4329 3.80107 16.2495C3.42971 18.3594 2.99957 20.4592 2.6024 22.5648C2.49559 23.1318 2.34288 23.691 2.45544 24.2861C2.66478 25.3944 3.6369 26.3034 4.7646 26.3916C6.01488 26.4891 7.2666 26.4153 8.51832 26.4332C8.88753 26.4389 9.15206 26.5974 9.32197 26.9164C9.49403 27.2383 9.46464 27.5559 9.26534 27.8555C9.10188 28.1014 8.87032 28.2419 8.56851 28.2419C7.26302 28.2419 5.95681 28.2642 4.65133 28.2348C2.97018 28.1961 1.27613 26.806 0.76784 25.1198C0.509753 24.2638 0.5499 23.4172 0.721241 22.5533C1.1944 20.1624 1.61522 17.7608 2.11347 15.3756C2.76156 12.2685 4.57605 10.0777 7.47451 8.78581C7.80715 8.63741 7.81073 8.64601 7.6781 8.32484C7.23219 7.24088 7.5548 6.025 8.50255 5.29877C8.68249 5.16113 8.68249 5.06363 8.58284 4.8844C8.06882 3.96318 7.5591 3.03908 7.06085 2.10925C6.78986 1.60384 6.93969 1.11562 7.42934 0.820257C7.46734 0.797316 7.50533 0.772941 7.54333 0.75C9.67182 0.75 11.8003 0.75 13.9295 0.75H13.931ZM10.7199 6.61215C10.497 6.61215 10.2733 6.60641 10.0504 6.61358C9.65534 6.62577 9.34922 6.92257 9.33201 7.3011C9.31409 7.69755 9.59225 8.05313 9.99085 8.07464C10.4805 8.10116 10.9737 8.09901 11.4641 8.07607C11.8433 8.05887 12.1473 7.69826 12.1387 7.33336C12.1294 6.94407 11.8168 6.6272 11.4168 6.61358C11.1845 6.6057 10.9522 6.61215 10.7199 6.61215V6.61215ZM10.7221 2.5394C10.3464 2.5394 9.97149 2.54298 9.59583 2.53797C9.43022 2.53582 9.41374 2.58456 9.49116 2.72364C9.83528 3.34018 10.1686 3.96174 10.5128 4.57828C10.6518 4.82777 10.806 4.83135 10.9415 4.58832C11.2813 3.98038 11.6103 3.36528 11.9487 2.75662C12.0376 2.59603 12.0125 2.53438 11.8211 2.53797C11.4548 2.54514 11.0884 2.54012 10.7221 2.54012V2.5394Z" fill="white"/>
<path d="M15.9769 28.2424C11.5292 28.2976 7.48653 24.65 7.48438 19.7478C7.48223 14.9029 11.4689 11.2195 16.0321 11.2417C20.4754 11.2632 24.4959 14.819 24.4973 19.7492C24.4987 24.7167 20.3987 28.3127 15.9769 28.2424ZM15.9991 26.415C19.7098 26.4043 22.6857 23.4126 22.6563 19.6811C22.6262 15.913 19.4976 13.0741 15.9704 13.0841C12.3393 13.0942 9.28955 16.1123 9.32467 19.8044C9.35909 23.4492 12.3436 26.4258 15.9991 26.4157V26.415Z" fill="white"/>
<path d="M12.8944 21.9514C12.8893 21.6768 12.9833 21.4603 13.1618 21.2818C14.6142 19.8272 16.0652 18.3711 17.5241 16.9223C17.902 16.5473 18.4619 16.5588 18.8246 16.9187C19.1953 17.2872 19.1967 17.8356 18.8024 18.2378C18.1213 18.9339 17.4274 19.6185 16.7384 20.3068C15.9928 21.0524 15.2508 21.8022 14.4995 22.5421C13.9919 23.0418 13.2413 22.9156 12.9668 22.2962C12.9152 22.1801 12.8865 22.0596 12.8944 21.9506V21.9514Z" fill="white"/>
<path d="M17.8027 23.1442C17.1395 23.1399 16.5925 22.5865 16.5997 21.9269C16.6068 21.2645 17.1696 20.7103 17.8206 20.7254C18.493 20.7412 19.0329 21.286 19.0293 21.9449C19.0257 22.598 18.4629 23.1478 17.8027 23.1435V23.1442Z" fill="white"/>
<path d="M14.1714 16.3512C14.826 16.3512 15.3851 16.9104 15.3873 17.5649C15.3894 18.2094 14.8145 18.7822 14.1686 18.7794C13.519 18.7765 12.9512 18.2073 12.9541 17.5621C12.957 16.9061 13.5162 16.3512 14.1714 16.3512Z" fill="white"/>
</svg>
