<svg width="44" height="42" viewBox="0 0 44 42" fill="none" xmlns="http://www.w3.org/2000/svg">
<path d="M42.9979 27.7124C41.2117 31.1198 38.7377 33.8352 35.6392 35.925C35.2534 36.1847 34.861 36.3902 34.386 36.2544C33.8051 36.0891 33.4461 35.6912 33.3413 35.0667C33.2376 34.4468 33.4996 33.9757 33.9601 33.6239C34.3436 33.3311 34.7495 33.0725 35.1341 32.7821C36.9994 31.3724 38.5637 29.6558 39.8415 27.6404C40.0165 27.3641 40.0132 27.1705 39.8381 26.8966C37.3863 23.0654 34.0236 20.4998 29.9674 18.8942C26.7642 17.6262 23.4394 17.1763 20.0466 17.4077C15.2467 17.7348 10.885 19.3605 7.11537 22.5955C5.66816 23.8363 4.43726 25.2885 3.39812 26.9273C3.22754 27.1965 3.25764 27.383 3.41596 27.6345C5.73618 31.3275 8.90933 33.8754 12.7905 35.4704C14.9959 36.3772 17.2837 36.899 19.6441 37.0844C21.6767 37.2438 23.6981 37.1836 25.7106 36.8282C26.6137 36.6688 27.3005 37.1635 27.4476 38.0407C27.5781 38.8176 27.0407 39.5165 26.1643 39.683C25.686 39.7739 25.2033 39.8471 24.7205 39.9038C21.2128 40.317 17.7531 40.0325 14.3514 39.0407C10.002 37.7739 6.22564 35.4752 3.1506 31.9521C2.12819 30.7809 1.25741 29.4857 0.493668 28.1103C0.171447 27.5306 0.187061 26.9757 0.505937 26.4007C2.49613 22.8104 5.23111 20.0264 8.63729 17.9709C11.9164 15.9921 15.4597 14.8788 19.2059 14.5565C25.2055 14.0382 30.8304 15.3121 35.9246 18.8056C38.906 20.8505 41.2798 23.5235 43.0001 26.8281V27.7124H42.9979Z" fill="white" stroke="#E83647" stroke-width="0.4"/>
<path d="M13.4448 27.3165C13.4482 22.8879 16.5489 19.1972 20.6474 18.6695C25.134 18.0921 29.2237 21.4865 29.7555 26.2114C29.9829 28.2362 29.586 30.1087 28.5714 31.8266C28.3518 32.1985 28.4086 32.3909 28.6807 32.6755C30.4523 34.5279 32.2073 36.3969 33.9678 38.2623C34.2443 38.5563 34.5108 38.8585 34.5732 39.293C34.6657 39.9341 34.3993 40.5173 33.8752 40.8184C33.3468 41.1218 32.7502 41.0463 32.2976 40.5799C31.3532 39.6035 30.4111 38.6236 29.4868 37.6259C28.5424 36.607 27.5323 35.6578 26.637 34.5893C26.4463 34.3626 26.2869 34.3874 26.0639 34.5409C24.6457 35.5114 23.087 35.9683 21.3989 35.9388C17.4709 35.8703 13.9655 32.5102 13.5184 28.3897C13.4772 28.0096 13.427 27.6306 13.4437 27.3177L13.4448 27.3165ZM21.6509 21.5254C18.5959 21.5195 16.211 24.0261 16.2066 27.2445C16.2021 30.4771 18.5736 33.0096 21.6085 33.0131C24.6568 33.0167 27.0506 30.5019 27.0562 27.2894C27.0618 24.0568 24.6925 21.5302 21.652 21.5243L21.6509 21.5254Z" fill="white" stroke="#E83647" stroke-width="0.4"/>
<path d="M34.735 5.82388C34.7205 6.02814 34.6658 6.25836 34.5543 6.4638C33.4093 8.56653 32.2687 10.6728 31.108 12.7661C30.7947 13.3304 30.2227 13.563 29.6809 13.4272C29.0833 13.2773 28.6997 12.8322 28.5971 12.1781C28.5414 11.8239 28.6384 11.5063 28.8001 11.2088C29.9039 9.18282 31.0066 7.15565 32.1193 5.13439C32.5017 4.43899 33.0826 4.17688 33.7326 4.37051C34.3068 4.54052 34.7394 5.15328 34.735 5.82507V5.82388Z" fill="white" stroke="#E83647" stroke-width="0.4"/>
<path d="M13.4359 13.4609C12.6231 13.4373 12.2541 12.9815 11.9497 12.4207C11.1826 11.0028 10.4111 9.58718 9.64063 8.17158C9.34963 7.63557 9.0497 7.10428 8.76539 6.56472C8.35062 5.77605 8.55244 4.92126 9.24371 4.49741C9.89707 4.09599 10.7088 4.34865 11.1347 5.12197C12.2619 7.17039 13.3846 9.22118 14.4896 11.2826C15.018 12.2684 14.3468 13.4668 13.4359 13.4621V13.4609Z" fill="white" stroke="#E83647" stroke-width="0.4"/>
<path d="M20.2752 6.05325C20.2752 4.87733 20.2707 3.70022 20.2752 2.5243C20.2796 1.59041 20.8248 0.99182 21.6499 1.00008C22.4359 1.00717 22.9879 1.62701 22.989 2.52548C22.9934 4.87851 22.9923 7.23035 22.9879 9.58338C22.9856 10.4523 22.3969 11.1041 21.6332 11.1052C20.8739 11.1052 20.2807 10.4476 20.2763 9.58338C20.2707 8.40746 20.2752 7.23035 20.2741 6.05443L20.2752 6.05325Z" fill="white" stroke="#E83647" stroke-width="0.4"/>
</svg>
