<svg width="15" height="15" viewBox="0 0 15 15" fill="none" xmlns="http://www.w3.org/2000/svg">
<path d="M13.35 8.8C13.1776 8.8 13.0123 8.86848 12.8904 8.99038C12.7685 9.11228 12.7 9.27761 12.7 9.45V12.05C12.7 12.2224 12.6315 12.3877 12.5096 12.5096C12.3877 12.6315 12.2224 12.7 12.05 12.7H2.95C2.77761 12.7 2.61228 12.6315 2.49038 12.5096C2.36848 12.3877 2.3 12.2224 2.3 12.05V9.45C2.3 9.27761 2.23152 9.11228 2.10962 8.99038C1.98772 8.86848 1.82239 8.8 1.65 8.8C1.47761 8.8 1.31228 8.86848 1.19038 8.99038C1.06848 9.11228 1 9.27761 1 9.45V12.05C1 12.5672 1.20545 13.0632 1.57114 13.4289C1.93684 13.7946 2.43283 14 2.95 14H12.05C12.5672 14 13.0632 13.7946 13.4289 13.4289C13.7946 13.0632 14 12.5672 14 12.05V9.45C14 9.27761 13.9315 9.11228 13.8096 8.99038C13.6877 8.86848 13.5224 8.8 13.35 8.8ZM7.0385 9.9115C7.10032 9.97068 7.17321 10.0171 7.253 10.048C7.3308 10.0824 7.41493 10.1002 7.5 10.1002C7.58507 10.1002 7.66919 10.0824 7.747 10.048C7.82679 10.0171 7.89968 9.97068 7.9615 9.9115L10.5615 7.3115C10.6839 7.1891 10.7527 7.0231 10.7527 6.85C10.7527 6.6769 10.6839 6.5109 10.5615 6.3885C10.4391 6.2661 10.2731 6.19734 10.1 6.19734C9.9269 6.19734 9.7609 6.2661 9.6385 6.3885L8.15 7.8835V1.65C8.15 1.47761 8.08152 1.31228 7.95962 1.19038C7.83772 1.06848 7.67239 1 7.5 1C7.32761 1 7.16228 1.06848 7.04038 1.19038C6.91848 1.31228 6.85 1.47761 6.85 1.65V7.8835L5.3615 6.3885C5.30089 6.32789 5.22895 6.27982 5.14976 6.24702C5.07058 6.21422 4.98571 6.19734 4.9 6.19734C4.81429 6.19734 4.72942 6.21422 4.65024 6.24702C4.57105 6.27982 4.4991 6.32789 4.4385 6.3885C4.37789 6.4491 4.32982 6.52105 4.29702 6.60024C4.26422 6.67942 4.24734 6.76429 4.24734 6.85C4.24734 6.93571 4.26422 7.02058 4.29702 7.09976C4.32982 7.17895 4.37789 7.25089 4.4385 7.3115L7.0385 9.9115Z" fill="white" stroke="white" stroke-width="0.2"/>
</svg>
