<svg width="62" height="39" viewBox="0 0 62 39" fill="none" xmlns="http://www.w3.org/2000/svg">
<mask id="path-1-inside-1_143_1563" fill="white">
<path d="M0.00322679 0.763438C0.372334 0.189743 0.892955 -0.0391023 1.58765 0.00539477C5.33836 0.250129 9.07295 0.585448 12.6915 1.67563C13.2685 1.85044 13.8246 2.07928 14.3581 2.36056C15.185 2.796 15.6572 3.42531 15.4719 4.38518C15.3639 4.94457 15.5992 5.03834 16.1102 5.03516C19.0662 5.0145 22.0223 5.01926 24.9768 5.03039C25.3975 5.03039 25.7472 4.93345 26.0922 4.68395C27.5347 3.63509 29.095 2.85957 30.9244 2.70065C32.4863 2.56398 33.9707 2.87546 35.3988 3.43326C37.9584 4.43286 40.4938 5.49125 43.0356 6.53058C43.466 6.70698 43.79 6.87702 43.798 6.13487C43.8061 5.50556 44.3654 5.22904 44.9069 5.01132C46.8331 4.23898 48.8382 3.73838 50.8739 3.36016C53.9396 2.79123 57.0359 2.51313 60.1564 2.51313C61.3395 2.51313 61.8182 2.9724 61.8182 4.1182C61.8182 11.5524 61.8182 18.9866 61.8182 26.4208C61.8182 27.5666 61.3379 28.0354 60.1628 28.037C57.8305 28.0402 55.4982 28.0402 53.1659 28.037C52.0409 28.037 51.6782 27.7636 51.351 26.6941C51.2113 26.2343 50.9422 26.1358 50.5435 26.3985C50.4436 26.4653 50.3517 26.5495 50.2437 26.5972C49.4877 26.9404 49.2315 27.4744 49.2379 28.3278C49.2508 30.2444 47.4359 31.9718 45.3228 32.1863C45.0198 32.2165 44.8167 32.2849 44.6474 32.5677C43.6804 34.176 42.191 34.9277 40.3326 34.9213C39.6975 34.9197 39.3445 35.112 38.9625 35.6126C37.7634 37.1827 36.1644 37.8756 34.1529 37.4449C33.974 37.4068 33.8063 37.383 33.6306 37.4863C32.0124 38.4398 30.3248 38.292 28.6243 37.7644C27.5815 37.4418 26.6144 36.965 25.7311 36.323C21.766 33.4402 17.8638 30.4796 14.1228 27.3155C12.9768 26.3445 12.0081 25.1987 10.9491 24.1387C10.6267 23.8161 10.5268 23.8495 10.3898 24.2738C10.0787 25.2384 9.65481 25.5197 8.60713 25.5229C6.29417 25.5277 3.98282 25.5165 1.66985 25.5292C0.947758 25.5324 0.373942 25.3036 0 24.6727V0.761847L0.00322679 0.763438ZM22.6122 7.70498C20.0978 7.70498 17.7284 7.70816 15.359 7.7018C15.0286 7.7018 14.919 7.85437 14.8562 8.15632C13.9922 12.3104 12.8382 16.3915 11.6003 20.4502C11.5052 20.7633 11.5632 20.9651 11.7889 21.186C13.1976 22.5718 14.5193 24.0545 16.0118 25.3465C19.6836 28.5265 23.5793 31.4331 27.5283 34.2713C28.3374 34.853 29.2562 35.1947 30.2216 35.4187C30.5343 35.4918 30.8632 35.5204 31.1904 35.4267C30.4602 34.6893 29.7671 34.0012 29.0869 33.3004C28.0586 32.2404 27.0157 31.1931 26.0245 30.1013C25.4829 29.5054 25.5699 28.7315 26.1308 28.2372C26.6611 27.7684 27.4203 27.7779 27.9909 28.2912C28.331 28.598 28.6308 28.9476 28.9515 29.2765C30.6375 31.0056 32.2977 32.76 34.1303 34.3413C35.099 35.1772 36.1338 34.9928 36.8752 33.9201C37.0767 33.6277 37.0413 33.4481 36.7818 33.2177C36.1999 32.7012 35.6309 32.1673 35.0829 31.6158C33.8466 30.3683 32.6184 29.1129 31.3999 27.8479C30.7004 27.12 30.6568 26.3191 31.2532 25.7454C31.8625 25.159 32.641 25.24 33.3647 25.9726C33.5468 26.157 33.7177 26.3525 33.8982 26.54C35.5552 28.269 37.2266 29.9853 39.0012 31.5983C39.9296 32.4406 40.966 32.4708 41.8622 31.7366C42.4006 31.2948 42.4183 31.1295 41.9154 30.6607C39.7072 28.6043 37.6409 26.4113 35.5052 24.2849C35.2795 24.0609 35.0587 23.8225 34.8895 23.5571C34.5639 23.0454 34.6606 22.4002 35.0845 21.9695C35.5278 21.5182 36.1274 21.4149 36.6802 21.7343C36.9188 21.8725 37.1283 22.068 37.3249 22.2635C38.6902 23.6365 40.0425 25.0223 41.4109 26.3906C42.3151 27.2932 43.2355 28.18 44.1591 29.062C44.4476 29.3385 44.7571 29.5896 45.2213 29.4974C46.2963 29.2845 46.8444 28.2404 46.3624 27.2631C46.2141 26.9627 46.0239 26.6766 45.8176 26.4113C44.8957 25.2257 43.7819 24.2198 42.6552 23.2329C39.2575 20.2595 35.5874 17.604 32.2042 14.6132C31.9382 14.378 31.7061 14.3589 31.3902 14.494C30.8567 14.7228 30.3216 14.9707 29.7607 15.1042C29.2594 15.2234 28.9177 15.4665 28.584 15.84C26.6289 18.0283 24.0129 18.7355 21.3969 17.7931C20.0785 17.3179 19.2661 16.4248 19.1275 14.9977C19.013 13.8106 19.3628 12.7252 19.848 11.6716C20.5104 10.235 21.4421 8.97474 22.6122 7.70817V7.70498ZM31.6497 5.40544C30.6165 5.34505 29.6543 5.6597 28.7436 6.16188C27.754 6.70697 26.8965 7.42528 26.0583 8.16743C24.5529 9.50076 23.1828 10.939 22.3302 12.784C22.0787 13.3275 21.8611 13.8742 21.8466 14.486C21.8353 14.9294 22.0143 15.1932 22.4494 15.314C23.6374 15.6445 24.7479 15.5635 25.7634 14.7991C26.2824 14.4082 26.6966 13.9298 27.0705 13.4117C27.2978 13.0971 27.5589 12.7935 27.9587 12.7475C29.2433 12.6013 30.3538 11.9688 31.5385 11.5476C32.1848 11.3172 32.7425 11.4141 33.2519 11.9004C34.738 13.3243 36.3579 14.5957 37.9536 15.8956C41.3432 18.6576 44.9102 21.2242 47.7921 24.5456C47.9759 24.7569 48.1403 24.7633 48.3595 24.6123C48.8366 24.2833 49.3088 23.9417 49.8101 23.6524C50.1776 23.4411 50.2308 23.2154 50.097 22.8276C48.6947 18.7784 47.2248 14.7546 45.6387 10.7737C45.5049 10.4368 45.3051 10.2238 44.9489 10.0967C41.5834 8.90164 38.2759 7.56514 34.9959 6.15712C33.9417 5.70421 32.8473 5.37047 31.6481 5.40702L31.6497 5.40544ZM59.1007 15.3315C59.1007 12.161 59.0926 8.99064 59.1103 5.82181C59.1135 5.31327 58.9282 5.16229 58.4366 5.20838C56.7796 5.36729 55.1146 5.41656 53.4657 5.66765C51.48 5.9696 49.5151 6.34465 47.589 6.92311C47.1442 7.0566 46.9814 7.19803 47.2393 7.65254C47.4827 8.08321 47.6503 8.55519 47.8389 9.01288C49.9729 14.1666 51.8362 19.4173 53.5753 24.7108C53.7301 25.1844 53.9428 25.3751 54.4618 25.3608C55.7271 25.3258 56.994 25.3497 58.2593 25.3497C58.8191 25.3497 59.0996 25.0811 59.1007 24.544C59.1007 21.4737 59.1007 18.4018 59.1007 15.3315ZM5.36253 22.8467C6.04594 22.8467 6.73097 22.8245 7.41277 22.8547C7.84474 22.8737 8.05266 22.7339 8.18322 22.3112C9.04554 19.5269 9.89498 16.7395 10.6541 13.925C11.4133 11.1122 12.1193 8.28822 12.5948 5.4118C12.7495 4.47895 12.7608 4.47577 11.855 4.21037C9.1068 3.40625 6.26999 3.1186 3.4364 2.81507C2.87065 2.75468 2.65629 2.92154 2.66435 3.51907C2.69497 5.73916 2.67724 7.95925 2.67724 10.1793C2.67724 14.1237 2.67724 18.068 2.67724 22.014C2.67724 22.567 2.9491 22.8446 3.49282 22.8467C4.1166 22.8467 4.73876 22.8467 5.36253 22.8467Z"/>
</mask>
<path d="M0.00322679 0.763438C0.372334 0.189743 0.892955 -0.0391023 1.58765 0.00539477C5.33836 0.250129 9.07295 0.585448 12.6915 1.67563C13.2685 1.85044 13.8246 2.07928 14.3581 2.36056C15.185 2.796 15.6572 3.42531 15.4719 4.38518C15.3639 4.94457 15.5992 5.03834 16.1102 5.03516C19.0662 5.0145 22.0223 5.01926 24.9768 5.03039C25.3975 5.03039 25.7472 4.93345 26.0922 4.68395C27.5347 3.63509 29.095 2.85957 30.9244 2.70065C32.4863 2.56398 33.9707 2.87546 35.3988 3.43326C37.9584 4.43286 40.4938 5.49125 43.0356 6.53058C43.466 6.70698 43.79 6.87702 43.798 6.13487C43.8061 5.50556 44.3654 5.22904 44.9069 5.01132C46.8331 4.23898 48.8382 3.73838 50.8739 3.36016C53.9396 2.79123 57.0359 2.51313 60.1564 2.51313C61.3395 2.51313 61.8182 2.9724 61.8182 4.1182C61.8182 11.5524 61.8182 18.9866 61.8182 26.4208C61.8182 27.5666 61.3379 28.0354 60.1628 28.037C57.8305 28.0402 55.4982 28.0402 53.1659 28.037C52.0409 28.037 51.6782 27.7636 51.351 26.6941C51.2113 26.2343 50.9422 26.1358 50.5435 26.3985C50.4436 26.4653 50.3517 26.5495 50.2437 26.5972C49.4877 26.9404 49.2315 27.4744 49.2379 28.3278C49.2508 30.2444 47.4359 31.9718 45.3228 32.1863C45.0198 32.2165 44.8167 32.2849 44.6474 32.5677C43.6804 34.176 42.191 34.9277 40.3326 34.9213C39.6975 34.9197 39.3445 35.112 38.9625 35.6126C37.7634 37.1827 36.1644 37.8756 34.1529 37.4449C33.974 37.4068 33.8063 37.383 33.6306 37.4863C32.0124 38.4398 30.3248 38.292 28.6243 37.7644C27.5815 37.4418 26.6144 36.965 25.7311 36.323C21.766 33.4402 17.8638 30.4796 14.1228 27.3155C12.9768 26.3445 12.0081 25.1987 10.9491 24.1387C10.6267 23.8161 10.5268 23.8495 10.3898 24.2738C10.0787 25.2384 9.65481 25.5197 8.60713 25.5229C6.29417 25.5277 3.98282 25.5165 1.66985 25.5292C0.947758 25.5324 0.373942 25.3036 0 24.6727V0.761847L0.00322679 0.763438ZM22.6122 7.70498C20.0978 7.70498 17.7284 7.70816 15.359 7.7018C15.0286 7.7018 14.919 7.85437 14.8562 8.15632C13.9922 12.3104 12.8382 16.3915 11.6003 20.4502C11.5052 20.7633 11.5632 20.9651 11.7889 21.186C13.1976 22.5718 14.5193 24.0545 16.0118 25.3465C19.6836 28.5265 23.5793 31.4331 27.5283 34.2713C28.3374 34.853 29.2562 35.1947 30.2216 35.4187C30.5343 35.4918 30.8632 35.5204 31.1904 35.4267C30.4602 34.6893 29.7671 34.0012 29.0869 33.3004C28.0586 32.2404 27.0157 31.1931 26.0245 30.1013C25.4829 29.5054 25.5699 28.7315 26.1308 28.2372C26.6611 27.7684 27.4203 27.7779 27.9909 28.2912C28.331 28.598 28.6308 28.9476 28.9515 29.2765C30.6375 31.0056 32.2977 32.76 34.1303 34.3413C35.099 35.1772 36.1338 34.9928 36.8752 33.9201C37.0767 33.6277 37.0413 33.4481 36.7818 33.2177C36.1999 32.7012 35.6309 32.1673 35.0829 31.6158C33.8466 30.3683 32.6184 29.1129 31.3999 27.8479C30.7004 27.12 30.6568 26.3191 31.2532 25.7454C31.8625 25.159 32.641 25.24 33.3647 25.9726C33.5468 26.157 33.7177 26.3525 33.8982 26.54C35.5552 28.269 37.2266 29.9853 39.0012 31.5983C39.9296 32.4406 40.966 32.4708 41.8622 31.7366C42.4006 31.2948 42.4183 31.1295 41.9154 30.6607C39.7072 28.6043 37.6409 26.4113 35.5052 24.2849C35.2795 24.0609 35.0587 23.8225 34.8895 23.5571C34.5639 23.0454 34.6606 22.4002 35.0845 21.9695C35.5278 21.5182 36.1274 21.4149 36.6802 21.7343C36.9188 21.8725 37.1283 22.068 37.3249 22.2635C38.6902 23.6365 40.0425 25.0223 41.4109 26.3906C42.3151 27.2932 43.2355 28.18 44.1591 29.062C44.4476 29.3385 44.7571 29.5896 45.2213 29.4974C46.2963 29.2845 46.8444 28.2404 46.3624 27.2631C46.2141 26.9627 46.0239 26.6766 45.8176 26.4113C44.8957 25.2257 43.7819 24.2198 42.6552 23.2329C39.2575 20.2595 35.5874 17.604 32.2042 14.6132C31.9382 14.378 31.7061 14.3589 31.3902 14.494C30.8567 14.7228 30.3216 14.9707 29.7607 15.1042C29.2594 15.2234 28.9177 15.4665 28.584 15.84C26.6289 18.0283 24.0129 18.7355 21.3969 17.7931C20.0785 17.3179 19.2661 16.4248 19.1275 14.9977C19.013 13.8106 19.3628 12.7252 19.848 11.6716C20.5104 10.235 21.4421 8.97474 22.6122 7.70817V7.70498ZM31.6497 5.40544C30.6165 5.34505 29.6543 5.6597 28.7436 6.16188C27.754 6.70697 26.8965 7.42528 26.0583 8.16743C24.5529 9.50076 23.1828 10.939 22.3302 12.784C22.0787 13.3275 21.8611 13.8742 21.8466 14.486C21.8353 14.9294 22.0143 15.1932 22.4494 15.314C23.6374 15.6445 24.7479 15.5635 25.7634 14.7991C26.2824 14.4082 26.6966 13.9298 27.0705 13.4117C27.2978 13.0971 27.5589 12.7935 27.9587 12.7475C29.2433 12.6013 30.3538 11.9688 31.5385 11.5476C32.1848 11.3172 32.7425 11.4141 33.2519 11.9004C34.738 13.3243 36.3579 14.5957 37.9536 15.8956C41.3432 18.6576 44.9102 21.2242 47.7921 24.5456C47.9759 24.7569 48.1403 24.7633 48.3595 24.6123C48.8366 24.2833 49.3088 23.9417 49.8101 23.6524C50.1776 23.4411 50.2308 23.2154 50.097 22.8276C48.6947 18.7784 47.2248 14.7546 45.6387 10.7737C45.5049 10.4368 45.3051 10.2238 44.9489 10.0967C41.5834 8.90164 38.2759 7.56514 34.9959 6.15712C33.9417 5.70421 32.8473 5.37047 31.6481 5.40702L31.6497 5.40544ZM59.1007 15.3315C59.1007 12.161 59.0926 8.99064 59.1103 5.82181C59.1135 5.31327 58.9282 5.16229 58.4366 5.20838C56.7796 5.36729 55.1146 5.41656 53.4657 5.66765C51.48 5.9696 49.5151 6.34465 47.589 6.92311C47.1442 7.0566 46.9814 7.19803 47.2393 7.65254C47.4827 8.08321 47.6503 8.55519 47.8389 9.01288C49.9729 14.1666 51.8362 19.4173 53.5753 24.7108C53.7301 25.1844 53.9428 25.3751 54.4618 25.3608C55.7271 25.3258 56.994 25.3497 58.2593 25.3497C58.8191 25.3497 59.0996 25.0811 59.1007 24.544C59.1007 21.4737 59.1007 18.4018 59.1007 15.3315ZM5.36253 22.8467C6.04594 22.8467 6.73097 22.8245 7.41277 22.8547C7.84474 22.8737 8.05266 22.7339 8.18322 22.3112C9.04554 19.5269 9.89498 16.7395 10.6541 13.925C11.4133 11.1122 12.1193 8.28822 12.5948 5.4118C12.7495 4.47895 12.7608 4.47577 11.855 4.21037C9.1068 3.40625 6.26999 3.1186 3.4364 2.81507C2.87065 2.75468 2.65629 2.92154 2.66435 3.51907C2.69497 5.73916 2.67724 7.95925 2.67724 10.1793C2.67724 14.1237 2.67724 18.068 2.67724 22.014C2.67724 22.567 2.9491 22.8446 3.49282 22.8467C4.1166 22.8467 4.73876 22.8467 5.36253 22.8467Z" fill="#E83647" stroke="white" mask="url(#path-1-inside-1_143_1563)"/>
</svg>
