<svg width="97" height="97" viewBox="0 0 97 97" fill="none" xmlns="http://www.w3.org/2000/svg">
<path d="M48.5 0C75.2858 0 97 21.7142 97 48.5C97 75.2858 75.2858 97 48.5 97C21.7142 97 0 75.2858 0 48.5C0 21.7142 21.7142 0 48.5 0ZM48.5 8.08333C26.1785 8.08333 8.08333 26.1785 8.08333 48.5C8.08333 70.8215 26.1785 88.9167 48.5 88.9167C70.8215 88.9167 88.9167 70.8215 88.9167 48.5C88.9167 26.1785 70.8215 8.08333 48.5 8.08333ZM42.4337 56.9262L65.6389 33.6588C67.2152 32.0784 69.7742 32.0749 71.3547 33.6512C72.7595 35.0523 72.9183 37.23 71.8292 38.8066L71.3623 39.367L45.2992 65.4999C43.8968 66.9061 41.7166 67.0637 40.1399 65.9718L39.5796 65.5037L25.4338 51.3579C23.8554 49.7795 23.8554 47.2205 25.4338 45.6421C26.8368 44.2391 29.0146 44.0832 30.5898 45.1744L31.1496 45.6421L42.4337 56.9262L65.6389 33.6588L42.4337 56.9262Z" fill="#00AB11"/>
</svg>
