<svg width="23" height="29" viewBox="0 0 23 29" fill="none" xmlns="http://www.w3.org/2000/svg">
<path d="M0.505821 19.763V19.5327C0.498473 19.6135 0.497657 19.6903 0.505821 19.763Z" fill="#CCCBCB"/>
<path d="M22.7605 19.7245C22.7638 18.913 22.4608 18.2402 21.8958 17.6744C21.2492 17.0269 20.4229 16.7052 19.5803 16.4211C18.2397 15.9688 16.8958 15.5262 15.5551 15.0764C15.4384 15.0372 15.2155 15.0314 15.4237 14.8167C16.3871 13.8263 16.9799 12.6367 17.3048 11.3059C17.3505 11.1181 17.4297 11.0675 17.602 11.1352C17.6584 11.1581 17.7188 11.172 17.7767 11.1899C18.1156 11.2928 18.4463 11.3279 18.6985 11.0128C18.937 10.7139 18.8561 10.4078 18.6985 10.0983C18.3695 9.45493 18.056 8.80257 17.7237 8.16082C17.6077 7.93711 17.5506 7.71421 17.5547 7.4611C17.5645 6.75812 17.5783 6.05514 17.5547 5.35297C17.4902 3.51101 16.6549 2.13361 15.0236 1.25427C14.1973 0.808478 13.3033 0.738261 12.3856 0.763572C11.5103 0.78725 10.6253 0.699887 9.75979 0.797047C7.44999 1.05505 5.73457 3.035 5.72804 5.35705C5.72641 6.03962 5.71906 6.7222 5.73212 7.40477C5.73784 7.68972 5.67334 7.94037 5.54352 8.19185C5.19243 8.86952 4.8536 9.55373 4.51721 10.2396C4.39311 10.4927 4.39066 10.7523 4.56049 10.9924C4.72623 11.2275 4.96546 11.2895 5.23489 11.2512C5.36471 11.2324 5.49616 11.1997 5.617 11.1499C5.8497 11.0544 5.92971 11.1336 5.9885 11.3696C6.31509 12.6653 6.89151 13.8329 7.83862 14.7939C8.00274 14.9604 7.9415 15.0119 7.76106 15.0706C7.20913 15.2494 6.658 15.4307 6.11015 15.6209C4.9377 16.0292 3.72768 16.3345 2.59768 16.8554C1.45217 17.3837 0.634879 18.192 0.506692 19.5319V19.7621L0.500977 24.9304V24.9834C0.509141 25.1957 0.532004 25.4105 0.578543 25.6178C0.927177 27.1969 2.23109 28.2461 3.84689 28.2477C6.44491 28.2502 9.04211 28.2477 11.6393 28.2477C14.2365 28.2477 16.9154 28.2542 19.5534 28.2453C21.2843 28.2387 22.7491 26.7683 22.7564 25.0414C22.7638 23.2697 22.7532 21.4971 22.7613 19.7245H22.7605ZM7.22219 4.51363C7.5847 3.13951 8.81268 2.16872 10.2374 2.14913C10.7061 2.1426 11.1739 2.14749 11.7953 2.14749C12.2811 2.17934 12.9244 2.07891 13.5597 2.2022C15.0807 2.49613 16.1544 3.78371 16.1756 5.33419C16.1814 5.76121 16.165 6.18904 16.1822 6.61605C16.192 6.86508 16.1315 6.91162 15.8931 6.82262C14.9583 6.47317 13.9965 6.22905 13.0077 6.07555C11.4229 5.82979 9.88879 6.05514 8.37097 6.49358C8.02968 6.59238 7.69411 6.7124 7.35773 6.82752C7.22382 6.87324 7.10462 6.89692 7.11115 6.69934C7.13483 5.97022 7.03113 5.23621 7.22219 4.51363ZM7.38875 8.29227C8.78819 7.76483 10.208 7.33863 11.7128 7.35741C13.2772 7.37782 14.7656 7.79504 16.1854 8.44169C16.5749 8.61886 16.5716 9.07527 16.7602 9.42962C13.3245 8.31514 9.92064 8.3135 6.50533 9.45738C6.69883 8.96505 6.8213 8.50619 7.38875 8.29227ZM7.3022 10.9409C7.27036 10.8095 7.24913 10.6911 7.4459 10.6405C8.50487 10.3702 10.4856 9.95135 11.6524 9.96931C13.0624 10.0085 14.4333 10.2951 15.796 10.6356C15.9625 10.6772 16.0164 10.7613 15.9772 10.9197C15.5723 12.5437 14.8031 13.9161 13.2592 14.7147C11.8753 15.4299 10.297 15.18 9.07558 14.0803C8.13419 13.2336 7.59531 12.155 7.3022 10.9409ZM12.3431 16.8481C12.2606 16.5354 12.4411 16.4039 12.7718 16.3533C13.082 16.3068 13.3759 16.1843 13.6658 16.061C13.7393 16.03 13.8217 15.9835 13.8936 15.9924C14.0006 16.0063 14.1459 16.0349 14.1949 16.1092C14.2586 16.2072 14.1108 16.2692 14.0455 16.3362C13.7123 16.6775 13.3751 17.0138 13.0347 17.3486C12.9326 17.449 12.8534 17.6025 12.655 17.5029C12.4721 17.4115 12.3137 17.3192 12.3415 17.0775C12.3488 17.0179 12.3431 16.9559 12.3431 16.8481ZM10.9257 17.209C10.9151 17.4033 10.7412 17.4294 10.6155 17.5045C10.4938 17.5764 10.4089 17.516 10.3232 17.4302C9.93778 17.0408 9.55322 16.6513 9.16131 16.27C9.02415 16.137 9.06089 16.079 9.22173 16.0316C9.34094 15.9957 9.45035 15.9769 9.57282 16.0349C9.93125 16.2039 10.3068 16.3231 10.6963 16.4015C10.9282 16.448 10.9331 16.4742 10.9265 16.9355C10.9265 17.0269 10.9306 17.1184 10.9265 17.209H10.9257ZM15.2449 26.8679H11.6116C10.2374 26.8671 8.86412 26.8605 7.48999 26.8728C7.20668 26.8752 7.09645 26.8083 7.10135 26.5029C7.11441 25.6227 7.10217 25.6219 7.97988 25.6219C8.73348 25.6219 9.48627 25.6236 10.2399 25.6219C10.7183 25.6203 11.0147 25.3647 11.018 24.9557C11.0212 24.5515 10.7208 24.256 10.2587 24.2486C9.47484 24.2364 8.69103 24.2445 7.90803 24.2437C7.5398 24.2437 7.58879 24.2576 7.69983 23.8983C7.92436 23.1741 8.3726 23.001 9.10824 23.0247C10.9992 23.0851 12.8934 23.0492 14.786 23.0394C15.0456 23.0378 15.2049 23.1088 15.302 23.3554C15.3877 23.5726 15.4988 23.7808 15.6164 23.9824C15.7511 24.2151 15.6547 24.2527 15.4359 24.247C15.0603 24.2372 14.6823 24.2307 14.3067 24.2502C13.7409 24.2796 13.4168 24.7393 13.6201 25.2072C13.7417 25.4864 13.9605 25.6244 14.27 25.6227C14.7991 25.6195 15.329 25.6301 15.8572 25.6187C16.0866 25.6129 16.1814 25.6717 16.183 25.924C16.1895 26.8679 16.1985 26.8679 15.2449 26.8679ZM21.3741 25.0684C21.3668 26.0106 20.5666 26.823 19.6236 26.8605C19.0235 26.8842 18.4218 26.8613 17.8208 26.8695C17.6192 26.8728 17.553 26.7895 17.5563 26.5968C17.5636 26.1379 17.5498 25.6799 17.5612 25.2219C17.5685 24.9377 17.504 24.683 17.375 24.4307C17.0256 23.7522 16.6549 23.0811 16.3585 22.3789C16.1185 21.8123 15.7437 21.6212 15.151 21.6261C12.8085 21.6465 10.4652 21.6343 8.12276 21.6351C7.99049 21.6351 7.85822 21.6481 7.72677 21.6539C7.40834 21.6669 7.19606 21.831 7.05808 22.1095C6.86865 22.4932 6.70454 22.8933 6.47838 23.2542C5.86439 24.238 5.58352 25.2904 5.72641 26.4482C5.73131 26.489 5.72314 26.5307 5.72722 26.5707C5.75417 26.7968 5.65619 26.876 5.43003 26.8711C4.87074 26.8589 4.30983 26.8728 3.74973 26.8646C2.88835 26.8524 2.12903 26.2408 1.93797 25.4056C1.89552 25.2178 1.89388 25.0218 1.86041 24.8316L1.88408 19.7286C1.89388 19.6682 1.90205 19.6078 1.90449 19.5465C1.91756 19.2126 2.06044 18.9415 2.29232 18.7088C2.67525 18.3235 3.14635 18.0851 3.65012 17.9111C4.8438 17.5005 6.04157 17.1053 7.23444 16.693C7.44754 16.6187 7.59287 16.6546 7.74881 16.8138C8.39056 17.4686 9.04211 18.1136 9.6912 18.7611C10.0896 19.1579 10.3542 19.2412 10.8277 18.9309C11.4058 18.5529 11.9014 18.5749 12.4705 18.9407C12.9334 19.2387 13.1833 19.1636 13.5809 18.7676C14.2316 18.1218 14.8815 17.4752 15.5241 16.822C15.6768 16.666 15.8172 16.613 16.036 16.6881C17.0754 17.0457 18.1213 17.3837 19.1623 17.7372C19.7314 17.9307 20.2947 18.1422 20.7757 18.5202C21.1341 18.8027 21.3807 19.1457 21.3798 19.6298C21.3766 21.4424 21.3872 23.2558 21.3741 25.0684Z" fill="#CCCBCB"/>
<path d="M11.6432 19.7064C12.0367 19.7081 12.3078 19.9816 12.3078 20.3792C12.3078 20.7654 12.0204 21.0626 11.6448 21.0659C11.2733 21.0691 10.9345 20.7303 10.9451 20.3661C10.9557 19.9979 11.2659 19.7056 11.6432 19.7064Z" fill="#CCCBCB"/>
</svg>
