<svg width="32" height="33" viewBox="0 0 32 33" fill="none" xmlns="http://www.w3.org/2000/svg">
<path d="M1.75057 11.7256L15.25 19.6322C15.478 19.7657 15.7367 19.8359 16 19.8359C16.2633 19.8359 16.522 19.7657 16.75 19.6322L30.2494 11.7256C30.4761 11.5929 30.6646 11.4024 30.7962 11.173C30.9278 10.9436 30.9978 10.6833 30.9994 10.418C31.0005 10.15 30.9316 9.88659 30.7999 9.65429C30.6682 9.422 30.4783 9.2291 30.2494 9.09513L16.75 1.20371C16.522 1.07026 16.2633 1 16 1C15.7367 1 15.478 1.07026 15.25 1.20371L1.75057 9.09513C1.52167 9.2291 1.33175 9.422 1.20005 9.65429C1.06835 9.88659 0.999546 10.15 1.0006 10.418C1.00218 10.6833 1.07223 10.9436 1.2038 11.173C1.33537 11.4024 1.52387 11.5929 1.75057 11.7256ZM16 4.33595L26.4996 10.418L16 16.5L5.50042 10.418L16 4.33595ZM28.7495 15.238L16 22.582L3.25051 15.1772C3.07931 15.0766 2.89019 15.0114 2.69403 14.9853C2.49787 14.9592 2.29855 14.9726 2.10755 15.0249C1.91654 15.0772 1.73763 15.1673 1.58112 15.29C1.4246 15.4127 1.29358 15.5655 1.19559 15.7397C1.00004 16.0889 0.948639 16.5022 1.05261 16.8896C1.15658 17.2771 1.40748 17.607 1.75057 17.8076L15.25 25.7143C15.478 25.8477 15.7367 25.918 16 25.918C16.2633 25.918 16.522 25.8477 16.75 25.7143L30.2494 17.8076C30.5925 17.607 30.8434 17.2771 30.9474 16.8896C31.0514 16.5022 31 16.0889 30.8044 15.7397C30.7064 15.5655 30.5754 15.4127 30.4189 15.29C30.2624 15.1673 30.0835 15.0772 29.8925 15.0249C29.7015 14.9726 29.5021 14.9592 29.306 14.9853C29.1098 15.0114 28.9207 15.0766 28.7495 15.1772V15.238ZM28.7495 21.32L16 28.664L3.25051 21.2592C3.07931 21.1586 2.89019 21.0934 2.69403 21.0673C2.49787 21.0412 2.29855 21.0547 2.10755 21.1069C1.91654 21.1592 1.73763 21.2493 1.58112 21.372C1.4246 21.4947 1.29358 21.6475 1.19559 21.8218C1.00004 22.1709 0.948639 22.5843 1.05261 22.9717C1.15658 23.3591 1.40748 23.6891 1.75057 23.8897L15.25 31.7963C15.478 31.9297 15.7367 32 16 32C16.2633 32 16.522 31.9297 16.75 31.7963L30.2494 23.8897C30.5925 23.6891 30.8434 23.3591 30.9474 22.9717C31.0514 22.5843 31 22.1709 30.8044 21.8218C30.7064 21.6475 30.5754 21.4947 30.4189 21.372C30.2624 21.2493 30.0835 21.1592 29.8925 21.1069C29.7015 21.0547 29.5021 21.0412 29.306 21.0673C29.1098 21.0934 28.9207 21.1586 28.7495 21.2592V21.32Z" fill="white" stroke="#6D65C6"/>
</svg>
