<svg width="14" height="14" viewBox="0 0 14 14" fill="none" xmlns="http://www.w3.org/2000/svg">
<path fill-rule="evenodd" clip-rule="evenodd" d="M7.00318 0C3.14532 0 0 3.14087 0 6.99809C0 10.8553 3.14596 14 7.00318 14C10.8604 14 14 10.8553 14 6.99809C14 3.14087 10.8604 0 7.00318 0ZM7.00318 1.27238C7.75538 1.27112 8.50044 1.41837 9.19561 1.70569C9.89078 1.993 10.5224 2.41473 11.0542 2.94668C11.5861 3.47862 12.0076 4.11033 12.2948 4.80557C12.582 5.5008 12.729 6.24589 12.7276 6.99809C12.7291 7.7505 12.5821 8.49581 12.295 9.19129C12.008 9.88678 11.5864 10.5188 11.0546 11.051C10.5228 11.5833 9.89123 12.0054 9.196 12.2931C8.50076 12.5808 7.75559 12.7285 7.00318 12.7276C6.25045 12.7285 5.50493 12.581 4.8093 12.2934C4.11368 12.0058 3.48161 11.5838 2.94929 11.0516C2.41697 10.5194 1.99485 9.88743 1.7071 9.19187C1.41935 8.49631 1.27163 7.75082 1.27238 6.99809C1.27238 3.82859 3.83368 1.27238 7.00318 1.27238ZM6.993 2.53585C6.90891 2.53668 6.82582 2.55417 6.74853 2.5873C6.67124 2.62044 6.60129 2.66858 6.54272 2.72892C6.48415 2.78927 6.43812 2.86062 6.40731 2.93887C6.37649 3.01711 6.36149 3.10069 6.36317 3.18477V6.99809C6.36352 7.08181 6.3804 7.16463 6.41282 7.24182C6.44524 7.319 6.49258 7.38902 6.55212 7.44788L9.09688 9.99391C9.15575 10.0545 9.22608 10.1027 9.30379 10.1358C9.38149 10.1689 9.46501 10.1862 9.54948 10.1867C9.63394 10.1872 9.71765 10.1709 9.79573 10.1387C9.87382 10.1065 9.9447 10.059 10.0043 9.99912C10.0638 9.93923 10.1108 9.86808 10.1426 9.78981C10.1744 9.71155 10.1902 9.62775 10.1893 9.54329C10.1883 9.45883 10.1705 9.37541 10.137 9.29789C10.1035 9.22038 10.0548 9.15031 9.99391 9.09179L7.63683 6.73471V3.18477C7.63854 3.09951 7.62309 3.01478 7.59141 2.93561C7.55972 2.85644 7.51245 2.78445 7.45239 2.72392C7.39233 2.66338 7.32071 2.61554 7.24179 2.58323C7.16288 2.55093 7.07827 2.53481 6.993 2.53585Z" fill="#E46E00"/>
</svg>
