<svg width="30" height="30" viewBox="0 0 30 30" fill="none" xmlns="http://www.w3.org/2000/svg">
<path d="M29.9795 16.2074C29.8662 17.1353 29.7356 18.0601 29.4769 18.9622C28.3105 23.0256 25.8747 26.0907 22.1944 28.1537C19.66 29.5741 16.9107 30.183 14.0293 29.9524C8.60492 29.5178 4.52277 26.8849 1.82583 22.1626C0.564133 19.9534 -0.0198124 17.5426 0.000512371 14.9926C0.00442098 14.479 0.333526 14.0913 0.802558 14.0295C1.30833 13.9631 1.76251 14.2398 1.87664 14.7229C1.93605 14.9762 1.94153 15.2443 1.94934 15.507C2.11038 20.8938 5.75632 25.6451 10.7758 27.3501C12.1461 27.816 13.5556 28.07 14.9939 28.0544C18.4194 28.0161 21.422 26.8584 23.9329 24.5038C26.1929 22.3846 27.5624 19.7783 27.947 16.7093C28.4497 12.7037 27.3436 9.15942 24.6271 6.1584C22.7165 4.04697 20.3448 2.68521 17.5431 2.16537C13.4078 1.39694 9.6962 2.35376 6.45753 5.06712C6.0909 5.37433 5.75398 5.71204 5.42644 6.06146C5.47647 6.14355 5.5351 6.08023 5.582 6.07554C6.11982 6.0216 6.56384 6.32178 6.68266 6.82442C6.79523 7.29893 6.52945 7.78672 6.03149 7.95636C5.29355 8.20807 4.54857 8.43711 3.80593 8.67554C3.58314 8.74668 3.36191 8.82407 3.13678 8.88739C2.53172 9.05546 2.01188 8.75449 1.87273 8.13928C1.6562 7.17932 1.44826 6.21781 1.2497 5.25395C1.12619 4.65593 1.43497 4.14937 1.96732 4.03603C2.51922 3.91799 2.99216 4.25647 3.14616 4.85996C3.19931 5.06946 3.15163 5.39544 3.34471 5.4525C3.48308 5.49393 3.62926 5.17734 3.77075 5.02021C6.2277 2.29044 9.27485 0.662118 12.9028 0.111786C13.1905 0.0680097 13.4805 0.0367409 13.7697 0H16.2861C16.333 0.0125075 16.3791 0.0320507 16.426 0.036741C18.4929 0.226699 20.4441 0.807518 22.2475 1.83235C25.895 3.9047 28.3191 6.95419 29.4761 10.9973C29.7341 11.8994 29.8654 12.8234 29.978 13.7513V16.209L29.9795 16.2074Z" fill="white"/>
<path d="M15.0007 23.5388C12.876 23.5388 10.7512 23.5388 8.62652 23.5388C7.84402 23.5388 7.4899 23.18 7.48912 22.392C7.48912 21.7002 7.48834 21.0084 7.48912 20.3158C7.49381 17.8041 9.11119 15.7318 11.572 15.2401C13.875 14.7796 16.2069 14.7781 18.509 15.2588C20.8816 15.7545 22.5005 17.8299 22.5083 20.2556C22.5107 20.967 22.5091 21.6783 22.5083 22.3897C22.5083 23.1917 22.1573 23.538 21.3436 23.538C19.229 23.538 17.1137 23.538 14.9991 23.538L15.0007 23.5388ZM15.0007 21.5877C16.7549 21.5877 18.5098 21.5837 20.264 21.5923C20.5157 21.5939 20.615 21.5204 20.6009 21.2593C20.5775 20.8224 20.6009 20.3846 20.5571 19.946C20.4188 18.5507 19.3752 17.3804 17.9939 17.117C17.1989 16.9653 16.3914 16.9083 15.5838 16.8754C14.5207 16.8324 13.4622 16.9106 12.4085 17.0498C10.9936 17.2374 10.0094 17.9722 9.55833 19.3465C9.36134 19.9468 9.40121 20.5792 9.40355 21.2023C9.40511 21.5861 9.40511 21.5877 9.79597 21.5877C11.5306 21.5877 13.266 21.5877 15.0007 21.5877Z" fill="white"/>
<path d="M14.9828 14.1767C12.8425 14.1736 11.1149 12.4241 11.1211 10.2674C11.1274 8.14499 12.8776 6.41582 15.0164 6.41895C17.1552 6.42286 18.8859 8.17469 18.8789 10.3299C18.8719 12.4546 17.1247 14.1799 14.9836 14.1767H14.9828ZM15.0063 12.2256C16.0968 12.2232 16.927 11.3899 16.9262 10.2994C16.9262 9.205 16.0975 8.37403 15.0063 8.37169C13.9001 8.36934 13.0676 9.20578 13.0731 10.3143C13.0785 11.4048 13.9111 12.2287 15.007 12.2256H15.0063Z" fill="white"/>
</svg>
