<svg width="30" height="32" viewBox="0 0 30 32" fill="none" xmlns="http://www.w3.org/2000/svg">
<path d="M25.8212 17.5601C25.5076 17.5601 25.1796 17.4547 24.8659 17.3794C24.2312 17.2296 23.607 17.0334 22.998 16.7923C22.3365 16.5382 21.6094 16.5514 20.9566 16.8293C20.3038 17.1073 19.7714 17.6303 19.4618 18.2978L19.1481 18.9903C17.7634 18.1611 16.4841 17.1493 15.3411 15.9793C14.233 14.7725 13.2747 13.4218 12.4893 11.9598L13.1452 11.6436C13.7774 11.3168 14.2728 10.7547 14.536 10.0654C14.7992 9.37617 14.8117 8.60847 14.5711 7.91007C14.3446 7.26126 14.1589 6.59743 14.015 5.92286C13.9437 5.59166 13.8867 5.2454 13.8439 4.9142C13.6707 3.85378 13.1447 2.89348 12.3604 2.20624C11.5762 1.51899 10.5853 1.14996 9.56627 1.1656H5.27439C4.6716 1.16477 4.07544 1.29845 3.52501 1.5579C2.97457 1.81734 2.48229 2.19669 2.08043 2.67106C1.67023 3.15831 1.3648 3.73354 1.18513 4.35723C1.00545 4.98093 0.955783 5.63829 1.03954 6.28417C1.81463 12.5501 4.5261 18.371 8.75352 22.8443C12.9903 27.3076 18.5035 30.1705 24.4381 30.9888C24.6232 31.0037 24.8091 31.0037 24.9942 30.9888C26.0457 30.9904 27.0609 30.5831 27.846 29.8447C28.2953 29.4204 28.6546 28.9006 28.9003 28.3194C29.146 27.7383 29.2727 27.1089 29.2719 26.4724V21.956C29.2642 20.9158 28.9166 19.9103 28.2879 19.1093C27.6592 18.3084 26.7879 17.7612 25.8212 17.5601ZM26.5199 26.5929C26.5195 26.8029 26.4773 27.0106 26.3963 27.2024C26.3153 27.3943 26.1971 27.5661 26.0494 27.7069C25.8931 27.8572 25.7071 27.969 25.5049 28.0341C25.3027 28.0992 25.0893 28.116 24.8802 28.0833C19.5592 27.3495 14.6142 24.7893 10.8068 20.7968C6.99609 16.7734 4.55009 11.5343 3.84851 5.89275C3.81754 5.67195 3.83345 5.44664 3.8951 5.23314C3.95676 5.01963 4.0626 4.82327 4.20498 4.65827C4.3399 4.50043 4.50495 4.37455 4.68928 4.28892C4.8736 4.20329 5.07302 4.15985 5.27439 4.16147H9.55201C9.88162 4.15296 10.2038 4.26532 10.4638 4.47942C10.7238 4.69352 10.9055 4.99613 10.9779 5.33573C10.9779 5.74221 11.1062 6.16373 11.1918 6.57021C11.3566 7.35887 11.5758 8.13374 11.8477 8.88862L9.85145 9.88223C9.50833 10.0485 9.24169 10.3517 9.10999 10.7253C8.96738 11.0918 8.96738 11.5029 9.10999 11.8694C11.1621 16.5104 14.6955 20.241 19.0911 22.4077C19.4383 22.5582 19.8276 22.5582 20.1748 22.4077C20.5286 22.2686 20.8158 21.9871 20.9733 21.6248L21.8716 19.5172C22.6072 19.8004 23.3598 20.0317 24.1245 20.2097C24.4952 20.3 24.8944 20.3753 25.2794 20.4355C25.6011 20.512 25.8877 20.7038 26.0905 20.9783C26.2932 21.2528 26.3996 21.593 26.3916 21.941L26.5199 26.5929ZM18.1073 1C17.7793 1 17.4371 1 17.1091 1C16.731 1.03394 16.3811 1.2251 16.1364 1.53142C15.8917 1.83775 15.7723 2.23415 15.8045 2.63343C15.8366 3.0327 16.0177 3.40214 16.3078 3.66047C16.5979 3.9188 16.9734 4.04486 17.3515 4.01092H18.1073C20.3763 4.01092 22.5523 4.96259 24.1567 6.65656C25.7612 8.35054 26.6625 10.6481 26.6625 13.0437C26.6625 13.3147 26.6625 13.5706 26.6625 13.8416C26.6309 14.2387 26.7497 14.6329 26.993 14.9377C27.2362 15.2425 27.584 15.433 27.9601 15.4675H28.0741C28.4311 15.469 28.7756 15.3291 29.0396 15.0755C29.3036 14.8218 29.4679 14.4729 29.5 14.0975C29.5 13.7513 29.5 13.39 29.5 13.0437C29.5 9.85212 28.3002 6.79103 26.164 4.53284C24.0279 2.27464 21.1301 1.00399 18.1073 1ZM20.959 13.0437C20.959 13.443 21.1092 13.8259 21.3766 14.1082C21.644 14.3905 22.0067 14.5492 22.3849 14.5492C22.7631 14.5492 23.1257 14.3905 23.3931 14.1082C23.6605 13.8259 23.8108 13.443 23.8108 13.0437C23.8108 11.4466 23.2099 9.91492 22.1402 8.78561C21.0706 7.65629 19.6199 7.02185 18.1073 7.02185C17.7291 7.02185 17.3664 7.18046 17.099 7.46279C16.8316 7.74512 16.6814 8.12804 16.6814 8.52731C16.6814 8.92658 16.8316 9.3095 17.099 9.59183C17.3664 9.87416 17.7291 10.0328 18.1073 10.0328C18.8636 10.0328 19.5889 10.35 20.1238 10.9147C20.6586 11.4793 20.959 12.2451 20.959 13.0437Z" fill="#E83647" stroke="#FEF5F6" stroke-width="0.2"/>
</svg>
