<svg width="14" height="14" viewBox="0 0 14 14" fill="none" xmlns="http://www.w3.org/2000/svg">
<path d="M1.5 0C0.678 0 0 0.6765 0 1.498V4.5C0 5.312 0.397 6.029 1 6.4865V12.5C1 13.322 1.6775 14 2.5 14H11.5C12.3225 14 13 13.322 13 12.5V6.4865C13.603 6.029 14 5.3115 14 4.5V1.498C13.9976 1.10109 13.8388 0.721139 13.5579 0.440663C13.2771 0.160188 12.8969 0.00183662 12.5 0H1.5ZM1.5 1H12.5C12.786 1 13 1.214 13 1.498V4.5C13 5.34 12.34 6 11.5 6H11C10.16 6 9.5 5.34 9.5 4.5C9.4905 3.8425 8.5095 3.8425 8.5 4.5C8.5 5.34 7.84 6 7 6C6.16 6 5.5 5.34 5.5 4.5C5.4905 3.8425 4.5095 3.8425 4.5 4.5C4.5 5.34 3.84 6 3 6H2.5C1.66 6 1 5.34 1 4.5V1.498C0.998557 1.43204 1.01052 1.36647 1.03516 1.30526C1.0598 1.24406 1.09661 1.18849 1.14336 1.14193C1.19011 1.09537 1.24582 1.05878 1.30712 1.03439C1.36843 1.00999 1.43404 0.998292 1.5 1ZM5 5.921C5.4385 6.535 6.115 6.965 6.915 6.994L6.921 6.995C6.97023 7.00233 7.02027 7.00233 7.0695 6.995C7.8765 6.971 8.5585 6.5395 9 5.921C9.454 6.5575 10.162 7 11 7H11.5C11.668 6.99987 11.8355 6.98279 12 6.949V12.5C12 12.786 11.7855 13 11.5 13H9V10.5C9 9.678 8.3225 9 7.5 9H6.5C5.6775 9 5 9.678 5 10.5V13H2.5C2.2145 13 2 12.786 2 12.5V6.949C2.16453 6.98279 2.33204 6.99987 2.5 7H3C3.838 7 4.546 6.5575 5 5.921ZM6.5 10H7.5C7.7855 10 8 10.2145 8 10.5V13H6V10.5C6 10.2145 6.2145 10 6.5 10Z" fill="white"/>
</svg>
