<svg width="25" height="24" viewBox="0 0 25 24" fill="none" xmlns="http://www.w3.org/2000/svg">
<g clip-path="url(#clip0_105_807)">
<path d="M13.2048 9.35092V12.6396H13.9679C16.0034 12.6396 18.0375 12.6396 20.073 12.6396C21.6117 12.6396 22.3512 13.415 22.3554 14.9854C22.3554 15.7284 22.3554 16.4728 22.3554 17.3045C22.7717 17.3045 23.1088 17.289 23.4488 17.3045C24.3284 17.3523 24.9487 17.9335 24.975 18.8088C25.0083 20.026 25.0083 21.2475 24.975 22.4675C24.9514 23.3456 24.3284 23.9536 23.4571 23.9733C22.3027 24 21.1455 23.9958 19.9883 23.9733C19.0295 23.9592 18.4079 23.3794 18.3746 22.4113C18.3344 21.2405 18.3358 20.0654 18.3746 18.8932C18.4052 17.8913 19.0212 17.327 20.0272 17.2932C20.3213 17.2834 20.6169 17.2932 20.979 17.2932C20.979 16.3504 21.0276 15.485 20.9471 14.6308C20.9249 14.4028 20.5142 14.0369 20.2755 14.0327C17.9445 13.9877 15.6135 14.0046 13.2339 14.0046V17.3087C13.5655 17.3087 13.9055 17.2946 14.2426 17.3087C15.157 17.3537 15.7689 17.9335 15.8008 18.8566C15.8369 20.0518 15.8369 21.2475 15.8008 22.4436C15.7703 23.3668 15.1459 23.9606 14.2343 23.9789C13.1021 24.0014 11.9685 23.9986 10.8349 23.9789C9.81232 23.9648 9.20597 23.3499 9.18655 22.3057C9.16851 21.2278 9.17406 20.1485 9.18655 19.0691C9.19765 17.8997 9.78457 17.3214 10.9542 17.2989C11.2054 17.2989 11.4565 17.2989 11.759 17.2989V14.0721C11.5903 14.0454 11.4203 14.028 11.2498 14.0201C9.16851 14.0201 7.08725 14.0201 5.00598 14.0201C4.15128 14.0201 4.01252 14.1734 4.00836 15.0558C4.00836 15.7777 4.00836 16.4996 4.00836 17.3073C4.3927 17.3073 4.71044 17.296 5.02679 17.3073C5.95781 17.3481 6.57387 17.8927 6.61133 18.8271C6.65851 20.0443 6.65989 21.2658 6.61133 22.4858C6.57109 23.416 5.94255 23.9719 5.01431 23.9873C3.8821 24.0042 2.74897 24.0042 1.61491 23.9873C0.62145 23.9648 0.022046 23.3456 0.00678338 22.3409C-0.00847923 21.2855 0.00678338 20.2301 0.00678338 19.1747C0.00817089 17.8843 0.553462 17.3228 1.80222 17.3087C2.05059 17.3087 2.30034 17.3087 2.63473 17.3087C2.63473 16.4897 2.63473 15.7467 2.63473 15.0037C2.63473 13.4023 3.37843 12.6536 4.97684 12.648C6.98873 12.648 9.00062 12.648 11.0125 12.648H11.7826V9.35092C11.2095 9.35092 10.6434 9.35092 10.0773 9.35092C8.6593 9.33544 7.89894 8.56851 7.89062 7.13175C7.88044 5.49094 7.88044 3.84919 7.89062 2.20651C7.89617 0.802111 8.65652 0.0182938 10.0232 0.00844327C11.6651 -0.00281442 13.307 -0.00281442 14.9489 0.00844327C16.3183 0.0168865 17.0898 0.799296 17.0995 2.19103C17.1106 3.85529 17.1106 5.52049 17.0995 7.18663C17.0898 8.54037 16.3183 9.32559 14.9961 9.34811C14.4286 9.35937 13.8486 9.35092 13.2048 9.35092ZM15.7398 4.67898C15.7398 3.90501 15.7398 3.13105 15.7398 2.35708C15.7314 1.53949 15.601 1.39314 14.8198 1.38892C13.27 1.38047 11.7215 1.40018 10.1717 1.38047C9.5362 1.37203 9.23373 1.60985 9.24205 2.28391C9.26148 3.87828 9.25731 5.47405 9.24205 7.06843C9.24205 7.68197 9.47099 7.9803 10.0995 7.97326C11.6952 7.95919 13.2908 7.95919 14.8864 7.97326C15.5136 7.97326 15.7606 7.69182 15.7453 7.07124C15.7259 6.27476 15.7398 5.47687 15.7398 4.67898ZM1.41094 22.604C2.59726 22.604 3.7045 22.6209 4.81034 22.5829C4.96436 22.5829 5.2266 22.3015 5.24047 22.1453C5.27932 21.1391 5.27377 20.1302 5.24047 19.1226C5.24047 18.9734 5.04206 18.7004 4.92967 18.7004C3.76139 18.6695 2.59171 18.6807 1.40539 18.6807L1.41094 22.604ZM10.5532 18.7159C10.5532 19.936 10.538 21.0561 10.5699 22.1748C10.5699 22.3156 10.8155 22.5759 10.9528 22.5801C11.9893 22.6139 13.0258 22.6083 14.0623 22.5801C14.1885 22.5801 14.4147 22.3887 14.4175 22.2818C14.4424 21.1026 14.4341 19.9219 14.4341 18.7117L10.5532 18.7159ZM23.5459 22.5984V18.6751C22.3762 18.6751 21.269 18.6568 20.1631 18.6962C20.0133 18.6962 19.7469 18.9861 19.7469 19.1493C19.708 20.1555 19.7108 21.1659 19.7469 22.172C19.7469 22.3198 19.9953 22.5787 20.1354 22.5829C21.2607 22.6167 22.3887 22.6026 23.5459 22.6026V22.5984Z" fill="#EBEBEB" stroke="#EBEBEB" stroke-width="0.3"/>
</g>
<defs>
<clipPath id="clip0_105_807">
<rect width="25" height="23.6611" fill="white"/>
</clipPath>
</defs>
</svg>
