<svg width="29" height="29" viewBox="0 0 29 29" fill="none" xmlns="http://www.w3.org/2000/svg">
<mask id="path-1-outside-1_143_1844" maskUnits="userSpaceOnUse" x="-0.25" y="-0.25" width="29" height="29" fill="black">
<rect fill="white" x="-0.25" y="-0.25" width="29" height="29"/>
<path d="M0.754783 11.621V8.67151C0.835495 8.50539 0.961654 8.38471 1.11994 8.29068C5.13829 5.90459 9.15508 3.51536 13.175 1.13319C14.0409 0.619923 14.9224 0.624625 15.7938 1.13319C16.3807 1.47562 16.9622 1.82511 17.5468 2.17147C20.95 4.1924 24.3524 6.21646 27.7595 8.23113C28.0957 8.43016 28.2532 8.67778 28.2399 9.07742C28.2164 9.80931 28.2344 10.5428 28.2328 11.2754C28.2321 11.8138 27.9907 12.0567 27.4477 12.063C26.9916 12.0677 26.5355 12.0747 26.0803 12.0606C25.8303 12.0528 25.7574 12.1492 25.7574 12.3905C25.7629 15.9027 25.7621 19.4156 25.759 22.9277C25.759 23.1322 25.8099 23.2247 26.0395 23.2474C27.251 23.3673 28.2258 24.4511 28.2328 25.6657C28.236 26.2737 28.2219 26.8818 28.2383 27.4891C28.2477 27.83 28.1325 28.0784 27.8379 28.2453C18.8906 28.2453 9.94418 28.2445 0.99692 28.25C0.795533 28.25 0.747731 28.2053 0.750081 28.004C0.762619 27.0832 0.755567 26.1625 0.755567 25.2425C0.772807 25.1916 0.78926 25.1414 0.806499 25.0905C1.15442 24.0193 1.87378 23.3846 3.00061 23.242C3.20983 23.2153 3.20748 23.086 3.20748 22.9379C3.20748 19.4195 3.20513 15.9003 3.2114 12.3819C3.2114 12.1304 3.11972 12.0551 2.87993 12.0614C2.42465 12.0747 1.96938 12.063 1.51332 12.0653C1.17166 12.0669 0.904453 11.9462 0.755567 11.621H0.754783ZM14.4734 10.7434C18.4503 10.7434 22.4263 10.7434 26.4031 10.7434C26.4924 10.7434 26.5818 10.7395 26.6711 10.7434C26.8404 10.7512 26.9172 10.6729 26.9156 10.5036C26.9132 10.1996 26.9038 9.89551 26.9195 9.59225C26.9321 9.35796 26.8459 9.22004 26.6413 9.09937C22.8361 6.84649 19.0333 4.58969 15.2343 2.32506C14.7179 2.0171 14.2438 2.02023 13.7274 2.32819C10.0139 4.54267 6.29804 6.7548 2.57119 8.94578C2.17077 9.18086 1.96859 9.4324 2.04695 9.89473C2.07046 10.0334 2.05009 10.18 2.05087 10.3234C2.05139 10.6029 2.18905 10.7429 2.46384 10.7434C6.4673 10.7434 10.47 10.7434 14.4734 10.7434ZM14.4821 26.95C18.4409 26.95 22.3997 26.95 26.3584 26.95C26.4564 26.95 26.5551 26.9461 26.6531 26.95C26.831 26.957 26.9179 26.881 26.9148 26.6969C26.9085 26.3309 26.925 25.9634 26.9031 25.5983C26.8709 25.0552 26.3945 24.5968 25.8499 24.56C25.7073 24.5506 25.5639 24.5514 25.4213 24.5514C18.129 24.5514 10.8367 24.5514 3.54443 24.5514C3.41905 24.5514 3.29446 24.5514 3.16908 24.5569C2.5516 24.5866 2.07752 25.0599 2.05479 25.6766C2.04461 25.9532 2.04931 26.2306 2.04931 26.5073C2.04931 26.8024 2.19845 26.9503 2.49675 26.9508C6.49159 26.9508 10.4856 26.9508 14.4805 26.9508L14.4821 26.95ZM8.28057 17.6407C8.28057 19.3819 8.28449 21.1239 8.27665 22.865C8.27587 23.1158 8.35345 23.2184 8.61282 23.2161C9.61271 23.2075 10.6134 23.2075 11.6133 23.2161C11.8726 23.2184 11.9502 23.1158 11.9494 22.865C11.9439 19.3733 11.9439 15.8815 11.9494 12.3897C11.9494 12.1468 11.8742 12.0591 11.6266 12.0614C10.6353 12.0716 9.64405 12.0653 8.65278 12.0661C8.28214 12.0661 8.28057 12.0685 8.28057 12.4438C8.28057 14.1764 8.28057 15.9089 8.28057 17.6415V17.6407ZM20.6859 17.6572C20.6859 15.9066 20.682 14.1568 20.6906 12.4062C20.6922 12.1547 20.6209 12.0575 20.3568 12.0606C19.3569 12.0724 18.3562 12.0724 17.3563 12.0606C17.0993 12.0575 17.0155 12.1413 17.0163 12.3991C17.0225 15.8815 17.0202 19.3647 17.021 22.847C17.021 23.1832 17.0468 23.2098 17.39 23.2106C18.3633 23.2122 19.3365 23.2122 20.3105 23.2106C20.6647 23.2106 20.6859 23.1871 20.6859 22.8266C20.6859 21.1035 20.6859 19.3795 20.6859 17.6564V17.6572ZM6.95706 17.6274C6.95706 15.8846 6.95235 14.1419 6.96176 12.3991C6.96332 12.139 6.87634 12.0551 6.6201 12.0614C6.02142 12.0755 5.42275 12.0724 4.82407 12.063C4.60544 12.0598 4.52473 12.1366 4.52473 12.3592C4.52943 15.8713 4.52943 19.3835 4.52473 22.8964C4.52473 23.1275 4.60779 23.2177 4.83739 23.2145C5.41804 23.2067 5.99949 23.2145 6.58014 23.2122C6.9359 23.2114 6.95706 23.1894 6.95706 22.829C6.95706 21.0949 6.95706 19.3615 6.95706 17.6274ZM15.6974 17.6274C15.6974 15.8846 15.6927 14.1419 15.7021 12.3991C15.7037 12.139 15.6175 12.0551 15.3613 12.0614C14.7626 12.0755 14.1639 12.0724 13.5652 12.063C13.3466 12.0598 13.2659 12.1366 13.2659 12.3592C13.2706 15.8713 13.2706 19.3835 13.2659 22.8956C13.2659 23.1268 13.349 23.2169 13.5786 23.2145C14.1592 23.2067 14.7407 23.2145 15.3213 23.2122C15.6778 23.2114 15.6974 23.1894 15.6974 22.829C15.6974 21.0949 15.6974 19.3615 15.6974 17.6274ZM22.0094 17.6007C22.0094 19.3521 22.0094 21.1043 22.0094 22.8556C22.0094 23.1808 22.0368 23.2098 22.3597 23.2114C22.9497 23.2137 23.5398 23.2067 24.1291 23.2145C24.3595 23.2177 24.4417 23.1268 24.4417 22.8956C24.437 19.3835 24.437 15.8713 24.4417 12.3584C24.4417 12.1351 24.3602 12.0591 24.1424 12.063C23.5523 12.0724 22.9631 12.0653 22.373 12.0661C22.0188 12.0661 22.0102 12.0755 22.0102 12.4266C22.0102 14.1513 22.0102 15.876 22.0102 17.6015L22.0094 17.6007Z"/>
</mask>
<path d="M0.754783 11.621V8.67151C0.835495 8.50539 0.961654 8.38471 1.11994 8.29068C5.13829 5.90459 9.15508 3.51536 13.175 1.13319C14.0409 0.619923 14.9224 0.624625 15.7938 1.13319C16.3807 1.47562 16.9622 1.82511 17.5468 2.17147C20.95 4.1924 24.3524 6.21646 27.7595 8.23113C28.0957 8.43016 28.2532 8.67778 28.2399 9.07742C28.2164 9.80931 28.2344 10.5428 28.2328 11.2754C28.2321 11.8138 27.9907 12.0567 27.4477 12.063C26.9916 12.0677 26.5355 12.0747 26.0803 12.0606C25.8303 12.0528 25.7574 12.1492 25.7574 12.3905C25.7629 15.9027 25.7621 19.4156 25.759 22.9277C25.759 23.1322 25.8099 23.2247 26.0395 23.2474C27.251 23.3673 28.2258 24.4511 28.2328 25.6657C28.236 26.2737 28.2219 26.8818 28.2383 27.4891C28.2477 27.83 28.1325 28.0784 27.8379 28.2453C18.8906 28.2453 9.94418 28.2445 0.99692 28.25C0.795533 28.25 0.747731 28.2053 0.750081 28.004C0.762619 27.0832 0.755567 26.1625 0.755567 25.2425C0.772807 25.1916 0.78926 25.1414 0.806499 25.0905C1.15442 24.0193 1.87378 23.3846 3.00061 23.242C3.20983 23.2153 3.20748 23.086 3.20748 22.9379C3.20748 19.4195 3.20513 15.9003 3.2114 12.3819C3.2114 12.1304 3.11972 12.0551 2.87993 12.0614C2.42465 12.0747 1.96938 12.063 1.51332 12.0653C1.17166 12.0669 0.904453 11.9462 0.755567 11.621H0.754783ZM14.4734 10.7434C18.4503 10.7434 22.4263 10.7434 26.4031 10.7434C26.4924 10.7434 26.5818 10.7395 26.6711 10.7434C26.8404 10.7512 26.9172 10.6729 26.9156 10.5036C26.9132 10.1996 26.9038 9.89551 26.9195 9.59225C26.9321 9.35796 26.8459 9.22004 26.6413 9.09937C22.8361 6.84649 19.0333 4.58969 15.2343 2.32506C14.7179 2.0171 14.2438 2.02023 13.7274 2.32819C10.0139 4.54267 6.29804 6.7548 2.57119 8.94578C2.17077 9.18086 1.96859 9.4324 2.04695 9.89473C2.07046 10.0334 2.05009 10.18 2.05087 10.3234C2.05139 10.6029 2.18905 10.7429 2.46384 10.7434C6.4673 10.7434 10.47 10.7434 14.4734 10.7434ZM14.4821 26.95C18.4409 26.95 22.3997 26.95 26.3584 26.95C26.4564 26.95 26.5551 26.9461 26.6531 26.95C26.831 26.957 26.9179 26.881 26.9148 26.6969C26.9085 26.3309 26.925 25.9634 26.9031 25.5983C26.8709 25.0552 26.3945 24.5968 25.8499 24.56C25.7073 24.5506 25.5639 24.5514 25.4213 24.5514C18.129 24.5514 10.8367 24.5514 3.54443 24.5514C3.41905 24.5514 3.29446 24.5514 3.16908 24.5569C2.5516 24.5866 2.07752 25.0599 2.05479 25.6766C2.04461 25.9532 2.04931 26.2306 2.04931 26.5073C2.04931 26.8024 2.19845 26.9503 2.49675 26.9508C6.49159 26.9508 10.4856 26.9508 14.4805 26.9508L14.4821 26.95ZM8.28057 17.6407C8.28057 19.3819 8.28449 21.1239 8.27665 22.865C8.27587 23.1158 8.35345 23.2184 8.61282 23.2161C9.61271 23.2075 10.6134 23.2075 11.6133 23.2161C11.8726 23.2184 11.9502 23.1158 11.9494 22.865C11.9439 19.3733 11.9439 15.8815 11.9494 12.3897C11.9494 12.1468 11.8742 12.0591 11.6266 12.0614C10.6353 12.0716 9.64405 12.0653 8.65278 12.0661C8.28214 12.0661 8.28057 12.0685 8.28057 12.4438C8.28057 14.1764 8.28057 15.9089 8.28057 17.6415V17.6407ZM20.6859 17.6572C20.6859 15.9066 20.682 14.1568 20.6906 12.4062C20.6922 12.1547 20.6209 12.0575 20.3568 12.0606C19.3569 12.0724 18.3562 12.0724 17.3563 12.0606C17.0993 12.0575 17.0155 12.1413 17.0163 12.3991C17.0225 15.8815 17.0202 19.3647 17.021 22.847C17.021 23.1832 17.0468 23.2098 17.39 23.2106C18.3633 23.2122 19.3365 23.2122 20.3105 23.2106C20.6647 23.2106 20.6859 23.1871 20.6859 22.8266C20.6859 21.1035 20.6859 19.3795 20.6859 17.6564V17.6572ZM6.95706 17.6274C6.95706 15.8846 6.95235 14.1419 6.96176 12.3991C6.96332 12.139 6.87634 12.0551 6.6201 12.0614C6.02142 12.0755 5.42275 12.0724 4.82407 12.063C4.60544 12.0598 4.52473 12.1366 4.52473 12.3592C4.52943 15.8713 4.52943 19.3835 4.52473 22.8964C4.52473 23.1275 4.60779 23.2177 4.83739 23.2145C5.41804 23.2067 5.99949 23.2145 6.58014 23.2122C6.9359 23.2114 6.95706 23.1894 6.95706 22.829C6.95706 21.0949 6.95706 19.3615 6.95706 17.6274ZM15.6974 17.6274C15.6974 15.8846 15.6927 14.1419 15.7021 12.3991C15.7037 12.139 15.6175 12.0551 15.3613 12.0614C14.7626 12.0755 14.1639 12.0724 13.5652 12.063C13.3466 12.0598 13.2659 12.1366 13.2659 12.3592C13.2706 15.8713 13.2706 19.3835 13.2659 22.8956C13.2659 23.1268 13.349 23.2169 13.5786 23.2145C14.1592 23.2067 14.7407 23.2145 15.3213 23.2122C15.6778 23.2114 15.6974 23.1894 15.6974 22.829C15.6974 21.0949 15.6974 19.3615 15.6974 17.6274ZM22.0094 17.6007C22.0094 19.3521 22.0094 21.1043 22.0094 22.8556C22.0094 23.1808 22.0368 23.2098 22.3597 23.2114C22.9497 23.2137 23.5398 23.2067 24.1291 23.2145C24.3595 23.2177 24.4417 23.1268 24.4417 22.8956C24.437 19.3835 24.437 15.8713 24.4417 12.3584C24.4417 12.1351 24.3602 12.0591 24.1424 12.063C23.5523 12.0724 22.9631 12.0653 22.373 12.0661C22.0188 12.0661 22.0102 12.0755 22.0102 12.4266C22.0102 14.1513 22.0102 15.876 22.0102 17.6015L22.0094 17.6007Z" fill="#CCCBCB"/>
<path d="M0.754783 11.621V8.67151C0.835495 8.50539 0.961654 8.38471 1.11994 8.29068C5.13829 5.90459 9.15508 3.51536 13.175 1.13319C14.0409 0.619923 14.9224 0.624625 15.7938 1.13319C16.3807 1.47562 16.9622 1.82511 17.5468 2.17147C20.95 4.1924 24.3524 6.21646 27.7595 8.23113C28.0957 8.43016 28.2532 8.67778 28.2399 9.07742C28.2164 9.80931 28.2344 10.5428 28.2328 11.2754C28.2321 11.8138 27.9907 12.0567 27.4477 12.063C26.9916 12.0677 26.5355 12.0747 26.0803 12.0606C25.8303 12.0528 25.7574 12.1492 25.7574 12.3905C25.7629 15.9027 25.7621 19.4156 25.759 22.9277C25.759 23.1322 25.8099 23.2247 26.0395 23.2474C27.251 23.3673 28.2258 24.4511 28.2328 25.6657C28.236 26.2737 28.2219 26.8818 28.2383 27.4891C28.2477 27.83 28.1325 28.0784 27.8379 28.2453C18.8906 28.2453 9.94418 28.2445 0.99692 28.25C0.795533 28.25 0.747731 28.2053 0.750081 28.004C0.762619 27.0832 0.755567 26.1625 0.755567 25.2425C0.772807 25.1916 0.78926 25.1414 0.806499 25.0905C1.15442 24.0193 1.87378 23.3846 3.00061 23.242C3.20983 23.2153 3.20748 23.086 3.20748 22.9379C3.20748 19.4195 3.20513 15.9003 3.2114 12.3819C3.2114 12.1304 3.11972 12.0551 2.87993 12.0614C2.42465 12.0747 1.96938 12.063 1.51332 12.0653C1.17166 12.0669 0.904453 11.9462 0.755567 11.621H0.754783ZM14.4734 10.7434C18.4503 10.7434 22.4263 10.7434 26.4031 10.7434C26.4924 10.7434 26.5818 10.7395 26.6711 10.7434C26.8404 10.7512 26.9172 10.6729 26.9156 10.5036C26.9132 10.1996 26.9038 9.89551 26.9195 9.59225C26.9321 9.35796 26.8459 9.22004 26.6413 9.09937C22.8361 6.84649 19.0333 4.58969 15.2343 2.32506C14.7179 2.0171 14.2438 2.02023 13.7274 2.32819C10.0139 4.54267 6.29804 6.7548 2.57119 8.94578C2.17077 9.18086 1.96859 9.4324 2.04695 9.89473C2.07046 10.0334 2.05009 10.18 2.05087 10.3234C2.05139 10.6029 2.18905 10.7429 2.46384 10.7434C6.4673 10.7434 10.47 10.7434 14.4734 10.7434ZM14.4821 26.95C18.4409 26.95 22.3997 26.95 26.3584 26.95C26.4564 26.95 26.5551 26.9461 26.6531 26.95C26.831 26.957 26.9179 26.881 26.9148 26.6969C26.9085 26.3309 26.925 25.9634 26.9031 25.5983C26.8709 25.0552 26.3945 24.5968 25.8499 24.56C25.7073 24.5506 25.5639 24.5514 25.4213 24.5514C18.129 24.5514 10.8367 24.5514 3.54443 24.5514C3.41905 24.5514 3.29446 24.5514 3.16908 24.5569C2.5516 24.5866 2.07752 25.0599 2.05479 25.6766C2.04461 25.9532 2.04931 26.2306 2.04931 26.5073C2.04931 26.8024 2.19845 26.9503 2.49675 26.9508C6.49159 26.9508 10.4856 26.9508 14.4805 26.9508L14.4821 26.95ZM8.28057 17.6407C8.28057 19.3819 8.28449 21.1239 8.27665 22.865C8.27587 23.1158 8.35345 23.2184 8.61282 23.2161C9.61271 23.2075 10.6134 23.2075 11.6133 23.2161C11.8726 23.2184 11.9502 23.1158 11.9494 22.865C11.9439 19.3733 11.9439 15.8815 11.9494 12.3897C11.9494 12.1468 11.8742 12.0591 11.6266 12.0614C10.6353 12.0716 9.64405 12.0653 8.65278 12.0661C8.28214 12.0661 8.28057 12.0685 8.28057 12.4438C8.28057 14.1764 8.28057 15.9089 8.28057 17.6415V17.6407ZM20.6859 17.6572C20.6859 15.9066 20.682 14.1568 20.6906 12.4062C20.6922 12.1547 20.6209 12.0575 20.3568 12.0606C19.3569 12.0724 18.3562 12.0724 17.3563 12.0606C17.0993 12.0575 17.0155 12.1413 17.0163 12.3991C17.0225 15.8815 17.0202 19.3647 17.021 22.847C17.021 23.1832 17.0468 23.2098 17.39 23.2106C18.3633 23.2122 19.3365 23.2122 20.3105 23.2106C20.6647 23.2106 20.6859 23.1871 20.6859 22.8266C20.6859 21.1035 20.6859 19.3795 20.6859 17.6564V17.6572ZM6.95706 17.6274C6.95706 15.8846 6.95235 14.1419 6.96176 12.3991C6.96332 12.139 6.87634 12.0551 6.6201 12.0614C6.02142 12.0755 5.42275 12.0724 4.82407 12.063C4.60544 12.0598 4.52473 12.1366 4.52473 12.3592C4.52943 15.8713 4.52943 19.3835 4.52473 22.8964C4.52473 23.1275 4.60779 23.2177 4.83739 23.2145C5.41804 23.2067 5.99949 23.2145 6.58014 23.2122C6.9359 23.2114 6.95706 23.1894 6.95706 22.829C6.95706 21.0949 6.95706 19.3615 6.95706 17.6274ZM15.6974 17.6274C15.6974 15.8846 15.6927 14.1419 15.7021 12.3991C15.7037 12.139 15.6175 12.0551 15.3613 12.0614C14.7626 12.0755 14.1639 12.0724 13.5652 12.063C13.3466 12.0598 13.2659 12.1366 13.2659 12.3592C13.2706 15.8713 13.2706 19.3835 13.2659 22.8956C13.2659 23.1268 13.349 23.2169 13.5786 23.2145C14.1592 23.2067 14.7407 23.2145 15.3213 23.2122C15.6778 23.2114 15.6974 23.1894 15.6974 22.829C15.6974 21.0949 15.6974 19.3615 15.6974 17.6274ZM22.0094 17.6007C22.0094 19.3521 22.0094 21.1043 22.0094 22.8556C22.0094 23.1808 22.0368 23.2098 22.3597 23.2114C22.9497 23.2137 23.5398 23.2067 24.1291 23.2145C24.3595 23.2177 24.4417 23.1268 24.4417 22.8956C24.437 19.3835 24.437 15.8713 24.4417 12.3584C24.4417 12.1351 24.3602 12.0591 24.1424 12.063C23.5523 12.0724 22.9631 12.0653 22.373 12.0661C22.0188 12.0661 22.0102 12.0755 22.0102 12.4266C22.0102 14.1513 22.0102 15.876 22.0102 17.6015L22.0094 17.6007Z" stroke="#CCCBCB" stroke-width="0.2" mask="url(#path-1-outside-1_143_1844)"/>
<path d="M14.462 8.17774H14.4617H14.4611C13.823 8.17315 13.3123 7.65069 13.319 7.00898C13.3258 6.37544 13.8514 5.87086 14.5009 5.87989C15.1461 5.88891 15.6556 6.40962 15.6459 7.04843C15.6361 7.68123 15.1127 8.18226 14.462 8.17774ZM11.8963 7.02563C11.8947 8.43948 13.0502 9.59731 14.4663 9.59891L14.4705 4.44385C13.0518 4.46142 11.8979 5.61874 11.8963 7.02563ZM17.0686 7.03041C17.0694 5.61435 15.8763 4.42626 14.4705 4.44385L17.0686 7.03041Z" fill="#CCCBCB" stroke="#CCCBCB" stroke-width="0.1"/>
</svg>
