<svg width="24" height="24" viewBox="0 0 24 24" fill="none" xmlns="http://www.w3.org/2000/svg">
<path d="M3.04 24H20.968C21.7729 23.9979 22.5441 23.6767 23.1124 23.1068C23.6808 22.5369 24 21.7649 24 20.96V3.04C23.9979 2.23439 23.6769 1.46238 23.1073 0.892728C22.5376 0.323075 21.7656 0.0021117 20.96 0H3.04C2.23439 0.0021117 1.46238 0.323075 0.892728 0.892728C0.323075 1.46238 0.0021117 2.23439 0 3.04V20.96C0.0021117 21.7656 0.323075 22.5376 0.892728 23.1073C1.46238 23.6769 2.23439 23.9979 3.04 24ZM2.024 3.04C2.024 2.77054 2.13104 2.51212 2.32158 2.32158C2.51212 2.13104 2.77054 2.024 3.04 2.024H20.96C21.2295 2.024 21.4879 2.13104 21.6784 2.32158C21.869 2.51212 21.976 2.77054 21.976 3.04V20.96C21.976 21.2295 21.869 21.4879 21.6784 21.6784C21.4879 21.869 21.2295 21.976 20.96 21.976H3.04C2.77054 21.976 2.51212 21.869 2.32158 21.6784C2.13104 21.4879 2.024 21.2295 2.024 20.96V3.04Z" fill="white"/>
<path d="M13.6344 17.5399H19.111C19.3538 17.5182 19.5797 17.4056 19.7442 17.2245C19.9087 17.0434 20 16.8068 20 16.5613C20 16.3158 19.9087 16.0792 19.7442 15.8981C19.5797 15.717 19.3538 15.6044 19.111 15.5827H13.6344C13.4995 15.5706 13.3637 15.5869 13.2354 15.6306C13.1072 15.6743 12.9893 15.7444 12.8894 15.8364C12.7895 15.9285 12.7098 16.0405 12.6552 16.1653C12.6006 16.2901 12.5724 16.4249 12.5724 16.5613C12.5724 16.6977 12.6006 16.8325 12.6552 16.9573C12.7098 17.0821 12.7895 17.1941 12.8894 17.2862C12.9893 17.3782 13.1072 17.4483 13.2354 17.492C13.3637 17.5357 13.4995 17.552 13.6344 17.5399ZM6.49872 9.12301C6.58961 9.21415 6.69745 9.28634 6.81607 9.33546C6.93469 9.38457 7.06177 9.40965 7.19002 9.40925C7.31723 9.41035 7.44335 9.38556 7.56082 9.33638C7.67829 9.28719 7.78469 9.21462 7.87363 9.12301L11.3071 5.66496C11.3968 5.57404 11.4679 5.46619 11.5163 5.34759C11.5647 5.22898 11.5894 5.10194 11.5891 4.97371C11.5887 4.84548 11.5633 4.71858 11.5143 4.60025C11.4652 4.48192 11.3935 4.37448 11.3032 4.28406C11.2129 4.19365 11.1059 4.12202 10.9881 4.07328C10.8703 4.02455 10.7442 3.99964 10.6169 4C10.4896 4.00036 10.3636 4.02598 10.2461 4.07538C10.1286 4.12478 10.0219 4.19701 9.93215 4.28793L7.19002 7.04199L5.65381 5.49477C5.4714 5.31428 5.22591 5.21316 4.9702 5.21316C4.71449 5.21316 4.469 5.31428 4.28659 5.49477C4.19578 5.58539 4.1237 5.69324 4.07452 5.81208C4.02533 5.93092 4 6.0584 4 6.18715C4 6.3159 4.02533 6.44338 4.07452 6.56222C4.1237 6.68106 4.19578 6.78891 4.28659 6.87953L6.49872 9.12301ZM7.78146 13.1303C7.10695 13.1319 6.44804 13.3348 5.88806 13.7135C5.32807 14.0922 4.89215 14.6296 4.63543 15.2579C4.37872 15.8861 4.31272 16.5769 4.4458 17.2429C4.57888 17.9088 4.90506 18.5201 5.38308 18.9994C5.8611 19.4787 6.46951 19.8045 7.13135 19.9355C7.79319 20.0665 8.47875 19.997 9.10133 19.7356C9.72391 19.4742 10.2556 19.0327 10.629 18.467C11.0025 17.9013 11.201 17.2368 11.1995 16.5574C11.1995 16.1061 11.111 15.6592 10.939 15.2424C10.7671 14.8255 10.5151 14.4471 10.1975 14.1286C9.87987 13.8102 9.50294 13.5581 9.08833 13.3867C8.67372 13.2154 8.2296 13.1283 7.78146 13.1303ZM7.78146 18.035C7.4913 18.035 7.20765 17.9484 6.96639 17.786C6.72513 17.6236 6.5371 17.3929 6.42606 17.1229C6.31502 16.8529 6.28596 16.5558 6.34257 16.2692C6.39918 15.9825 6.5389 15.7193 6.74408 15.5126C6.94925 15.306 7.21066 15.1652 7.49525 15.1082C7.77983 15.0512 8.07481 15.0805 8.34288 15.1923C8.61096 15.3041 8.84008 15.4935 9.00129 15.7365C9.16249 15.9795 9.24853 16.2652 9.24853 16.5574C9.24652 16.9487 9.0913 17.3233 8.81661 17.6C8.54191 17.8767 8.16993 18.033 7.78146 18.035ZM13.6344 7.68409H19.111C19.3538 7.66233 19.5797 7.54981 19.7442 7.36869C19.9087 7.18757 20 6.95097 20 6.70547C20 6.45998 19.9087 6.22338 19.7442 6.04225C19.5797 5.86113 19.3538 5.74861 19.111 5.72685H13.6344C13.4995 5.71476 13.3637 5.73108 13.2354 5.77477C13.1072 5.81846 12.9893 5.88856 12.8894 5.98061C12.7895 6.07266 12.7098 6.18464 12.6552 6.30944C12.6006 6.43424 12.5724 6.56911 12.5724 6.70547C12.5724 6.84184 12.6006 6.97671 12.6552 7.1015C12.7098 7.2263 12.7895 7.33828 12.8894 7.43033C12.9893 7.52239 13.1072 7.59248 13.2354 7.63617C13.3637 7.67986 13.4995 7.69618 13.6344 7.68409Z" fill="white"/>
</svg>
