<svg width="45" height="42" viewBox="0 0 45 42" fill="none" xmlns="http://www.w3.org/2000/svg">
<path d="M44.95 40.8219C44.72 41.1819 44.39 41.2919 43.98 41.2919C29.65 41.2919 15.32 41.2919 0.98999 41.2919C0.33999 41.2919 0.01 41.0219 0 40.5019C0 39.9919 0.350001 39.6619 0.970001 39.6819C1.42 39.6919 1.49999 39.5119 1.48999 39.1119C1.47999 36.0219 1.48999 32.9419 1.48999 29.8519C1.48999 29.2119 1.49001 29.2119 2.10001 29.2119C4.72001 29.2119 7.33001 29.2119 9.95001 29.2119C10.57 29.2119 10.57 29.2119 10.57 29.8519C10.57 32.9219 10.57 35.9919 10.57 39.0619C10.57 39.4619 10.7733 39.6619 11.18 39.6619C11.5 39.6619 11.83 39.6419 12.14 39.6619C12.57 39.7019 12.73 39.5619 12.72 39.1019C12.69 37.7619 12.71 36.4119 12.71 35.0619C12.71 31.0719 12.71 27.0819 12.71 23.0819C12.71 22.6552 12.93 22.4419 13.37 22.4419C15.93 22.4419 18.49 22.4419 21.05 22.4419C21.55 22.4419 21.8 22.6852 21.8 23.1719C21.8 28.4519 21.8 33.7319 21.8 39.0119C21.8 39.4319 22.0066 39.6419 22.42 39.6419C22.81 39.6419 23.21 39.6419 23.6 39.6419C23.84 39.6419 23.96 39.5519 23.94 39.3019C23.94 39.1719 23.94 39.0419 23.94 38.9119C23.94 31.6619 23.94 24.4019 23.94 17.1519C23.94 16.6986 24.1733 16.4719 24.64 16.4719C27.23 16.4719 29.82 16.4719 32.4 16.4719C33.02 16.4719 33.02 16.4719 33.02 17.1119C33.02 24.3919 33.02 31.6719 33.02 38.9619C33.02 39.4219 33.25 39.6519 33.71 39.6519C34 39.6519 34.29 39.6519 34.59 39.6519C34.97 39.6519 35.16 39.4552 35.16 39.0619C35.16 29.8219 35.16 20.5819 35.16 11.3419C35.16 10.4119 35.01 10.4519 36.06 10.4519C38.56 10.4519 41.06 10.4519 43.56 10.4519C44.0133 10.4519 44.24 10.6786 44.24 11.1319C44.24 20.2419 44.24 29.3519 44.24 38.4619C44.24 39.1319 44.22 39.7619 44.93 40.1219V40.8219H44.95ZM42.64 25.8619C42.64 21.4319 42.64 17.0019 42.64 12.5719C42.64 12.2019 42.55 12.0619 42.15 12.0619C40.53 12.0819 38.9 12.0819 37.28 12.0619C36.85 12.0619 36.77 12.2219 36.77 12.6019C36.77 21.4419 36.77 30.2919 36.77 39.1319C36.77 39.5719 36.93 39.6719 37.34 39.6619C38.9 39.6419 40.47 39.6619 42.03 39.6619C42.43 39.6619 42.63 39.4619 42.63 39.0619C42.63 34.6619 42.63 30.2619 42.63 25.8619H42.64ZM31.41 28.8819C31.41 25.4619 31.41 22.0419 31.41 18.6219C31.41 18.2219 31.3 18.0819 30.89 18.0919C29.28 18.1119 27.68 18.1119 26.07 18.0919C25.66 18.0919 25.55 18.2419 25.55 18.6319C25.55 25.4719 25.55 32.3119 25.55 39.1519C25.55 39.5519 25.68 39.6819 26.08 39.6719C27.67 39.6519 29.27 39.6519 30.86 39.6719C31.32 39.6719 31.42 39.5319 31.42 39.0919C31.4 35.6919 31.42 32.2819 31.42 28.8819H31.41ZM20.18 31.9219C20.18 29.4819 20.18 27.0419 20.18 24.6019C20.18 24.1919 20.05 24.0819 19.65 24.0819C18.04 24.1019 16.43 24.1019 14.83 24.0819C14.46 24.0819 14.31 24.1819 14.31 24.5719C14.32 29.4419 14.32 34.3119 14.31 39.1719C14.31 39.5619 14.45 39.6719 14.82 39.6719C16.41 39.6519 18.01 39.6519 19.6 39.6719C20.04 39.6719 20.18 39.5619 20.18 39.1119C20.16 36.7119 20.17 34.3219 20.17 31.9219H20.18ZM8.95001 35.2719C8.95001 33.9519 8.94001 32.6419 8.95001 31.3219C8.95001 30.9319 8.82 30.8219 8.44 30.8219C6.83 30.8419 5.21999 30.8419 3.60999 30.8219C3.20999 30.8219 3.06999 30.9419 3.07999 31.3519C3.08999 33.9519 3.08999 36.5619 3.07999 39.1619C3.07999 39.5319 3.17999 39.6819 3.57999 39.6719C5.19999 39.6519 6.83001 39.6519 8.45001 39.6719C8.83001 39.6719 8.96001 39.5519 8.95001 39.1719C8.93001 37.8719 8.95001 36.5719 8.95001 35.2719Z" fill="white"/>
<path d="M32.6201 1.98195C31.3501 1.85195 30.2001 1.74195 29.0501 1.63195C28.9501 1.62195 28.8401 1.63195 28.7401 1.60195C28.2601 1.51195 27.9501 1.14195 27.9901 0.721948C28.0401 0.291948 28.4001 -0.0280521 28.8901 0.00194789C29.5701 0.0419479 30.2602 0.121948 30.9402 0.181948C32.3302 0.321948 33.7302 0.461948 35.1201 0.601948C35.8501 0.671948 36.1701 1.19195 35.8701 1.86195C35.0301 3.74195 34.1702 5.62195 33.3102 7.49195C33.1002 7.95195 32.7702 8.13195 32.3802 8.05195C31.8402 7.93195 31.5902 7.41195 31.8402 6.85195C32.2702 5.87195 32.7202 4.91195 33.1602 3.93195C33.2202 3.80195 33.3302 3.69195 33.2502 3.47195C33.0302 3.59195 32.8101 3.71195 32.6101 3.83195C24.0301 8.79195 15.4501 13.7419 6.86014 18.7019C6.73014 18.7719 6.61016 18.8419 6.48017 18.9119C6.01016 19.1519 5.55014 19.0519 5.33014 18.6619C5.10014 18.2519 5.24015 17.7919 5.71015 17.5119C6.88015 16.8219 8.06014 16.1519 9.24014 15.4719C16.8501 11.0819 24.4602 6.69195 32.0602 2.29195C32.2002 2.21195 32.3302 2.13195 32.5902 1.97195L32.6201 1.98195Z" fill="white"/>
</svg>
