<svg width="20" height="20" viewBox="0 0 20 20" fill="none" xmlns="http://www.w3.org/2000/svg">
<g clip-path="url(#clip0_243_48)">
<path fill-rule="evenodd" clip-rule="evenodd" d="M10 0.000732422C15.5143 0.000732422 20 4.4864 20 10.0001C20 15.5137 15.5143 19.9994 10 19.9994C4.486 19.9994 0 15.5137 0 10.0001C0 4.4864 4.486 0.000732422 10 0.000732422ZM12.7402 6.0769L10 8.81707L7.25983 6.07673C6.93327 5.7501 6.40358 5.74978 6.0767 6.07673C5.75013 6.4033 5.75013 6.93325 6.0767 7.2598L8.81687 10.0003L6.07637 12.7405C5.74973 13.0673 5.74973 13.597 6.07637 13.9236C6.40352 14.2507 6.93288 14.2505 7.25977 13.9239L9.99993 11.1834L12.7401 13.9235C13.0667 14.2501 13.5966 14.2504 13.9232 13.9238C14.2504 13.5966 14.2498 13.067 13.9232 12.7404L11.1831 10.0002L13.9232 7.26005C14.2498 6.93375 14.2504 6.4038 13.9232 6.07692C13.5966 5.75004 13.0667 5.75029 12.7401 6.07692L12.7402 6.0769Z" fill="white"/>
</g>
<defs>
<clipPath id="clip0_243_48">
<rect width="20" height="20" fill="white"/>
</clipPath>
</defs>
</svg>
