<svg width="12" height="12" viewBox="0 0 12 12" fill="none" xmlns="http://www.w3.org/2000/svg">
<g clip-path="url(#clip0_243_48)">
<path fill-rule="evenodd" clip-rule="evenodd" d="M6 0.000366211C9.3086 0.000366211 12 2.69177 12 5.99997C12 9.30817 9.3086 11.9996 6 11.9996C2.6916 11.9996 0 9.30817 0 5.99997C0 2.69177 2.6916 0.000366211 6 0.000366211ZM7.6441 3.64607L6 5.29017L4.3559 3.64597C4.15996 3.44999 3.84215 3.4498 3.64602 3.64597C3.45008 3.84191 3.45008 4.15988 3.64602 4.35581L5.29012 6.00011L3.64582 7.64421C3.44984 7.84034 3.44984 8.15812 3.64582 8.35409C3.84211 8.55038 4.15973 8.55022 4.35586 8.35424L5.99996 6.70994L7.64406 8.35404C7.84004 8.54998 8.15797 8.55017 8.35394 8.3542C8.55023 8.15791 8.54988 7.8401 8.35394 7.64416L6.70984 6.00006L8.35394 4.35596C8.54988 4.16018 8.55023 3.84221 8.35394 3.64608C8.15796 3.44995 7.84003 3.4501 7.64406 3.64608L7.6441 3.64607Z" fill="#3D3D3D"/>
</g>
<defs>
<clipPath id="clip0_243_48">
<rect width="12" height="12" fill="white"/>
</clipPath>
</defs>
</svg>
