<svg width="68" height="68" viewBox="0 0 68 68" fill="none" xmlns="http://www.w3.org/2000/svg">
<path d="M33.9994 1.35938C15.9751 1.35938 1.35938 15.9751 1.35938 33.9994C1.35938 52.0237 15.9751 66.6394 33.9994 66.6394C52.0237 66.6394 66.6394 52.0237 66.6394 33.9994C66.6394 15.9751 52.0237 1.35938 33.9994 1.35938ZM33.9994 61.9765C18.5723 61.9765 6.02224 49.4264 6.02224 33.9994C6.02224 18.5723 18.5723 6.02224 33.9994 6.02224C49.4264 6.02224 61.9765 18.5723 61.9765 33.9994C61.9765 49.4264 49.4264 61.9765 33.9994 61.9765Z" fill="#00AB11"/>
<path d="M29.482 45C29.0166 45 28.59 44.8386 28.241 44.4755L20.5235 36.4467C19.8255 35.7205 19.8255 34.5908 20.5235 33.8646C21.2216 33.1383 22.3075 33.1383 23.0055 33.8646L29.5208 40.6023L44.9945 24.5447C45.6925 23.8184 46.7784 23.8184 47.4765 24.5447C48.1745 25.2709 48.1745 26.4006 47.4765 27.1268L30.7618 44.4755C30.374 44.8386 29.9474 45 29.482 45V45Z" fill="#00AB11" stroke="#00AB11"/>
</svg>
